<?xml version="1.0" encoding="UTF-8"?>
<!DOCTYPE svg PUBLIC "-//W3C//DTD SVG 1.1//EN" "http://www.w3.org/Graphics/SVG/1.1/DTD/svg11.dtd">
<svg version="1.2" width="11.45mm" height="8.95mm" viewBox="6632 3223 1145 895" preserveAspectRatio="xMidYMid" fill-rule="evenodd" stroke-width="28.222" stroke-linejoin="round" xmlns="http://www.w3.org/2000/svg" xmlns:ooo="http://xml.openoffice.org/svg/export" xmlns:xlink="http://www.w3.org/1999/xlink" xmlns:presentation="http://sun.com/xmlns/staroffice/presentation" xmlns:smil="http://www.w3.org/2001/SMIL20/" xmlns:anim="urn:oasis:names:tc:opendocument:xmlns:animation:1.0" xmlns:svg="urn:oasis:names:tc:opendocument:xmlns:svg-compatible:1.0" xml:space="preserve">
 <defs class="EmbeddedBulletChars">
  <g id="bullet-char-template-57356" transform="scale(0.00048828125,-0.00048828125)">
   <path d="M 580,1141 L 1163,571 580,0 -4,571 580,1141 Z"/>
  </g>
  <g id="bullet-char-template-57354" transform="scale(0.00048828125,-0.00048828125)">
   <path d="M 8,1128 L 1137,1128 1137,0 8,0 8,1128 Z"/>
  </g>
  <g id="bullet-char-template-10146" transform="scale(0.00048828125,-0.00048828125)">
   <path d="M 174,0 L 602,739 174,1481 1456,739 174,0 Z M 1358,739 L 309,1346 659,739 1358,739 Z"/>
  </g>
  <g id="bullet-char-template-10132" transform="scale(0.00048828125,-0.00048828125)">
   <path d="M 2015,739 L 1276,0 717,0 1260,543 174,543 174,936 1260,936 717,1481 1274,1481 2015,739 Z"/>
  </g>
  <g id="bullet-char-template-10007" transform="scale(0.00048828125,-0.00048828125)">
   <path d="M 0,-2 C -7,14 -16,27 -25,37 L 356,567 C 262,823 215,952 215,954 215,979 228,992 255,992 264,992 276,990 289,987 310,991 331,999 354,1012 L 381,999 492,748 772,1049 836,1024 860,1049 C 881,1039 901,1025 922,1006 886,937 835,863 770,784 769,783 710,716 594,584 L 774,223 C 774,196 753,168 711,139 L 727,119 C 717,90 699,76 672,76 641,76 570,178 457,381 L 164,-76 C 142,-110 111,-127 72,-127 30,-127 9,-110 8,-76 1,-67 -2,-52 -2,-32 -2,-23 -1,-13 0,-2 Z"/>
  </g>
  <g id="bullet-char-template-10004" transform="scale(0.00048828125,-0.00048828125)">
   <path d="M 285,-33 C 182,-33 111,30 74,156 52,228 41,333 41,471 41,549 55,616 82,672 116,743 169,778 240,778 293,778 328,747 346,684 L 369,508 C 377,444 397,411 428,410 L 1163,1116 C 1174,1127 1196,1133 1229,1133 1271,1133 1292,1118 1292,1087 L 1292,965 C 1292,929 1282,901 1262,881 L 442,47 C 390,-6 338,-33 285,-33 Z"/>
  </g>
  <g id="bullet-char-template-9679" transform="scale(0.00048828125,-0.00048828125)">
   <path d="M 813,0 C 632,0 489,54 383,161 276,268 223,411 223,592 223,773 276,916 383,1023 489,1130 632,1184 813,1184 992,1184 1136,1130 1245,1023 1353,916 1407,772 1407,592 1407,412 1353,268 1245,161 1136,54 992,0 813,0 Z"/>
  </g>
  <g id="bullet-char-template-8226" transform="scale(0.00048828125,-0.00048828125)">
   <path d="M 346,457 C 273,457 209,483 155,535 101,586 74,649 74,723 74,796 101,859 155,911 209,963 273,989 346,989 419,989 480,963 531,910 582,859 608,796 608,723 608,648 583,586 532,535 482,483 420,457 346,457 Z"/>
  </g>
  <g id="bullet-char-template-8211" transform="scale(0.00048828125,-0.00048828125)">
   <path d="M -4,459 L 1135,459 1135,606 -4,606 -4,459 Z"/>
  </g>
  <g id="bullet-char-template-61548" transform="scale(0.00048828125,-0.00048828125)">
   <path d="M 173,740 C 173,903 231,1043 346,1159 462,1274 601,1332 765,1332 928,1332 1067,1274 1183,1159 1299,1043 1357,903 1357,740 1357,577 1299,437 1183,322 1067,206 928,148 765,148 601,148 462,206 346,322 231,437 173,577 173,740 Z"/>
  </g>
 </defs>
 <g class="Page">
  <g class="com.sun.star.drawing.CustomShape">
   <g id="id3">
    <rect class="BoundingBox" stroke="none" fill="none" x="6632" y="3223" width="1145" height="890"/>
   </g>
  </g>
  <g class="Group">
   <g class="com.sun.star.drawing.ClosedBezierShape">
    <g id="id4">
     <rect class="BoundingBox" stroke="none" fill="none" x="7102" y="3323" width="664" height="744"/>
     <g>
      <defs>
       <linearGradient id="gradient1" x1="7037" y1="3417" x2="7829" y2="3972" gradientUnits="userSpaceOnUse">
        <stop offset="0" style="stop-color:rgb(153,153,153)"/>
        <stop offset="1" style="stop-color:rgb(128,128,128)"/>
       </linearGradient>
      </defs>
      <path style="fill:url(#gradient1)" d="M 7428,3390 L 7428,3390 7427,3391 7427,3392 7426,3394 7424,3395 7424,3396 7423,3397 7423,3397 7423,3397 7422,3400 7421,3402 7419,3404 7418,3406 7417,3408 7413,3416 7103,4065 7306,4065 7717,3629 7719,3627 7721,3626 7724,3623 7730,3616 7732,3613 7732,3613 7732,3612 7733,3611 7734,3610 7736,3608 7737,3606 7743,3597 7748,3587 7752,3577 7756,3567 7759,3557 7762,3546 7763,3535 7764,3524 7764,3513 7763,3502 7761,3490 7759,3479 7756,3468 7752,3457 7747,3446 7742,3435 7736,3424 7729,3414 7722,3404 7714,3395 7705,3386 7696,3377 7687,3369 7677,3362 7667,3355 7656,3349 7645,3344 7634,3339 7622,3335 7611,3331 7599,3328 7587,3326 7575,3325 7563,3324 7552,3324 7540,3325 7529,3327 7518,3330 7507,3333 7496,3337 7486,3342 7476,3347 7467,3353 7458,3359 7450,3366 7442,3373 7435,3381 7428,3390 Z"/>
     </g>
     <path fill="none" stroke="rgb(51,51,51)" d="M 7428,3390 C 7426,3392 7425,3395 7423,3397 L 7423,3397 7422,3400 C 7418,3405 7416,3410 7413,3416 L 7103,4065 7306,4065 7717,3629 C 7722,3625 7726,3620 7730,3616 L 7732,3613 7732,3613 C 7733,3611 7735,3609 7737,3606 7753,3582 7763,3554 7764,3524 7765,3494 7757,3464 7742,3435 7727,3406 7704,3381 7677,3362 7650,3343 7619,3331 7587,3326 7555,3321 7524,3325 7496,3337 7468,3349 7445,3366 7428,3390 Z"/>
    </g>
   </g>
   <g class="com.sun.star.drawing.CustomShape">
    <g id="id5">
     <rect class="BoundingBox" stroke="none" fill="none" x="7037" y="4073" width="335" height="45"/>
     <g>
      <defs>
       <linearGradient id="gradient2" x1="7083" y1="4010" x2="7325" y2="4180" gradientUnits="userSpaceOnUse">
        <stop offset="0" style="stop-color:rgb(153,153,153)"/>
        <stop offset="1" style="stop-color:rgb(128,128,128)"/>
       </linearGradient>
      </defs>
      <path style="fill:url(#gradient2)" d="M 7045,4074 L 7045,4074 7045,4074 7044,4074 7044,4074 7043,4074 7043,4074 7042,4075 7042,4075 7042,4075 7041,4075 7041,4075 7040,4076 7040,4076 7040,4076 7039,4077 7039,4077 7039,4078 7039,4078 7039,4078 7038,4079 7038,4079 7038,4080 7038,4080 7038,4081 7038,4081 7038,4109 7038,4109 7038,4109 7038,4110 7038,4110 7038,4111 7038,4111 7039,4112 7039,4112 7039,4113 7039,4113 7039,4113 7040,4114 7040,4114 7040,4114 7041,4115 7041,4115 7042,4115 7042,4115 7042,4115 7043,4116 7043,4116 7044,4116 7044,4116 7045,4116 7045,4116 7363,4116 7363,4116 7363,4116 7364,4116 7364,4116 7365,4116 7365,4116 7366,4115 7366,4115 7367,4115 7367,4115 7367,4115 7368,4114 7368,4114 7368,4114 7369,4113 7369,4113 7369,4113 7369,4112 7369,4112 7370,4111 7370,4111 7370,4110 7370,4110 7370,4109 7370,4109 7370,4081 7370,4081 7370,4081 7370,4081 7370,4080 7370,4080 7370,4079 7370,4079 7369,4078 7369,4078 7369,4078 7369,4077 7369,4077 7368,4076 7368,4076 7368,4076 7367,4075 7367,4075 7367,4075 7366,4075 7366,4075 7365,4074 7365,4074 7364,4074 7364,4074 7363,4074 7363,4074 7045,4074 Z"/>
     </g>
     <path fill="none" stroke="rgb(51,51,51)" d="M 7045,4074 L 7045,4074 C 7044,4074 7043,4074 7042,4075 7040,4076 7040,4076 7039,4078 7038,4079 7038,4080 7038,4081 L 7038,4109 7038,4109 C 7038,4110 7038,4111 7039,4113 7040,4114 7040,4114 7042,4115 7043,4116 7044,4116 7045,4116 L 7363,4116 7363,4116 C 7364,4116 7365,4116 7367,4115 7368,4114 7368,4114 7369,4113 7370,4111 7370,4110 7370,4109 L 7370,4081 7370,4081 7370,4081 C 7370,4080 7370,4079 7369,4078 7368,4076 7368,4076 7367,4075 7365,4074 7364,4074 7363,4074 L 7045,4074 Z"/>
    </g>
   </g>
  </g>
 </g>
</svg>