<?xml version="1.0" encoding="UTF-8"?>
<!DOCTYPE svg PUBLIC "-//W3C//DTD SVG 1.1//EN" "http://www.w3.org/Graphics/SVG/1.1/DTD/svg11.dtd">
<svg version="1.2" width="4.77mm" height="5.37mm" viewBox="5129 25008 477 537" preserveAspectRatio="xMidYMid" fill-rule="evenodd" stroke-width="28.222" stroke-linejoin="round" xmlns="http://www.w3.org/2000/svg" xmlns:ooo="http://xml.openoffice.org/svg/export" xmlns:xlink="http://www.w3.org/1999/xlink" xmlns:presentation="http://sun.com/xmlns/staroffice/presentation" xmlns:smil="http://www.w3.org/2001/SMIL20/" xmlns:anim="urn:oasis:names:tc:opendocument:xmlns:animation:1.0" xmlns:svg="urn:oasis:names:tc:opendocument:xmlns:svg-compatible:1.0" xml:space="preserve">
 <defs class="EmbeddedBulletChars">
  <g id="bullet-char-template-57356" transform="scale(0.00048828125,-0.00048828125)">
   <path d="M 580,1141 L 1163,571 580,0 -4,571 580,1141 Z"/>
  </g>
  <g id="bullet-char-template-57354" transform="scale(0.00048828125,-0.00048828125)">
   <path d="M 8,1128 L 1137,1128 1137,0 8,0 8,1128 Z"/>
  </g>
  <g id="bullet-char-template-10146" transform="scale(0.00048828125,-0.00048828125)">
   <path d="M 174,0 L 602,739 174,1481 1456,739 174,0 Z M 1358,739 L 309,1346 659,739 1358,739 Z"/>
  </g>
  <g id="bullet-char-template-10132" transform="scale(0.00048828125,-0.00048828125)">
   <path d="M 2015,739 L 1276,0 717,0 1260,543 174,543 174,936 1260,936 717,1481 1274,1481 2015,739 Z"/>
  </g>
  <g id="bullet-char-template-10007" transform="scale(0.00048828125,-0.00048828125)">
   <path d="M 0,-2 C -7,14 -16,27 -25,37 L 356,567 C 262,823 215,952 215,954 215,979 228,992 255,992 264,992 276,990 289,987 310,991 331,999 354,1012 L 381,999 492,748 772,1049 836,1024 860,1049 C 881,1039 901,1025 922,1006 886,937 835,863 770,784 769,783 710,716 594,584 L 774,223 C 774,196 753,168 711,139 L 727,119 C 717,90 699,76 672,76 641,76 570,178 457,381 L 164,-76 C 142,-110 111,-127 72,-127 30,-127 9,-110 8,-76 1,-67 -2,-52 -2,-32 -2,-23 -1,-13 0,-2 Z"/>
  </g>
  <g id="bullet-char-template-10004" transform="scale(0.00048828125,-0.00048828125)">
   <path d="M 285,-33 C 182,-33 111,30 74,156 52,228 41,333 41,471 41,549 55,616 82,672 116,743 169,778 240,778 293,778 328,747 346,684 L 369,508 C 377,444 397,411 428,410 L 1163,1116 C 1174,1127 1196,1133 1229,1133 1271,1133 1292,1118 1292,1087 L 1292,965 C 1292,929 1282,901 1262,881 L 442,47 C 390,-6 338,-33 285,-33 Z"/>
  </g>
  <g id="bullet-char-template-9679" transform="scale(0.00048828125,-0.00048828125)">
   <path d="M 813,0 C 632,0 489,54 383,161 276,268 223,411 223,592 223,773 276,916 383,1023 489,1130 632,1184 813,1184 992,1184 1136,1130 1245,1023 1353,916 1407,772 1407,592 1407,412 1353,268 1245,161 1136,54 992,0 813,0 Z"/>
  </g>
  <g id="bullet-char-template-8226" transform="scale(0.00048828125,-0.00048828125)">
   <path d="M 346,457 C 273,457 209,483 155,535 101,586 74,649 74,723 74,796 101,859 155,911 209,963 273,989 346,989 419,989 480,963 531,910 582,859 608,796 608,723 608,648 583,586 532,535 482,483 420,457 346,457 Z"/>
  </g>
  <g id="bullet-char-template-8211" transform="scale(0.00048828125,-0.00048828125)">
   <path d="M -4,459 L 1135,459 1135,606 -4,606 -4,459 Z"/>
  </g>
  <g id="bullet-char-template-61548" transform="scale(0.00048828125,-0.00048828125)">
   <path d="M 173,740 C 173,903 231,1043 346,1159 462,1274 601,1332 765,1332 928,1332 1067,1274 1183,1159 1299,1043 1357,903 1357,740 1357,577 1299,437 1183,322 1067,206 928,148 765,148 601,148 462,206 346,322 231,437 173,577 173,740 Z"/>
  </g>
 </defs>
 <g class="Page">
  <g class="Group">
   <g class="com.sun.star.drawing.LineShape">
    <g id="id3">
     <rect class="BoundingBox" stroke="none" fill="none" x="5194" y="25453" width="21" height="92"/>
     <path fill="none" stroke="rgb(102,102,102)" stroke-width="18" stroke-linejoin="round" d="M 5205,25463 L 5204,25535"/>
    </g>
   </g>
   <g class="com.sun.star.drawing.CustomShape">
    <g id="id4">
     <rect class="BoundingBox" stroke="none" fill="none" x="5183" y="25344" width="86" height="156"/>
     <g>
      <defs>
       <linearGradient id="gradient1" x1="5182" y1="25346" x2="5269" y2="25497" gradientUnits="userSpaceOnUse">
        <stop offset="0" style="stop-color:rgb(255,228,181)"/>
        <stop offset="1" style="stop-color:rgb(188,143,143)"/>
       </linearGradient>
      </defs>
      <path style="fill:url(#gradient1)" d="M 5184,25484 L 5184,25484 5184,25484 5184,25485 5184,25485 5184,25485 5184,25486 5184,25486 5184,25487 5184,25487 5184,25487 5184,25488 5184,25488 5184,25488 5185,25489 5185,25489 5185,25489 5185,25490 5186,25490 5186,25490 5186,25490 5187,25491 5187,25491 5187,25491 5188,25491 5188,25491 5211,25498 5212,25498 5212,25498 5213,25498 5213,25498 5213,25498 5214,25498 5214,25498 5215,25498 5215,25498 5215,25498 5216,25498 5216,25498 5217,25498 5217,25498 5217,25497 5218,25497 5218,25497 5218,25497 5219,25496 5219,25496 5219,25496 5219,25495 5219,25495 5220,25495 5220,25494 5267,25360 5267,25360 5267,25359 5267,25359 5267,25358 5267,25358 5267,25358 5267,25357 5267,25357 5267,25356 5267,25356 5267,25356 5267,25355 5267,25355 5267,25355 5266,25354 5266,25354 5266,25354 5266,25353 5265,25353 5265,25353 5265,25353 5264,25352 5264,25352 5264,25352 5263,25352 5239,25345 5240,25345 5240,25345 5239,25345 5239,25345 5238,25345 5238,25345 5237,25345 5237,25345 5237,25345 5236,25345 5236,25345 5235,25345 5235,25345 5235,25346 5234,25346 5234,25346 5234,25346 5233,25347 5233,25347 5233,25347 5232,25347 5232,25348 5232,25348 5232,25348 5232,25349 5232,25349 5184,25484 Z"/>
     </g>
    </g>
   </g>
  </g>
  <g class="Group">
   <g class="com.sun.star.drawing.LineShape">
    <g id="id5">
     <rect class="BoundingBox" stroke="none" fill="none" x="5522" y="25451" width="21" height="92"/>
     <path fill="none" stroke="rgb(102,102,102)" stroke-width="18" stroke-linejoin="round" d="M 5531,25460 L 5532,25533"/>
    </g>
   </g>
   <g class="com.sun.star.drawing.CustomShape">
    <g id="id6">
     <rect class="BoundingBox" stroke="none" fill="none" x="5470" y="25346" width="84" height="151"/>
     <g>
      <defs>
       <linearGradient id="gradient2" x1="5469" y1="25347" x2="5554" y2="25495" gradientUnits="userSpaceOnUse">
        <stop offset="0" style="stop-color:rgb(222,184,135)"/>
        <stop offset="1" style="stop-color:rgb(210,180,140)"/>
       </linearGradient>
      </defs>
      <path style="fill:url(#gradient2)" d="M 5552,25481 L 5552,25480 5552,25480 5552,25481 5552,25481 5552,25481 5552,25482 5552,25482 5552,25483 5552,25483 5552,25483 5552,25484 5552,25484 5552,25484 5552,25485 5551,25485 5551,25485 5551,25486 5551,25486 5551,25486 5550,25486 5550,25487 5550,25487 5549,25487 5549,25487 5549,25487 5527,25495 5527,25496 5526,25496 5526,25496 5526,25496 5525,25496 5525,25496 5524,25496 5524,25496 5524,25496 5523,25496 5523,25496 5523,25496 5522,25495 5522,25495 5522,25495 5521,25495 5521,25495 5521,25494 5520,25494 5520,25494 5520,25493 5520,25493 5520,25493 5519,25492 5519,25492 5471,25363 5471,25362 5471,25362 5471,25362 5471,25361 5471,25361 5471,25361 5471,25360 5471,25360 5471,25359 5471,25359 5471,25359 5471,25358 5471,25358 5471,25358 5472,25357 5472,25357 5472,25357 5472,25356 5473,25356 5473,25356 5473,25356 5473,25355 5474,25355 5474,25355 5474,25355 5497,25347 5496,25347 5496,25347 5497,25347 5497,25347 5497,25347 5498,25346 5498,25346 5499,25346 5499,25346 5499,25347 5500,25347 5500,25347 5500,25347 5501,25347 5501,25347 5501,25347 5502,25348 5502,25348 5502,25348 5503,25348 5503,25349 5503,25349 5503,25349 5504,25350 5504,25350 5504,25350 5552,25481 Z"/>
     </g>
    </g>
   </g>
  </g>
  <g class="com.sun.star.drawing.CustomShape">
   <g id="id7">
    <rect class="BoundingBox" stroke="none" fill="none" x="5129" y="25008" width="477" height="484"/>
    <g>
     <defs>
      <linearGradient id="gradient3" x1="5367" y1="25008" x2="5367" y2="25491" gradientUnits="userSpaceOnUse">
       <stop offset="0" style="stop-color:rgb(255,228,181)"/>
       <stop offset="1" style="stop-color:rgb(244,164,96)"/>
      </linearGradient>
     </defs>
     <path style="fill:url(#gradient3)" d="M 5605,25250 L 5604,25265 5603,25281 5600,25297 5597,25312 5592,25327 5587,25342 5580,25356 5573,25370 5565,25384 5556,25397 5546,25409 5535,25420 5524,25431 5512,25441 5499,25450 5486,25459 5472,25466 5458,25473 5443,25478 5429,25483 5413,25486 5398,25489 5383,25490 5367,25491 5351,25490 5336,25489 5321,25486 5305,25483 5291,25478 5276,25473 5262,25466 5248,25459 5235,25450 5222,25441 5210,25431 5199,25420 5188,25409 5178,25397 5169,25384 5161,25370 5154,25356 5147,25342 5142,25327 5137,25312 5134,25297 5131,25281 5130,25265 5129,25250 5130,25234 5131,25218 5134,25202 5137,25187 5142,25172 5147,25157 5154,25143 5161,25129 5169,25115 5178,25102 5188,25090 5199,25079 5210,25068 5222,25058 5235,25049 5248,25040 5262,25033 5276,25026 5291,25021 5305,25016 5321,25013 5336,25010 5351,25009 5367,25008 5383,25009 5398,25010 5413,25013 5429,25016 5443,25021 5458,25026 5472,25033 5486,25040 5499,25049 5512,25058 5524,25068 5535,25079 5546,25090 5556,25102 5565,25115 5573,25129 5580,25143 5587,25157 5592,25172 5597,25187 5600,25202 5603,25218 5604,25234 5605,25250 Z"/>
    </g>
   </g>
  </g>
 </g>
</svg>