<?xml version="1.0" encoding="UTF-8"?>
<!DOCTYPE svg PUBLIC "-//W3C//DTD SVG 1.1//EN" "http://www.w3.org/Graphics/SVG/1.1/DTD/svg11.dtd">
<svg version="1.2" width="5.9mm" height="6.52mm" viewBox="5129 25007 590 652" preserveAspectRatio="xMidYMid" fill-rule="evenodd" stroke-width="28.222" stroke-linejoin="round" xmlns="http://www.w3.org/2000/svg" xmlns:ooo="http://xml.openoffice.org/svg/export" xmlns:xlink="http://www.w3.org/1999/xlink" xmlns:presentation="http://sun.com/xmlns/staroffice/presentation" xmlns:smil="http://www.w3.org/2001/SMIL20/" xmlns:anim="urn:oasis:names:tc:opendocument:xmlns:animation:1.0" xmlns:svg="urn:oasis:names:tc:opendocument:xmlns:svg-compatible:1.0" xml:space="preserve">
 <defs class="EmbeddedBulletChars">
  <g id="bullet-char-template-57356" transform="scale(0.00048828125,-0.00048828125)">
   <path d="M 580,1141 L 1163,571 580,0 -4,571 580,1141 Z"/>
  </g>
  <g id="bullet-char-template-57354" transform="scale(0.00048828125,-0.00048828125)">
   <path d="M 8,1128 L 1137,1128 1137,0 8,0 8,1128 Z"/>
  </g>
  <g id="bullet-char-template-10146" transform="scale(0.00048828125,-0.00048828125)">
   <path d="M 174,0 L 602,739 174,1481 1456,739 174,0 Z M 1358,739 L 309,1346 659,739 1358,739 Z"/>
  </g>
  <g id="bullet-char-template-10132" transform="scale(0.00048828125,-0.00048828125)">
   <path d="M 2015,739 L 1276,0 717,0 1260,543 174,543 174,936 1260,936 717,1481 1274,1481 2015,739 Z"/>
  </g>
  <g id="bullet-char-template-10007" transform="scale(0.00048828125,-0.00048828125)">
   <path d="M 0,-2 C -7,14 -16,27 -25,37 L 356,567 C 262,823 215,952 215,954 215,979 228,992 255,992 264,992 276,990 289,987 310,991 331,999 354,1012 L 381,999 492,748 772,1049 836,1024 860,1049 C 881,1039 901,1025 922,1006 886,937 835,863 770,784 769,783 710,716 594,584 L 774,223 C 774,196 753,168 711,139 L 727,119 C 717,90 699,76 672,76 641,76 570,178 457,381 L 164,-76 C 142,-110 111,-127 72,-127 30,-127 9,-110 8,-76 1,-67 -2,-52 -2,-32 -2,-23 -1,-13 0,-2 Z"/>
  </g>
  <g id="bullet-char-template-10004" transform="scale(0.00048828125,-0.00048828125)">
   <path d="M 285,-33 C 182,-33 111,30 74,156 52,228 41,333 41,471 41,549 55,616 82,672 116,743 169,778 240,778 293,778 328,747 346,684 L 369,508 C 377,444 397,411 428,410 L 1163,1116 C 1174,1127 1196,1133 1229,1133 1271,1133 1292,1118 1292,1087 L 1292,965 C 1292,929 1282,901 1262,881 L 442,47 C 390,-6 338,-33 285,-33 Z"/>
  </g>
  <g id="bullet-char-template-9679" transform="scale(0.00048828125,-0.00048828125)">
   <path d="M 813,0 C 632,0 489,54 383,161 276,268 223,411 223,592 223,773 276,916 383,1023 489,1130 632,1184 813,1184 992,1184 1136,1130 1245,1023 1353,916 1407,772 1407,592 1407,412 1353,268 1245,161 1136,54 992,0 813,0 Z"/>
  </g>
  <g id="bullet-char-template-8226" transform="scale(0.00048828125,-0.00048828125)">
   <path d="M 346,457 C 273,457 209,483 155,535 101,586 74,649 74,723 74,796 101,859 155,911 209,963 273,989 346,989 419,989 480,963 531,910 582,859 608,796 608,723 608,648 583,586 532,535 482,483 420,457 346,457 Z"/>
  </g>
  <g id="bullet-char-template-8211" transform="scale(0.00048828125,-0.00048828125)">
   <path d="M -4,459 L 1135,459 1135,606 -4,606 -4,459 Z"/>
  </g>
  <g id="bullet-char-template-61548" transform="scale(0.00048828125,-0.00048828125)">
   <path d="M 173,740 C 173,903 231,1043 346,1159 462,1274 601,1332 765,1332 928,1332 1067,1274 1183,1159 1299,1043 1357,903 1357,740 1357,577 1299,437 1183,322 1067,206 928,148 765,148 601,148 462,206 346,322 231,437 173,577 173,740 Z"/>
  </g>
 </defs>
 <g class="Page">
  <g class="Group">
   <g class="Group">
    <g class="com.sun.star.drawing.LineShape">
     <g id="id3">
      <rect class="BoundingBox" stroke="none" fill="none" x="5212" y="25551" width="21" height="108"/>
      <path fill="none" stroke="rgb(102,102,102)" stroke-width="18" stroke-linejoin="round" d="M 5222,25561 L 5221,25649"/>
     </g>
    </g>
    <g class="com.sun.star.drawing.CustomShape">
     <g id="id4">
      <rect class="BoundingBox" stroke="none" fill="none" x="5198" y="25419" width="103" height="187"/>
      <g>
       <defs>
        <linearGradient id="gradient1" x1="5197" y1="25421" x2="5302" y2="25603" gradientUnits="userSpaceOnUse">
         <stop offset="0" style="stop-color:rgb(180,120,4)"/>
         <stop offset="1" style="stop-color:rgb(232,162,2)"/>
        </linearGradient>
       </defs>
       <path style="fill:url(#gradient1)" d="M 5199,25584 L 5199,25584 5199,25584 5198,25584 5198,25585 5198,25585 5198,25586 5198,25586 5198,25587 5198,25587 5199,25588 5199,25588 5199,25589 5199,25589 5199,25590 5199,25590 5200,25591 5200,25591 5200,25591 5201,25592 5201,25592 5202,25592 5202,25593 5202,25593 5203,25593 5203,25593 5232,25604 5232,25604 5233,25604 5233,25604 5234,25604 5234,25604 5235,25604 5235,25604 5236,25604 5236,25604 5237,25604 5237,25604 5238,25604 5238,25603 5239,25603 5239,25603 5239,25603 5240,25602 5240,25602 5240,25602 5241,25601 5241,25601 5241,25600 5242,25600 5242,25600 5242,25599 5299,25441 5299,25440 5299,25440 5300,25440 5300,25439 5300,25439 5300,25438 5300,25438 5300,25437 5300,25437 5299,25436 5299,25436 5299,25435 5299,25435 5299,25434 5299,25434 5298,25433 5298,25433 5298,25433 5297,25432 5297,25432 5296,25432 5296,25431 5296,25431 5295,25431 5295,25431 5265,25420 5266,25420 5266,25420 5265,25420 5265,25420 5264,25420 5264,25420 5263,25420 5263,25420 5262,25420 5262,25420 5261,25420 5261,25420 5260,25420 5260,25421 5259,25421 5259,25421 5259,25421 5258,25422 5258,25422 5258,25422 5257,25423 5257,25423 5257,25424 5256,25424 5256,25424 5256,25425 5199,25584 Z"/>
      </g>
     </g>
    </g>
   </g>
   <g class="Group">
    <g class="com.sun.star.drawing.LineShape">
     <g id="id5">
      <rect class="BoundingBox" stroke="none" fill="none" x="5615" y="25549" width="21" height="108"/>
      <path fill="none" stroke="rgb(102,102,102)" stroke-width="18" stroke-linejoin="round" d="M 5625,25558 L 5626,25646"/>
     </g>
    </g>
    <g class="com.sun.star.drawing.CustomShape">
     <g id="id6">
      <rect class="BoundingBox" stroke="none" fill="none" x="5546" y="25414" width="103" height="187"/>
      <g>
       <defs>
        <linearGradient id="gradient2" x1="5545" y1="25416" x2="5650" y2="25598" gradientUnits="userSpaceOnUse">
         <stop offset="0" style="stop-color:rgb(180,120,4)"/>
         <stop offset="1" style="stop-color:rgb(232,162,2)"/>
        </linearGradient>
       </defs>
       <path style="fill:url(#gradient2)" d="M 5647,25579 L 5647,25579 5647,25579 5648,25579 5648,25580 5648,25580 5648,25581 5648,25581 5648,25582 5648,25582 5647,25583 5647,25583 5647,25584 5647,25584 5647,25585 5647,25585 5646,25586 5646,25586 5646,25586 5645,25587 5645,25587 5644,25587 5644,25588 5644,25588 5643,25588 5643,25588 5614,25599 5614,25599 5613,25599 5613,25599 5612,25599 5612,25599 5611,25599 5611,25599 5610,25599 5610,25599 5609,25599 5609,25599 5608,25599 5608,25598 5607,25598 5607,25598 5607,25598 5606,25597 5606,25597 5606,25597 5605,25596 5605,25596 5605,25595 5604,25595 5604,25595 5604,25594 5547,25436 5547,25435 5547,25435 5546,25435 5546,25434 5546,25434 5546,25433 5546,25433 5546,25432 5546,25432 5547,25431 5547,25431 5547,25430 5547,25430 5547,25429 5547,25429 5548,25428 5548,25428 5548,25428 5549,25427 5549,25427 5550,25427 5550,25426 5550,25426 5551,25426 5551,25426 5581,25415 5580,25415 5580,25415 5581,25415 5581,25415 5582,25415 5582,25415 5583,25415 5583,25415 5584,25415 5584,25415 5585,25415 5585,25415 5586,25415 5586,25416 5587,25416 5587,25416 5587,25416 5588,25417 5588,25417 5588,25417 5589,25418 5589,25418 5589,25419 5590,25419 5590,25419 5590,25420 5647,25579 Z"/>
      </g>
     </g>
    </g>
   </g>
   <g class="com.sun.star.drawing.CustomShape">
    <g id="id7">
     <rect class="BoundingBox" stroke="none" fill="none" x="5129" y="25007" width="590" height="590"/>
     <g>
      <defs>
       <linearGradient id="gradient3" x1="5495" y1="25641" x2="5350" y2="24960" gradientUnits="userSpaceOnUse">
        <stop offset="0" style="stop-color:rgb(232,162,2)"/>
        <stop offset="1" style="stop-color:rgb(255,212,40)"/>
       </linearGradient>
      </defs>
      <path style="fill:url(#gradient3)" d="M 5717,25301 L 5716,25321 5714,25340 5711,25359 5707,25377 5701,25396 5695,25414 5687,25431 5678,25448 5667,25465 5656,25480 5644,25495 5631,25509 5617,25522 5602,25534 5587,25545 5570,25556 5553,25565 5536,25573 5518,25579 5499,25585 5481,25589 5462,25592 5443,25594 5424,25595 5404,25594 5385,25592 5366,25589 5348,25585 5329,25579 5311,25573 5294,25565 5277,25556 5260,25545 5245,25534 5230,25522 5216,25509 5203,25495 5191,25480 5180,25465 5169,25448 5160,25431 5152,25414 5146,25396 5140,25377 5136,25359 5133,25340 5131,25321 5130,25301 5131,25282 5133,25263 5136,25244 5140,25226 5146,25207 5152,25189 5160,25172 5169,25155 5180,25138 5191,25123 5203,25108 5216,25094 5230,25081 5245,25069 5260,25058 5277,25047 5294,25038 5311,25030 5329,25024 5348,25018 5366,25014 5385,25011 5404,25009 5424,25008 5443,25009 5462,25011 5481,25014 5499,25018 5518,25024 5536,25030 5553,25038 5570,25047 5587,25058 5602,25069 5617,25081 5631,25094 5644,25108 5656,25123 5667,25138 5678,25155 5687,25172 5695,25189 5701,25207 5707,25226 5711,25244 5714,25263 5716,25282 5717,25301 Z"/>
     </g>
     <path fill="none" stroke="rgb(180,120,4)" d="M 5717,25301 C 5717,25353 5703,25404 5678,25448 5652,25493 5615,25530 5570,25556 5526,25581 5475,25595 5424,25595 5372,25595 5321,25581 5277,25556 5232,25530 5195,25493 5169,25448 5144,25404 5130,25353 5130,25301 5130,25250 5144,25199 5169,25155 5195,25110 5232,25073 5277,25047 5321,25022 5372,25008 5424,25008 5475,25008 5526,25022 5570,25047 5615,25073 5652,25110 5678,25155 5703,25199 5717,25250 5717,25301 Z"/>
    </g>
   </g>
  </g>
 </g>
</svg>