<?xml version="1.0" encoding="UTF-8"?>
<!DOCTYPE svg PUBLIC "-//W3C//DTD SVG 1.1//EN" "http://www.w3.org/Graphics/SVG/1.1/DTD/svg11.dtd">
<svg version="1.2" width="6.21mm" height="10.03mm" viewBox="3973 22847 621 1003" preserveAspectRatio="xMidYMid" fill-rule="evenodd" stroke-width="28.222" stroke-linejoin="round" xmlns="http://www.w3.org/2000/svg" xmlns:ooo="http://xml.openoffice.org/svg/export" xmlns:xlink="http://www.w3.org/1999/xlink" xmlns:presentation="http://sun.com/xmlns/staroffice/presentation" xmlns:smil="http://www.w3.org/2001/SMIL20/" xmlns:anim="urn:oasis:names:tc:opendocument:xmlns:animation:1.0" xmlns:svg="urn:oasis:names:tc:opendocument:xmlns:svg-compatible:1.0" xml:space="preserve">
 <defs class="EmbeddedBulletChars">
  <g id="bullet-char-template-57356" transform="scale(0.00048828125,-0.00048828125)">
   <path d="M 580,1141 L 1163,571 580,0 -4,571 580,1141 Z"/>
  </g>
  <g id="bullet-char-template-57354" transform="scale(0.00048828125,-0.00048828125)">
   <path d="M 8,1128 L 1137,1128 1137,0 8,0 8,1128 Z"/>
  </g>
  <g id="bullet-char-template-10146" transform="scale(0.00048828125,-0.00048828125)">
   <path d="M 174,0 L 602,739 174,1481 1456,739 174,0 Z M 1358,739 L 309,1346 659,739 1358,739 Z"/>
  </g>
  <g id="bullet-char-template-10132" transform="scale(0.00048828125,-0.00048828125)">
   <path d="M 2015,739 L 1276,0 717,0 1260,543 174,543 174,936 1260,936 717,1481 1274,1481 2015,739 Z"/>
  </g>
  <g id="bullet-char-template-10007" transform="scale(0.00048828125,-0.00048828125)">
   <path d="M 0,-2 C -7,14 -16,27 -25,37 L 356,567 C 262,823 215,952 215,954 215,979 228,992 255,992 264,992 276,990 289,987 310,991 331,999 354,1012 L 381,999 492,748 772,1049 836,1024 860,1049 C 881,1039 901,1025 922,1006 886,937 835,863 770,784 769,783 710,716 594,584 L 774,223 C 774,196 753,168 711,139 L 727,119 C 717,90 699,76 672,76 641,76 570,178 457,381 L 164,-76 C 142,-110 111,-127 72,-127 30,-127 9,-110 8,-76 1,-67 -2,-52 -2,-32 -2,-23 -1,-13 0,-2 Z"/>
  </g>
  <g id="bullet-char-template-10004" transform="scale(0.00048828125,-0.00048828125)">
   <path d="M 285,-33 C 182,-33 111,30 74,156 52,228 41,333 41,471 41,549 55,616 82,672 116,743 169,778 240,778 293,778 328,747 346,684 L 369,508 C 377,444 397,411 428,410 L 1163,1116 C 1174,1127 1196,1133 1229,1133 1271,1133 1292,1118 1292,1087 L 1292,965 C 1292,929 1282,901 1262,881 L 442,47 C 390,-6 338,-33 285,-33 Z"/>
  </g>
  <g id="bullet-char-template-9679" transform="scale(0.00048828125,-0.00048828125)">
   <path d="M 813,0 C 632,0 489,54 383,161 276,268 223,411 223,592 223,773 276,916 383,1023 489,1130 632,1184 813,1184 992,1184 1136,1130 1245,1023 1353,916 1407,772 1407,592 1407,412 1353,268 1245,161 1136,54 992,0 813,0 Z"/>
  </g>
  <g id="bullet-char-template-8226" transform="scale(0.00048828125,-0.00048828125)">
   <path d="M 346,457 C 273,457 209,483 155,535 101,586 74,649 74,723 74,796 101,859 155,911 209,963 273,989 346,989 419,989 480,963 531,910 582,859 608,796 608,723 608,648 583,586 532,535 482,483 420,457 346,457 Z"/>
  </g>
  <g id="bullet-char-template-8211" transform="scale(0.00048828125,-0.00048828125)">
   <path d="M -4,459 L 1135,459 1135,606 -4,606 -4,459 Z"/>
  </g>
  <g id="bullet-char-template-61548" transform="scale(0.00048828125,-0.00048828125)">
   <path d="M 173,740 C 173,903 231,1043 346,1159 462,1274 601,1332 765,1332 928,1332 1067,1274 1183,1159 1299,1043 1357,903 1357,740 1357,577 1299,437 1183,322 1067,206 928,148 765,148 601,148 462,206 346,322 231,437 173,577 173,740 Z"/>
  </g>
 </defs>
 <g class="Page">
  <g class="Group">
   <g class="com.sun.star.drawing.LineShape">
    <g id="id3">
     <rect class="BoundingBox" stroke="none" fill="none" x="4024" y="23451" width="19" height="399"/>
     <path fill="none" stroke="rgb(51,51,51)" stroke-width="18" stroke-linejoin="round" d="M 4033,23460 L 4033,23840"/>
    </g>
   </g>
   <g class="com.sun.star.drawing.LineShape">
    <g id="id4">
     <rect class="BoundingBox" stroke="none" fill="none" x="4524" y="23451" width="19" height="399"/>
     <path fill="none" stroke="rgb(51,51,51)" stroke-width="18" stroke-linejoin="round" d="M 4533,23460 L 4533,23840"/>
    </g>
   </g>
  </g>
  <g class="com.sun.star.drawing.CustomShape">
   <g id="id5">
    <rect class="BoundingBox" stroke="none" fill="none" x="3973" y="22847" width="621" height="893"/>
    <g>
     <defs>
      <linearGradient id="gradient1" x1="4013" y1="22825" x2="4553" y2="23761" gradientUnits="userSpaceOnUse">
       <stop offset="0" style="stop-color:rgb(30,106,57)"/>
       <stop offset="1" style="stop-color:rgb(40,71,31)"/>
      </linearGradient>
     </defs>
     <path style="fill:url(#gradient1)" d="M 4077,22848 L 4077,22848 4070,22848 4064,22849 4057,22850 4050,22852 4044,22853 4038,22856 4031,22859 4026,22862 4020,22865 4014,22869 4009,22874 4004,22878 4000,22883 3995,22888 3991,22894 3988,22899 3985,22905 3982,22912 3979,22918 3978,22924 3976,22931 3975,22938 3974,22944 3974,22951 3974,23635 3974,23635 3974,23642 3975,23648 3976,23655 3978,23662 3979,23668 3982,23674 3985,23681 3988,23686 3991,23692 3995,23698 4000,23703 4004,23708 4009,23712 4014,23717 4020,23721 4026,23724 4031,23727 4038,23730 4044,23733 4050,23734 4057,23736 4064,23737 4070,23738 4077,23738 4489,23738 4489,23738 4496,23738 4502,23737 4509,23736 4516,23734 4522,23733 4528,23730 4535,23727 4541,23724 4546,23721 4552,23717 4557,23712 4562,23708 4566,23703 4571,23698 4575,23692 4578,23686 4581,23681 4584,23674 4587,23668 4588,23662 4590,23655 4591,23648 4592,23642 4592,23635 4592,22950 4592,22951 4592,22951 4592,22944 4591,22938 4590,22931 4588,22924 4587,22918 4584,22912 4581,22905 4578,22899 4575,22894 4571,22888 4566,22883 4562,22878 4557,22874 4552,22869 4546,22865 4541,22862 4535,22859 4528,22856 4522,22853 4516,22852 4509,22850 4502,22849 4496,22848 4489,22848 4077,22848 Z"/>
    </g>
    <path fill="none" stroke="rgb(34,75,18)" d="M 4077,22848 L 4077,22848 C 4059,22848 4041,22853 4026,22862 4010,22871 3997,22884 3988,22899 3979,22915 3974,22933 3974,22951 L 3974,23635 3974,23635 C 3974,23653 3979,23671 3988,23686 3997,23702 4010,23715 4026,23724 4041,23733 4059,23738 4077,23738 L 4489,23738 4489,23738 C 4507,23738 4525,23733 4541,23724 4556,23715 4569,23702 4578,23686 4587,23671 4592,23653 4592,23635 L 4592,22950 4592,22951 4592,22951 C 4592,22933 4587,22915 4578,22899 4569,22884 4556,22871 4541,22862 4525,22853 4507,22848 4489,22848 L 4077,22848 Z"/>
   </g>
  </g>
 </g>
</svg>