<?xml version="1.0" encoding="UTF-8"?>
<!DOCTYPE svg PUBLIC "-//W3C//DTD SVG 1.1//EN" "http://www.w3.org/Graphics/SVG/1.1/DTD/svg11.dtd">
<svg version="1.2" width="12.38mm" height="4.82mm" viewBox="8048 26578 1238 482" preserveAspectRatio="xMidYMid" fill-rule="evenodd" stroke-width="28.222" stroke-linejoin="round" xmlns="http://www.w3.org/2000/svg" xmlns:ooo="http://xml.openoffice.org/svg/export" xmlns:xlink="http://www.w3.org/1999/xlink" xmlns:presentation="http://sun.com/xmlns/staroffice/presentation" xmlns:smil="http://www.w3.org/2001/SMIL20/" xmlns:anim="urn:oasis:names:tc:opendocument:xmlns:animation:1.0" xmlns:svg="urn:oasis:names:tc:opendocument:xmlns:svg-compatible:1.0" xml:space="preserve">
 <defs class="EmbeddedBulletChars">
  <g id="bullet-char-template-57356" transform="scale(0.00048828125,-0.00048828125)">
   <path d="M 580,1141 L 1163,571 580,0 -4,571 580,1141 Z"/>
  </g>
  <g id="bullet-char-template-57354" transform="scale(0.00048828125,-0.00048828125)">
   <path d="M 8,1128 L 1137,1128 1137,0 8,0 8,1128 Z"/>
  </g>
  <g id="bullet-char-template-10146" transform="scale(0.00048828125,-0.00048828125)">
   <path d="M 174,0 L 602,739 174,1481 1456,739 174,0 Z M 1358,739 L 309,1346 659,739 1358,739 Z"/>
  </g>
  <g id="bullet-char-template-10132" transform="scale(0.00048828125,-0.00048828125)">
   <path d="M 2015,739 L 1276,0 717,0 1260,543 174,543 174,936 1260,936 717,1481 1274,1481 2015,739 Z"/>
  </g>
  <g id="bullet-char-template-10007" transform="scale(0.00048828125,-0.00048828125)">
   <path d="M 0,-2 C -7,14 -16,27 -25,37 L 356,567 C 262,823 215,952 215,954 215,979 228,992 255,992 264,992 276,990 289,987 310,991 331,999 354,1012 L 381,999 492,748 772,1049 836,1024 860,1049 C 881,1039 901,1025 922,1006 886,937 835,863 770,784 769,783 710,716 594,584 L 774,223 C 774,196 753,168 711,139 L 727,119 C 717,90 699,76 672,76 641,76 570,178 457,381 L 164,-76 C 142,-110 111,-127 72,-127 30,-127 9,-110 8,-76 1,-67 -2,-52 -2,-32 -2,-23 -1,-13 0,-2 Z"/>
  </g>
  <g id="bullet-char-template-10004" transform="scale(0.00048828125,-0.00048828125)">
   <path d="M 285,-33 C 182,-33 111,30 74,156 52,228 41,333 41,471 41,549 55,616 82,672 116,743 169,778 240,778 293,778 328,747 346,684 L 369,508 C 377,444 397,411 428,410 L 1163,1116 C 1174,1127 1196,1133 1229,1133 1271,1133 1292,1118 1292,1087 L 1292,965 C 1292,929 1282,901 1262,881 L 442,47 C 390,-6 338,-33 285,-33 Z"/>
  </g>
  <g id="bullet-char-template-9679" transform="scale(0.00048828125,-0.00048828125)">
   <path d="M 813,0 C 632,0 489,54 383,161 276,268 223,411 223,592 223,773 276,916 383,1023 489,1130 632,1184 813,1184 992,1184 1136,1130 1245,1023 1353,916 1407,772 1407,592 1407,412 1353,268 1245,161 1136,54 992,0 813,0 Z"/>
  </g>
  <g id="bullet-char-template-8226" transform="scale(0.00048828125,-0.00048828125)">
   <path d="M 346,457 C 273,457 209,483 155,535 101,586 74,649 74,723 74,796 101,859 155,911 209,963 273,989 346,989 419,989 480,963 531,910 582,859 608,796 608,723 608,648 583,586 532,535 482,483 420,457 346,457 Z"/>
  </g>
  <g id="bullet-char-template-8211" transform="scale(0.00048828125,-0.00048828125)">
   <path d="M -4,459 L 1135,459 1135,606 -4,606 -4,459 Z"/>
  </g>
  <g id="bullet-char-template-61548" transform="scale(0.00048828125,-0.00048828125)">
   <path d="M 173,740 C 173,903 231,1043 346,1159 462,1274 601,1332 765,1332 928,1332 1067,1274 1183,1159 1299,1043 1357,903 1357,740 1357,577 1299,437 1183,322 1067,206 928,148 765,148 601,148 462,206 346,322 231,437 173,577 173,740 Z"/>
  </g>
 </defs>
 <g class="Page">
  <g class="Group">
   <g class="com.sun.star.drawing.LineShape">
    <g id="id3">
     <rect class="BoundingBox" stroke="none" fill="none" x="8048" y="26800" width="1238" height="37"/>
     <path fill="none" stroke="rgb(128,128,128)" stroke-width="35" stroke-linejoin="round" d="M 8066,26818 L 9267,26818"/>
    </g>
   </g>
   <g class="com.sun.star.drawing.CustomShape">
    <g id="id4">
     <rect class="BoundingBox" stroke="none" fill="none" x="8160" y="26578" width="1014" height="482"/>
     <g>
      <defs>
       <linearGradient id="gradient1" x1="8666" y1="26578" x2="8666" y2="27059" gradientUnits="userSpaceOnUse">
        <stop offset="0" style="stop-color:rgb(255,166,166)"/>
        <stop offset="0.5" style="stop-color:rgb(247,209,213)"/>
        <stop offset="1" style="stop-color:rgb(255,166,166)"/>
       </linearGradient>
      </defs>
      <path style="fill:url(#gradient1)" d="M 8374,26578 L 8374,26578 8360,26578 8346,26580 8332,26582 8319,26585 8305,26589 8292,26594 8279,26600 8267,26607 8255,26614 8244,26622 8233,26631 8223,26641 8213,26651 8204,26662 8196,26673 8189,26685 8182,26697 8176,26710 8171,26723 8167,26737 8164,26750 8162,26764 8160,26778 8160,26792 8160,26845 8160,26845 8160,26859 8162,26873 8164,26887 8167,26900 8171,26914 8176,26927 8182,26940 8189,26952 8196,26964 8204,26975 8213,26986 8223,26996 8233,27006 8244,27015 8255,27023 8267,27030 8279,27037 8292,27043 8305,27048 8319,27052 8332,27055 8346,27057 8360,27059 8374,27059 8959,27059 8959,27059 8973,27059 8987,27057 9001,27055 9014,27052 9028,27048 9041,27043 9054,27037 9066,27030 9078,27023 9089,27015 9100,27006 9110,26996 9120,26986 9129,26975 9137,26964 9144,26952 9151,26940 9157,26927 9162,26914 9166,26900 9169,26887 9171,26873 9173,26859 9173,26845 9173,26791 9173,26792 9173,26792 9173,26778 9171,26764 9169,26750 9166,26737 9162,26723 9157,26710 9151,26697 9144,26685 9137,26673 9129,26662 9120,26651 9110,26641 9100,26631 9089,26622 9078,26614 9066,26607 9054,26600 9041,26594 9028,26589 9014,26585 9001,26582 8987,26580 8973,26578 8959,26578 8374,26578 Z"/>
     </g>
    </g>
   </g>
   <g class="com.sun.star.drawing.ClosedBezierShape">
    <g id="id5">
     <rect class="BoundingBox" stroke="none" fill="none" x="8149" y="26580" width="189" height="480"/>
     <g>
      <defs>
       <linearGradient id="gradient2" x1="8242" y1="26581" x2="8242" y2="27058" gradientUnits="userSpaceOnUse">
        <stop offset="0" style="stop-color:rgb(255,84,41)"/>
        <stop offset="0.5" style="stop-color:rgb(255,166,166)"/>
        <stop offset="1" style="stop-color:rgb(255,84,41)"/>
       </linearGradient>
      </defs>
      <path style="fill:url(#gradient2)" d="M 8336,27058 L 8326,27057 8315,27055 8305,27052 8295,27049 8285,27045 8275,27041 8265,27036 8256,27031 8244,27024 8233,27016 8222,27007 8212,26997 8202,26987 8193,26976 8185,26965 8178,26953 8171,26941 8165,26928 8160,26915 8156,26901 8153,26888 8151,26874 8149,26860 8149,26846 8149,26793 8149,26779 8151,26765 8153,26751 8156,26738 8160,26724 8165,26711 8171,26698 8178,26686 8185,26674 8193,26663 8202,26652 8212,26642 8222,26632 8233,26623 8244,26615 8256,26608 8265,26603 8275,26598 8285,26594 8295,26590 8305,26587 8315,26584 8326,26582 8336,26581 8336,27058 Z"/>
     </g>
    </g>
   </g>
  </g>
 </g>
</svg>