<?xml version="1.0" encoding="UTF-8"?>
<!DOCTYPE svg PUBLIC "-//W3C//DTD SVG 1.1//EN" "http://www.w3.org/Graphics/SVG/1.1/DTD/svg11.dtd">
<svg version="1.2" width="12.38mm" height="4.82mm" viewBox="8047 25577 1238 482" preserveAspectRatio="xMidYMid" fill-rule="evenodd" stroke-width="28.222" stroke-linejoin="round" xmlns="http://www.w3.org/2000/svg" xmlns:ooo="http://xml.openoffice.org/svg/export" xmlns:xlink="http://www.w3.org/1999/xlink" xmlns:presentation="http://sun.com/xmlns/staroffice/presentation" xmlns:smil="http://www.w3.org/2001/SMIL20/" xmlns:anim="urn:oasis:names:tc:opendocument:xmlns:animation:1.0" xmlns:svg="urn:oasis:names:tc:opendocument:xmlns:svg-compatible:1.0" xml:space="preserve">
 <defs class="EmbeddedBulletChars">
  <g id="bullet-char-template-57356" transform="scale(0.00048828125,-0.00048828125)">
   <path d="M 580,1141 L 1163,571 580,0 -4,571 580,1141 Z"/>
  </g>
  <g id="bullet-char-template-57354" transform="scale(0.00048828125,-0.00048828125)">
   <path d="M 8,1128 L 1137,1128 1137,0 8,0 8,1128 Z"/>
  </g>
  <g id="bullet-char-template-10146" transform="scale(0.00048828125,-0.00048828125)">
   <path d="M 174,0 L 602,739 174,1481 1456,739 174,0 Z M 1358,739 L 309,1346 659,739 1358,739 Z"/>
  </g>
  <g id="bullet-char-template-10132" transform="scale(0.00048828125,-0.00048828125)">
   <path d="M 2015,739 L 1276,0 717,0 1260,543 174,543 174,936 1260,936 717,1481 1274,1481 2015,739 Z"/>
  </g>
  <g id="bullet-char-template-10007" transform="scale(0.00048828125,-0.00048828125)">
   <path d="M 0,-2 C -7,14 -16,27 -25,37 L 356,567 C 262,823 215,952 215,954 215,979 228,992 255,992 264,992 276,990 289,987 310,991 331,999 354,1012 L 381,999 492,748 772,1049 836,1024 860,1049 C 881,1039 901,1025 922,1006 886,937 835,863 770,784 769,783 710,716 594,584 L 774,223 C 774,196 753,168 711,139 L 727,119 C 717,90 699,76 672,76 641,76 570,178 457,381 L 164,-76 C 142,-110 111,-127 72,-127 30,-127 9,-110 8,-76 1,-67 -2,-52 -2,-32 -2,-23 -1,-13 0,-2 Z"/>
  </g>
  <g id="bullet-char-template-10004" transform="scale(0.00048828125,-0.00048828125)">
   <path d="M 285,-33 C 182,-33 111,30 74,156 52,228 41,333 41,471 41,549 55,616 82,672 116,743 169,778 240,778 293,778 328,747 346,684 L 369,508 C 377,444 397,411 428,410 L 1163,1116 C 1174,1127 1196,1133 1229,1133 1271,1133 1292,1118 1292,1087 L 1292,965 C 1292,929 1282,901 1262,881 L 442,47 C 390,-6 338,-33 285,-33 Z"/>
  </g>
  <g id="bullet-char-template-9679" transform="scale(0.00048828125,-0.00048828125)">
   <path d="M 813,0 C 632,0 489,54 383,161 276,268 223,411 223,592 223,773 276,916 383,1023 489,1130 632,1184 813,1184 992,1184 1136,1130 1245,1023 1353,916 1407,772 1407,592 1407,412 1353,268 1245,161 1136,54 992,0 813,0 Z"/>
  </g>
  <g id="bullet-char-template-8226" transform="scale(0.00048828125,-0.00048828125)">
   <path d="M 346,457 C 273,457 209,483 155,535 101,586 74,649 74,723 74,796 101,859 155,911 209,963 273,989 346,989 419,989 480,963 531,910 582,859 608,796 608,723 608,648 583,586 532,535 482,483 420,457 346,457 Z"/>
  </g>
  <g id="bullet-char-template-8211" transform="scale(0.00048828125,-0.00048828125)">
   <path d="M -4,459 L 1135,459 1135,606 -4,606 -4,459 Z"/>
  </g>
  <g id="bullet-char-template-61548" transform="scale(0.00048828125,-0.00048828125)">
   <path d="M 173,740 C 173,903 231,1043 346,1159 462,1274 601,1332 765,1332 928,1332 1067,1274 1183,1159 1299,1043 1357,903 1357,740 1357,577 1299,437 1183,322 1067,206 928,148 765,148 601,148 462,206 346,322 231,437 173,577 173,740 Z"/>
  </g>
 </defs>
 <g class="Page">
  <g class="Group">
   <g class="com.sun.star.drawing.LineShape">
    <g id="id3">
     <rect class="BoundingBox" stroke="none" fill="none" x="8047" y="25799" width="1238" height="37"/>
     <path fill="none" stroke="rgb(128,128,128)" stroke-width="35" stroke-linejoin="round" d="M 8065,25817 L 9266,25817"/>
    </g>
   </g>
   <g class="com.sun.star.drawing.CustomShape">
    <g id="id4">
     <rect class="BoundingBox" stroke="none" fill="none" x="8159" y="25577" width="1014" height="482"/>
     <g>
      <defs>
       <linearGradient id="gradient1" x1="8665" y1="25577" x2="8665" y2="26058" gradientUnits="userSpaceOnUse">
        <stop offset="0" style="stop-color:rgb(114,159,207)"/>
        <stop offset="0.5" style="stop-color:rgb(180,199,220)"/>
        <stop offset="1" style="stop-color:rgb(114,159,207)"/>
       </linearGradient>
      </defs>
      <path style="fill:url(#gradient1)" d="M 8373,25577 L 8373,25577 8359,25577 8345,25579 8331,25581 8318,25584 8304,25588 8291,25593 8278,25599 8266,25606 8254,25613 8243,25621 8232,25630 8222,25640 8212,25650 8203,25661 8195,25672 8188,25684 8181,25696 8175,25709 8170,25722 8166,25736 8163,25749 8161,25763 8159,25777 8159,25791 8159,25844 8159,25844 8159,25858 8161,25872 8163,25886 8166,25899 8170,25913 8175,25926 8181,25939 8188,25951 8195,25963 8203,25974 8212,25985 8222,25995 8232,26005 8243,26014 8254,26022 8266,26029 8278,26036 8291,26042 8304,26047 8318,26051 8331,26054 8345,26056 8359,26058 8373,26058 8958,26058 8958,26058 8972,26058 8986,26056 9000,26054 9013,26051 9027,26047 9040,26042 9053,26036 9065,26029 9077,26022 9088,26014 9099,26005 9109,25995 9119,25985 9128,25974 9136,25963 9143,25951 9150,25939 9156,25926 9161,25913 9165,25899 9168,25886 9170,25872 9172,25858 9172,25844 9172,25790 9172,25791 9172,25791 9172,25777 9170,25763 9168,25749 9165,25736 9161,25722 9156,25709 9150,25696 9143,25684 9136,25672 9128,25661 9119,25650 9109,25640 9099,25630 9088,25621 9077,25613 9065,25606 9053,25599 9040,25593 9027,25588 9013,25584 9000,25581 8986,25579 8972,25577 8958,25577 8373,25577 Z"/>
     </g>
    </g>
   </g>
   <g class="com.sun.star.drawing.ClosedBezierShape">
    <g id="id5">
     <rect class="BoundingBox" stroke="none" fill="none" x="8148" y="25579" width="188" height="480"/>
     <g>
      <defs>
       <linearGradient id="gradient2" x1="8241" y1="25580" x2="8241" y2="26057" gradientUnits="userSpaceOnUse">
        <stop offset="0" style="stop-color:rgb(53,82,105)"/>
        <stop offset="0.5" style="stop-color:rgb(52,101,164)"/>
        <stop offset="1" style="stop-color:rgb(53,82,105)"/>
       </linearGradient>
      </defs>
      <path style="fill:url(#gradient2)" d="M 8335,26057 L 8325,26056 8314,26054 8304,26051 8294,26048 8284,26044 8274,26040 8264,26035 8255,26030 8243,26023 8232,26015 8221,26006 8211,25996 8201,25986 8192,25975 8184,25964 8177,25952 8170,25940 8164,25927 8159,25914 8155,25900 8152,25887 8150,25873 8148,25859 8148,25845 8148,25792 8148,25778 8150,25764 8152,25750 8155,25737 8159,25723 8164,25710 8170,25697 8177,25685 8184,25673 8192,25662 8201,25651 8211,25641 8221,25631 8232,25622 8243,25614 8255,25607 8264,25602 8274,25597 8284,25593 8294,25589 8304,25586 8314,25583 8325,25581 8335,25580 8335,26057 Z"/>
     </g>
    </g>
   </g>
  </g>
 </g>
</svg>