<?xml version="1.0" encoding="UTF-8"?>
<!DOCTYPE svg PUBLIC "-//W3C//DTD SVG 1.1//EN" "http://www.w3.org/Graphics/SVG/1.1/DTD/svg11.dtd">
<svg version="1.2" width="93.8mm" height="38.79mm" viewBox="7519 5820 9380 3879" preserveAspectRatio="xMidYMid" fill-rule="evenodd" stroke-width="28.222" stroke-linejoin="round" xmlns="http://www.w3.org/2000/svg" xmlns:ooo="http://xml.openoffice.org/svg/export" xmlns:xlink="http://www.w3.org/1999/xlink" xmlns:presentation="http://sun.com/xmlns/staroffice/presentation" xmlns:smil="http://www.w3.org/2001/SMIL20/" xmlns:anim="urn:oasis:names:tc:opendocument:xmlns:animation:1.0" xmlns:svg="urn:oasis:names:tc:opendocument:xmlns:svg-compatible:1.0" xml:space="preserve">
 <defs class="EmbeddedBulletChars">
  <g id="bullet-char-template-57356" transform="scale(0.00048828125,-0.00048828125)">
   <path d="M 580,1141 L 1163,571 580,0 -4,571 580,1141 Z"/>
  </g>
  <g id="bullet-char-template-57354" transform="scale(0.00048828125,-0.00048828125)">
   <path d="M 8,1128 L 1137,1128 1137,0 8,0 8,1128 Z"/>
  </g>
  <g id="bullet-char-template-10146" transform="scale(0.00048828125,-0.00048828125)">
   <path d="M 174,0 L 602,739 174,1481 1456,739 174,0 Z M 1358,739 L 309,1346 659,739 1358,739 Z"/>
  </g>
  <g id="bullet-char-template-10132" transform="scale(0.00048828125,-0.00048828125)">
   <path d="M 2015,739 L 1276,0 717,0 1260,543 174,543 174,936 1260,936 717,1481 1274,1481 2015,739 Z"/>
  </g>
  <g id="bullet-char-template-10007" transform="scale(0.00048828125,-0.00048828125)">
   <path d="M 0,-2 C -7,14 -16,27 -25,37 L 356,567 C 262,823 215,952 215,954 215,979 228,992 255,992 264,992 276,990 289,987 310,991 331,999 354,1012 L 381,999 492,748 772,1049 836,1024 860,1049 C 881,1039 901,1025 922,1006 886,937 835,863 770,784 769,783 710,716 594,584 L 774,223 C 774,196 753,168 711,139 L 727,119 C 717,90 699,76 672,76 641,76 570,178 457,381 L 164,-76 C 142,-110 111,-127 72,-127 30,-127 9,-110 8,-76 1,-67 -2,-52 -2,-32 -2,-23 -1,-13 0,-2 Z"/>
  </g>
  <g id="bullet-char-template-10004" transform="scale(0.00048828125,-0.00048828125)">
   <path d="M 285,-33 C 182,-33 111,30 74,156 52,228 41,333 41,471 41,549 55,616 82,672 116,743 169,778 240,778 293,778 328,747 346,684 L 369,508 C 377,444 397,411 428,410 L 1163,1116 C 1174,1127 1196,1133 1229,1133 1271,1133 1292,1118 1292,1087 L 1292,965 C 1292,929 1282,901 1262,881 L 442,47 C 390,-6 338,-33 285,-33 Z"/>
  </g>
  <g id="bullet-char-template-9679" transform="scale(0.00048828125,-0.00048828125)">
   <path d="M 813,0 C 632,0 489,54 383,161 276,268 223,411 223,592 223,773 276,916 383,1023 489,1130 632,1184 813,1184 992,1184 1136,1130 1245,1023 1353,916 1407,772 1407,592 1407,412 1353,268 1245,161 1136,54 992,0 813,0 Z"/>
  </g>
  <g id="bullet-char-template-8226" transform="scale(0.00048828125,-0.00048828125)">
   <path d="M 346,457 C 273,457 209,483 155,535 101,586 74,649 74,723 74,796 101,859 155,911 209,963 273,989 346,989 419,989 480,963 531,910 582,859 608,796 608,723 608,648 583,586 532,535 482,483 420,457 346,457 Z"/>
  </g>
  <g id="bullet-char-template-8211" transform="scale(0.00048828125,-0.00048828125)">
   <path d="M -4,459 L 1135,459 1135,606 -4,606 -4,459 Z"/>
  </g>
  <g id="bullet-char-template-61548" transform="scale(0.00048828125,-0.00048828125)">
   <path d="M 173,740 C 173,903 231,1043 346,1159 462,1274 601,1332 765,1332 928,1332 1067,1274 1183,1159 1299,1043 1357,903 1357,740 1357,577 1299,437 1183,322 1067,206 928,148 765,148 601,148 462,206 346,322 231,437 173,577 173,740 Z"/>
  </g>
 </defs>
 <g class="Page">
  <g class="Group">
   <g class="Group">
    <g class="com.sun.star.drawing.LineShape">
     <g id="id3">
      <rect class="BoundingBox" stroke="none" fill="none" x="16685" y="9375" width="214" height="324"/>
      <path fill="none" stroke="rgb(141,40,30)" stroke-width="53" stroke-linejoin="round" d="M 16712,9402 L 16871,9671"/>
     </g>
    </g>
    <g class="com.sun.star.drawing.LineShape">
     <g id="id4">
      <rect class="BoundingBox" stroke="none" fill="none" x="16531" y="9371" width="205" height="319"/>
      <path fill="none" stroke="rgb(178,178,178)" stroke-width="53" stroke-linejoin="round" d="M 16708,9398 L 16558,9662"/>
     </g>
    </g>
   </g>
   <g class="com.sun.star.drawing.OpenBezierShape">
    <g id="id5">
     <rect class="BoundingBox" stroke="none" fill="none" x="15527" y="8528" width="1295" height="1069"/>
     <path fill="none" stroke="rgb(102,102,102)" stroke-width="212" stroke-linejoin="round" d="M 15633,8636 C 16726,8608 16691,8946 16714,9490"/>
    </g>
   </g>
  </g>
  <g class="com.sun.star.drawing.CustomShape">
   <g id="id6">
    <rect class="BoundingBox" stroke="none" fill="none" x="7526" y="5820" width="8418" height="1802"/>
    <path fill="rgb(17,17,17)" stroke="none" d="M 8427,5820 L 8427,5820 C 8269,5820 8114,5862 7977,5941 7840,6020 7727,6133 7648,6270 7569,6407 7527,6562 7527,6720 L 7527,6720 7527,6720 C 7527,6878 7569,7033 7648,7170 7727,7307 7840,7420 7977,7499 8114,7578 8269,7620 8427,7620 L 15042,7620 15042,7620 C 15200,7620 15355,7578 15492,7499 15629,7420 15742,7307 15821,7170 15900,7033 15942,6878 15942,6720 L 15942,6720 15942,6720 15942,6720 C 15942,6562 15900,6407 15821,6270 15742,6133 15629,6020 15492,5941 15355,5862 15200,5820 15042,5820 L 8427,5820 Z"/>
   </g>
  </g>
  <g class="com.sun.star.drawing.CustomShape">
   <g id="id7">
    <rect class="BoundingBox" stroke="none" fill="none" x="7519" y="7612" width="8434" height="1819"/>
    <path fill="rgb(255,255,255)" stroke="none" d="M 8428,7621 L 8428,7621 C 8270,7621 8115,7663 7978,7742 7841,7821 7728,7934 7649,8071 7570,8208 7528,8363 7528,8521 L 7528,8521 7528,8521 C 7528,8679 7570,8834 7649,8971 7728,9108 7841,9221 7978,9300 8115,9379 8270,9421 8428,9421 L 15043,9421 15043,9421 C 15201,9421 15356,9379 15493,9300 15630,9221 15743,9108 15822,8971 15901,8834 15943,8679 15943,8521 L 15943,8521 15943,8521 15943,8521 C 15943,8363 15901,8208 15822,8071 15743,7934 15630,7821 15493,7742 15356,7663 15201,7621 15043,7621 L 8428,7621 Z"/>
    <path fill="none" stroke="rgb(0,0,0)" stroke-width="18" stroke-linejoin="round" d="M 8428,7621 L 8428,7621 C 8270,7621 8115,7663 7978,7742 7841,7821 7728,7934 7649,8071 7570,8208 7528,8363 7528,8521 L 7528,8521 7528,8521 C 7528,8679 7570,8834 7649,8971 7728,9108 7841,9221 7978,9300 8115,9379 8270,9421 8428,9421 L 15043,9421 15043,9421 C 15201,9421 15356,9379 15493,9300 15630,9221 15743,9108 15822,8971 15901,8834 15943,8679 15943,8521 L 15943,8521 15943,8521 15943,8521 C 15943,8363 15901,8208 15822,8071 15743,7934 15630,7821 15493,7742 15356,7663 15201,7621 15043,7621 L 8428,7621 Z"/>
   </g>
  </g>
  <g class="Group">
   <g class="com.sun.star.drawing.CustomShape">
    <g id="id8">
     <rect class="BoundingBox" stroke="none" fill="none" x="8217" y="8190" width="664" height="664"/>
     <g>
      <defs>
       <linearGradient id="gradient1" x1="8322" y1="8129" x2="8775" y2="8914" gradientUnits="userSpaceOnUse">
        <stop offset="0" style="stop-color:rgb(178,178,178)"/>
        <stop offset="1" style="stop-color:rgb(102,102,102)"/>
       </linearGradient>
      </defs>
      <path style="fill:url(#gradient1)" d="M 8880,8522 L 8879,8543 8877,8565 8874,8586 8869,8607 8862,8628 8855,8648 8846,8668 8836,8687 8824,8706 8811,8723 8798,8740 8783,8756 8767,8771 8750,8784 8733,8797 8714,8809 8695,8819 8675,8828 8655,8835 8634,8842 8613,8847 8592,8850 8570,8852 8549,8853 8527,8852 8505,8850 8484,8847 8463,8842 8442,8835 8422,8828 8402,8819 8383,8809 8364,8797 8347,8784 8330,8771 8314,8756 8299,8740 8286,8723 8273,8706 8261,8687 8251,8668 8242,8648 8235,8628 8228,8607 8223,8586 8220,8565 8218,8543 8217,8522 8218,8500 8220,8478 8223,8457 8228,8436 8235,8415 8242,8395 8251,8375 8261,8356 8273,8337 8286,8320 8299,8303 8314,8287 8330,8272 8347,8259 8364,8246 8383,8234 8402,8224 8422,8215 8442,8208 8463,8201 8484,8196 8505,8193 8527,8191 8549,8190 8570,8191 8592,8193 8613,8196 8634,8201 8655,8208 8675,8215 8695,8224 8714,8234 8733,8246 8750,8259 8767,8272 8783,8287 8798,8303 8811,8320 8824,8337 8836,8356 8846,8375 8855,8395 8862,8415 8869,8436 8874,8457 8877,8478 8879,8500 8880,8522 Z"/>
     </g>
    </g>
   </g>
   <g class="com.sun.star.drawing.CustomShape">
    <g id="id9">
     <rect class="BoundingBox" stroke="none" fill="none" x="9492" y="8190" width="664" height="664"/>
     <g>
      <defs>
       <linearGradient id="gradient2" x1="9597" y1="8129" x2="10050" y2="8914" gradientUnits="userSpaceOnUse">
        <stop offset="0" style="stop-color:rgb(178,178,178)"/>
        <stop offset="1" style="stop-color:rgb(102,102,102)"/>
       </linearGradient>
      </defs>
      <path style="fill:url(#gradient2)" d="M 10155,8522 L 10154,8543 10152,8565 10149,8586 10144,8607 10137,8628 10130,8648 10121,8668 10111,8687 10099,8706 10086,8723 10073,8740 10058,8756 10042,8771 10025,8784 10008,8797 9989,8809 9970,8819 9950,8828 9930,8835 9909,8842 9888,8847 9867,8850 9845,8852 9824,8853 9802,8852 9780,8850 9759,8847 9738,8842 9717,8835 9697,8828 9677,8819 9658,8809 9639,8797 9622,8784 9605,8771 9589,8756 9574,8740 9561,8723 9548,8706 9536,8687 9526,8668 9517,8648 9510,8628 9503,8607 9498,8586 9495,8565 9493,8543 9492,8522 9493,8500 9495,8478 9498,8457 9503,8436 9510,8415 9517,8395 9526,8375 9536,8356 9548,8337 9561,8320 9574,8303 9589,8287 9605,8272 9622,8259 9639,8246 9658,8234 9677,8224 9697,8215 9717,8208 9738,8201 9759,8196 9780,8193 9802,8191 9824,8190 9845,8191 9867,8193 9888,8196 9909,8201 9930,8208 9950,8215 9970,8224 9989,8234 10008,8246 10025,8259 10042,8272 10058,8287 10073,8303 10086,8320 10099,8337 10111,8356 10121,8375 10130,8395 10137,8415 10144,8436 10149,8457 10152,8478 10154,8500 10155,8522 Z"/>
     </g>
    </g>
   </g>
   <g class="com.sun.star.drawing.CustomShape">
    <g id="id10">
     <rect class="BoundingBox" stroke="none" fill="none" x="10767" y="8190" width="664" height="664"/>
     <g>
      <defs>
       <linearGradient id="gradient3" x1="10872" y1="8129" x2="11325" y2="8914" gradientUnits="userSpaceOnUse">
        <stop offset="0" style="stop-color:rgb(178,178,178)"/>
        <stop offset="1" style="stop-color:rgb(102,102,102)"/>
       </linearGradient>
      </defs>
      <path style="fill:url(#gradient3)" d="M 11430,8522 L 11429,8543 11427,8565 11424,8586 11419,8607 11412,8628 11405,8648 11396,8668 11386,8687 11374,8706 11361,8723 11348,8740 11333,8756 11317,8771 11300,8784 11283,8797 11264,8809 11245,8819 11225,8828 11205,8835 11184,8842 11163,8847 11142,8850 11120,8852 11099,8853 11077,8852 11055,8850 11034,8847 11013,8842 10992,8835 10972,8828 10952,8819 10933,8809 10914,8797 10897,8784 10880,8771 10864,8756 10849,8740 10836,8723 10823,8706 10811,8687 10801,8668 10792,8648 10785,8628 10778,8607 10773,8586 10770,8565 10768,8543 10767,8522 10768,8500 10770,8478 10773,8457 10778,8436 10785,8415 10792,8395 10801,8375 10811,8356 10823,8337 10836,8320 10849,8303 10864,8287 10880,8272 10897,8259 10914,8246 10933,8234 10952,8224 10972,8215 10992,8208 11013,8201 11034,8196 11055,8193 11077,8191 11099,8190 11120,8191 11142,8193 11163,8196 11184,8201 11205,8208 11225,8215 11245,8224 11264,8234 11283,8246 11300,8259 11317,8272 11333,8287 11348,8303 11361,8320 11374,8337 11386,8356 11396,8375 11405,8395 11412,8415 11419,8436 11424,8457 11427,8478 11429,8500 11430,8522 Z"/>
     </g>
    </g>
   </g>
   <g class="com.sun.star.drawing.CustomShape">
    <g id="id11">
     <rect class="BoundingBox" stroke="none" fill="none" x="12042" y="8190" width="664" height="664"/>
     <g>
      <defs>
       <linearGradient id="gradient4" x1="12147" y1="8129" x2="12600" y2="8914" gradientUnits="userSpaceOnUse">
        <stop offset="0" style="stop-color:rgb(178,178,178)"/>
        <stop offset="1" style="stop-color:rgb(102,102,102)"/>
       </linearGradient>
      </defs>
      <path style="fill:url(#gradient4)" d="M 12705,8522 L 12704,8543 12702,8565 12699,8586 12694,8607 12687,8628 12680,8648 12671,8668 12661,8687 12649,8706 12636,8723 12623,8740 12608,8756 12592,8771 12575,8784 12558,8797 12539,8809 12520,8819 12500,8828 12480,8835 12459,8842 12438,8847 12417,8850 12395,8852 12374,8853 12352,8852 12330,8850 12309,8847 12288,8842 12267,8835 12247,8828 12227,8819 12208,8809 12189,8797 12172,8784 12155,8771 12139,8756 12124,8740 12111,8723 12098,8706 12086,8687 12076,8668 12067,8648 12060,8628 12053,8607 12048,8586 12045,8565 12043,8543 12042,8522 12043,8500 12045,8478 12048,8457 12053,8436 12060,8415 12067,8395 12076,8375 12086,8356 12098,8337 12111,8320 12124,8303 12139,8287 12155,8272 12172,8259 12189,8246 12208,8234 12227,8224 12247,8215 12267,8208 12288,8201 12309,8196 12330,8193 12352,8191 12374,8190 12395,8191 12417,8193 12438,8196 12459,8201 12480,8208 12500,8215 12520,8224 12539,8234 12558,8246 12575,8259 12592,8272 12608,8287 12623,8303 12636,8320 12649,8337 12661,8356 12671,8375 12680,8395 12687,8415 12694,8436 12699,8457 12702,8478 12704,8500 12705,8522 Z"/>
     </g>
    </g>
   </g>
   <g class="com.sun.star.drawing.CustomShape">
    <g id="id12">
     <rect class="BoundingBox" stroke="none" fill="none" x="13317" y="8190" width="664" height="664"/>
     <g>
      <defs>
       <linearGradient id="gradient5" x1="13422" y1="8129" x2="13875" y2="8914" gradientUnits="userSpaceOnUse">
        <stop offset="0" style="stop-color:rgb(178,178,178)"/>
        <stop offset="1" style="stop-color:rgb(102,102,102)"/>
       </linearGradient>
      </defs>
      <path style="fill:url(#gradient5)" d="M 13980,8522 L 13979,8543 13977,8565 13974,8586 13969,8607 13962,8628 13955,8648 13946,8668 13936,8687 13924,8706 13911,8723 13898,8740 13883,8756 13867,8771 13850,8784 13833,8797 13814,8809 13795,8819 13775,8828 13755,8835 13734,8842 13713,8847 13692,8850 13670,8852 13648,8853 13627,8852 13605,8850 13584,8847 13563,8842 13542,8835 13522,8828 13502,8819 13483,8809 13464,8797 13447,8784 13430,8771 13414,8756 13399,8740 13386,8723 13373,8706 13361,8687 13351,8668 13342,8648 13335,8628 13328,8607 13323,8586 13320,8565 13318,8543 13317,8522 13318,8500 13320,8478 13323,8457 13328,8436 13335,8415 13342,8395 13351,8375 13361,8356 13373,8337 13386,8320 13399,8303 13414,8287 13430,8272 13447,8259 13464,8246 13483,8234 13502,8224 13522,8215 13542,8208 13563,8201 13584,8196 13605,8193 13627,8191 13648,8190 13670,8191 13692,8193 13713,8196 13734,8201 13755,8208 13775,8215 13795,8224 13814,8234 13833,8246 13850,8259 13867,8272 13883,8287 13898,8303 13911,8320 13924,8337 13936,8356 13946,8375 13955,8395 13962,8415 13969,8436 13974,8457 13977,8478 13979,8500 13980,8522 Z"/>
     </g>
    </g>
   </g>
   <g class="com.sun.star.drawing.CustomShape">
    <g id="id13">
     <rect class="BoundingBox" stroke="none" fill="none" x="14591" y="8190" width="665" height="664"/>
     <g>
      <defs>
       <linearGradient id="gradient6" x1="14697" y1="8129" x2="15150" y2="8914" gradientUnits="userSpaceOnUse">
        <stop offset="0" style="stop-color:rgb(178,178,178)"/>
        <stop offset="1" style="stop-color:rgb(102,102,102)"/>
       </linearGradient>
      </defs>
      <path style="fill:url(#gradient6)" d="M 15255,8522 L 15254,8543 15252,8565 15249,8586 15244,8607 15237,8628 15230,8648 15221,8668 15211,8687 15199,8706 15186,8723 15173,8740 15158,8756 15142,8771 15125,8784 15108,8797 15089,8809 15070,8819 15050,8828 15030,8835 15009,8842 14988,8847 14967,8850 14945,8852 14923,8853 14902,8852 14880,8850 14859,8847 14838,8842 14817,8835 14797,8828 14777,8819 14758,8809 14739,8797 14722,8784 14705,8771 14689,8756 14674,8740 14661,8723 14648,8706 14636,8687 14626,8668 14617,8648 14610,8628 14603,8607 14598,8586 14595,8565 14593,8543 14592,8522 14593,8500 14595,8478 14598,8457 14603,8436 14610,8415 14617,8395 14626,8375 14636,8356 14648,8337 14661,8320 14674,8303 14689,8287 14705,8272 14722,8259 14739,8246 14758,8234 14777,8224 14797,8215 14817,8208 14838,8201 14859,8196 14880,8193 14902,8191 14923,8190 14945,8191 14967,8193 14988,8196 15009,8201 15030,8208 15050,8215 15070,8224 15089,8234 15108,8246 15125,8259 15142,8272 15158,8287 15173,8303 15186,8320 15199,8337 15211,8356 15221,8375 15230,8395 15237,8415 15244,8436 15249,8457 15252,8478 15254,8500 15255,8522 Z"/>
     </g>
    </g>
   </g>
  </g>
  <g class="Group">
   <g class="com.sun.star.drawing.CustomShape">
    <g id="id14">
     <rect class="BoundingBox" stroke="none" fill="none" x="8216" y="6389" width="664" height="664"/>
     <g>
      <defs>
       <linearGradient id="gradient7" x1="8321" y1="6328" x2="8774" y2="7113" gradientUnits="userSpaceOnUse">
        <stop offset="0" style="stop-color:rgb(178,178,178)"/>
        <stop offset="1" style="stop-color:rgb(102,102,102)"/>
       </linearGradient>
      </defs>
      <path style="fill:url(#gradient7)" d="M 8879,6721 L 8878,6742 8876,6764 8873,6785 8868,6806 8861,6827 8854,6847 8845,6867 8835,6886 8823,6905 8810,6922 8797,6939 8782,6955 8766,6970 8749,6983 8732,6996 8713,7008 8694,7018 8674,7027 8654,7034 8633,7041 8612,7046 8591,7049 8569,7051 8548,7052 8526,7051 8504,7049 8483,7046 8462,7041 8441,7034 8421,7027 8401,7018 8382,7008 8363,6996 8346,6983 8329,6970 8313,6955 8298,6939 8285,6922 8272,6905 8260,6886 8250,6867 8241,6847 8234,6827 8227,6806 8222,6785 8219,6764 8217,6742 8216,6721 8217,6699 8219,6677 8222,6656 8227,6635 8234,6614 8241,6594 8250,6574 8260,6555 8272,6536 8285,6519 8298,6502 8313,6486 8329,6471 8346,6458 8363,6445 8382,6433 8401,6423 8421,6414 8441,6407 8462,6400 8483,6395 8504,6392 8526,6390 8548,6389 8569,6390 8591,6392 8612,6395 8633,6400 8654,6407 8674,6414 8694,6423 8713,6433 8732,6445 8749,6458 8766,6471 8782,6486 8797,6502 8810,6519 8823,6536 8835,6555 8845,6574 8854,6594 8861,6614 8868,6635 8873,6656 8876,6677 8878,6699 8879,6721 Z"/>
     </g>
    </g>
   </g>
   <g class="com.sun.star.drawing.CustomShape">
    <g id="id15">
     <rect class="BoundingBox" stroke="none" fill="none" x="9491" y="6389" width="664" height="664"/>
     <g>
      <defs>
       <linearGradient id="gradient8" x1="9596" y1="6328" x2="10049" y2="7113" gradientUnits="userSpaceOnUse">
        <stop offset="0" style="stop-color:rgb(178,178,178)"/>
        <stop offset="1" style="stop-color:rgb(102,102,102)"/>
       </linearGradient>
      </defs>
      <path style="fill:url(#gradient8)" d="M 10154,6721 L 10153,6742 10151,6764 10148,6785 10143,6806 10136,6827 10129,6847 10120,6867 10110,6886 10098,6905 10085,6922 10072,6939 10057,6955 10041,6970 10024,6983 10007,6996 9988,7008 9969,7018 9949,7027 9929,7034 9908,7041 9887,7046 9866,7049 9844,7051 9823,7052 9801,7051 9779,7049 9758,7046 9737,7041 9716,7034 9696,7027 9676,7018 9657,7008 9638,6996 9621,6983 9604,6970 9588,6955 9573,6939 9560,6922 9547,6905 9535,6886 9525,6867 9516,6847 9509,6827 9502,6806 9497,6785 9494,6764 9492,6742 9491,6721 9492,6699 9494,6677 9497,6656 9502,6635 9509,6614 9516,6594 9525,6574 9535,6555 9547,6536 9560,6519 9573,6502 9588,6486 9604,6471 9621,6458 9638,6445 9657,6433 9676,6423 9696,6414 9716,6407 9737,6400 9758,6395 9779,6392 9801,6390 9823,6389 9844,6390 9866,6392 9887,6395 9908,6400 9929,6407 9949,6414 9969,6423 9988,6433 10007,6445 10024,6458 10041,6471 10057,6486 10072,6502 10085,6519 10098,6536 10110,6555 10120,6574 10129,6594 10136,6614 10143,6635 10148,6656 10151,6677 10153,6699 10154,6721 Z"/>
     </g>
    </g>
   </g>
   <g class="com.sun.star.drawing.CustomShape">
    <g id="id16">
     <rect class="BoundingBox" stroke="none" fill="none" x="10766" y="6389" width="664" height="664"/>
     <g>
      <defs>
       <linearGradient id="gradient9" x1="10871" y1="6328" x2="11324" y2="7113" gradientUnits="userSpaceOnUse">
        <stop offset="0" style="stop-color:rgb(178,178,178)"/>
        <stop offset="1" style="stop-color:rgb(102,102,102)"/>
       </linearGradient>
      </defs>
      <path style="fill:url(#gradient9)" d="M 11429,6721 L 11428,6742 11426,6764 11423,6785 11418,6806 11411,6827 11404,6847 11395,6867 11385,6886 11373,6905 11360,6922 11347,6939 11332,6955 11316,6970 11299,6983 11282,6996 11263,7008 11244,7018 11224,7027 11204,7034 11183,7041 11162,7046 11141,7049 11119,7051 11098,7052 11076,7051 11054,7049 11033,7046 11012,7041 10991,7034 10971,7027 10951,7018 10932,7008 10913,6996 10896,6983 10879,6970 10863,6955 10848,6939 10835,6922 10822,6905 10810,6886 10800,6867 10791,6847 10784,6827 10777,6806 10772,6785 10769,6764 10767,6742 10766,6721 10767,6699 10769,6677 10772,6656 10777,6635 10784,6614 10791,6594 10800,6574 10810,6555 10822,6536 10835,6519 10848,6502 10863,6486 10879,6471 10896,6458 10913,6445 10932,6433 10951,6423 10971,6414 10991,6407 11012,6400 11033,6395 11054,6392 11076,6390 11098,6389 11119,6390 11141,6392 11162,6395 11183,6400 11204,6407 11224,6414 11244,6423 11263,6433 11282,6445 11299,6458 11316,6471 11332,6486 11347,6502 11360,6519 11373,6536 11385,6555 11395,6574 11404,6594 11411,6614 11418,6635 11423,6656 11426,6677 11428,6699 11429,6721 Z"/>
     </g>
    </g>
   </g>
   <g class="com.sun.star.drawing.CustomShape">
    <g id="id17">
     <rect class="BoundingBox" stroke="none" fill="none" x="12041" y="6389" width="664" height="664"/>
     <g>
      <defs>
       <linearGradient id="gradient10" x1="12146" y1="6328" x2="12599" y2="7113" gradientUnits="userSpaceOnUse">
        <stop offset="0" style="stop-color:rgb(178,178,178)"/>
        <stop offset="1" style="stop-color:rgb(102,102,102)"/>
       </linearGradient>
      </defs>
      <path style="fill:url(#gradient10)" d="M 12704,6721 L 12703,6742 12701,6764 12698,6785 12693,6806 12686,6827 12679,6847 12670,6867 12660,6886 12648,6905 12635,6922 12622,6939 12607,6955 12591,6970 12574,6983 12557,6996 12538,7008 12519,7018 12499,7027 12479,7034 12458,7041 12437,7046 12416,7049 12394,7051 12373,7052 12351,7051 12329,7049 12308,7046 12287,7041 12266,7034 12246,7027 12226,7018 12207,7008 12188,6996 12171,6983 12154,6970 12138,6955 12123,6939 12110,6922 12097,6905 12085,6886 12075,6867 12066,6847 12059,6827 12052,6806 12047,6785 12044,6764 12042,6742 12041,6721 12042,6699 12044,6677 12047,6656 12052,6635 12059,6614 12066,6594 12075,6574 12085,6555 12097,6536 12110,6519 12123,6502 12138,6486 12154,6471 12171,6458 12188,6445 12207,6433 12226,6423 12246,6414 12266,6407 12287,6400 12308,6395 12329,6392 12351,6390 12373,6389 12394,6390 12416,6392 12437,6395 12458,6400 12479,6407 12499,6414 12519,6423 12538,6433 12557,6445 12574,6458 12591,6471 12607,6486 12622,6502 12635,6519 12648,6536 12660,6555 12670,6574 12679,6594 12686,6614 12693,6635 12698,6656 12701,6677 12703,6699 12704,6721 Z"/>
     </g>
    </g>
   </g>
   <g class="com.sun.star.drawing.CustomShape">
    <g id="id18">
     <rect class="BoundingBox" stroke="none" fill="none" x="13316" y="6389" width="664" height="664"/>
     <g>
      <defs>
       <linearGradient id="gradient11" x1="13421" y1="6328" x2="13874" y2="7113" gradientUnits="userSpaceOnUse">
        <stop offset="0" style="stop-color:rgb(178,178,178)"/>
        <stop offset="1" style="stop-color:rgb(102,102,102)"/>
       </linearGradient>
      </defs>
      <path style="fill:url(#gradient11)" d="M 13979,6721 L 13978,6742 13976,6764 13973,6785 13968,6806 13961,6827 13954,6847 13945,6867 13935,6886 13923,6905 13910,6922 13897,6939 13882,6955 13866,6970 13849,6983 13832,6996 13813,7008 13794,7018 13774,7027 13754,7034 13733,7041 13712,7046 13691,7049 13669,7051 13647,7052 13626,7051 13604,7049 13583,7046 13562,7041 13541,7034 13521,7027 13501,7018 13482,7008 13463,6996 13446,6983 13429,6970 13413,6955 13398,6939 13385,6922 13372,6905 13360,6886 13350,6867 13341,6847 13334,6827 13327,6806 13322,6785 13319,6764 13317,6742 13316,6721 13317,6699 13319,6677 13322,6656 13327,6635 13334,6614 13341,6594 13350,6574 13360,6555 13372,6536 13385,6519 13398,6502 13413,6486 13429,6471 13446,6458 13463,6445 13482,6433 13501,6423 13521,6414 13541,6407 13562,6400 13583,6395 13604,6392 13626,6390 13647,6389 13669,6390 13691,6392 13712,6395 13733,6400 13754,6407 13774,6414 13794,6423 13813,6433 13832,6445 13849,6458 13866,6471 13882,6486 13897,6502 13910,6519 13923,6536 13935,6555 13945,6574 13954,6594 13961,6614 13968,6635 13973,6656 13976,6677 13978,6699 13979,6721 Z"/>
     </g>
    </g>
   </g>
   <g class="com.sun.star.drawing.CustomShape">
    <g id="id19">
     <rect class="BoundingBox" stroke="none" fill="none" x="14590" y="6389" width="665" height="664"/>
     <g>
      <defs>
       <linearGradient id="gradient12" x1="14696" y1="6328" x2="15149" y2="7113" gradientUnits="userSpaceOnUse">
        <stop offset="0" style="stop-color:rgb(178,178,178)"/>
        <stop offset="1" style="stop-color:rgb(102,102,102)"/>
       </linearGradient>
      </defs>
      <path style="fill:url(#gradient12)" d="M 15254,6721 L 15253,6742 15251,6764 15248,6785 15243,6806 15236,6827 15229,6847 15220,6867 15210,6886 15198,6905 15185,6922 15172,6939 15157,6955 15141,6970 15124,6983 15107,6996 15088,7008 15069,7018 15049,7027 15029,7034 15008,7041 14987,7046 14966,7049 14944,7051 14922,7052 14901,7051 14879,7049 14858,7046 14837,7041 14816,7034 14796,7027 14776,7018 14757,7008 14738,6996 14721,6983 14704,6970 14688,6955 14673,6939 14660,6922 14647,6905 14635,6886 14625,6867 14616,6847 14609,6827 14602,6806 14597,6785 14594,6764 14592,6742 14591,6721 14592,6699 14594,6677 14597,6656 14602,6635 14609,6614 14616,6594 14625,6574 14635,6555 14647,6536 14660,6519 14673,6502 14688,6486 14704,6471 14721,6458 14738,6445 14757,6433 14776,6423 14796,6414 14816,6407 14837,6400 14858,6395 14879,6392 14901,6390 14922,6389 14944,6390 14966,6392 14987,6395 15008,6400 15029,6407 15049,6414 15069,6423 15088,6433 15107,6445 15124,6458 15141,6471 15157,6486 15172,6502 15185,6519 15198,6536 15210,6555 15220,6574 15229,6594 15236,6614 15243,6635 15248,6656 15251,6677 15253,6699 15254,6721 Z"/>
     </g>
    </g>
   </g>
  </g>
 </g>
</svg>