<?xml version="1.0" encoding="UTF-8"?>
<!DOCTYPE svg PUBLIC "-//W3C//DTD SVG 1.1//EN" "http://www.w3.org/Graphics/SVG/1.1/DTD/svg11.dtd">
<svg version="1.2" width="94.09mm" height="42.97mm" viewBox="7473 11215 9409 4297" preserveAspectRatio="xMidYMid" fill-rule="evenodd" stroke-width="28.222" stroke-linejoin="round" xmlns="http://www.w3.org/2000/svg" xmlns:ooo="http://xml.openoffice.org/svg/export" xmlns:xlink="http://www.w3.org/1999/xlink" xmlns:presentation="http://sun.com/xmlns/staroffice/presentation" xmlns:smil="http://www.w3.org/2001/SMIL20/" xmlns:anim="urn:oasis:names:tc:opendocument:xmlns:animation:1.0" xmlns:svg="urn:oasis:names:tc:opendocument:xmlns:svg-compatible:1.0" xml:space="preserve">
 <defs class="EmbeddedBulletChars">
  <g id="bullet-char-template-57356" transform="scale(0.00048828125,-0.00048828125)">
   <path d="M 580,1141 L 1163,571 580,0 -4,571 580,1141 Z"/>
  </g>
  <g id="bullet-char-template-57354" transform="scale(0.00048828125,-0.00048828125)">
   <path d="M 8,1128 L 1137,1128 1137,0 8,0 8,1128 Z"/>
  </g>
  <g id="bullet-char-template-10146" transform="scale(0.00048828125,-0.00048828125)">
   <path d="M 174,0 L 602,739 174,1481 1456,739 174,0 Z M 1358,739 L 309,1346 659,739 1358,739 Z"/>
  </g>
  <g id="bullet-char-template-10132" transform="scale(0.00048828125,-0.00048828125)">
   <path d="M 2015,739 L 1276,0 717,0 1260,543 174,543 174,936 1260,936 717,1481 1274,1481 2015,739 Z"/>
  </g>
  <g id="bullet-char-template-10007" transform="scale(0.00048828125,-0.00048828125)">
   <path d="M 0,-2 C -7,14 -16,27 -25,37 L 356,567 C 262,823 215,952 215,954 215,979 228,992 255,992 264,992 276,990 289,987 310,991 331,999 354,1012 L 381,999 492,748 772,1049 836,1024 860,1049 C 881,1039 901,1025 922,1006 886,937 835,863 770,784 769,783 710,716 594,584 L 774,223 C 774,196 753,168 711,139 L 727,119 C 717,90 699,76 672,76 641,76 570,178 457,381 L 164,-76 C 142,-110 111,-127 72,-127 30,-127 9,-110 8,-76 1,-67 -2,-52 -2,-32 -2,-23 -1,-13 0,-2 Z"/>
  </g>
  <g id="bullet-char-template-10004" transform="scale(0.00048828125,-0.00048828125)">
   <path d="M 285,-33 C 182,-33 111,30 74,156 52,228 41,333 41,471 41,549 55,616 82,672 116,743 169,778 240,778 293,778 328,747 346,684 L 369,508 C 377,444 397,411 428,410 L 1163,1116 C 1174,1127 1196,1133 1229,1133 1271,1133 1292,1118 1292,1087 L 1292,965 C 1292,929 1282,901 1262,881 L 442,47 C 390,-6 338,-33 285,-33 Z"/>
  </g>
  <g id="bullet-char-template-9679" transform="scale(0.00048828125,-0.00048828125)">
   <path d="M 813,0 C 632,0 489,54 383,161 276,268 223,411 223,592 223,773 276,916 383,1023 489,1130 632,1184 813,1184 992,1184 1136,1130 1245,1023 1353,916 1407,772 1407,592 1407,412 1353,268 1245,161 1136,54 992,0 813,0 Z"/>
  </g>
  <g id="bullet-char-template-8226" transform="scale(0.00048828125,-0.00048828125)">
   <path d="M 346,457 C 273,457 209,483 155,535 101,586 74,649 74,723 74,796 101,859 155,911 209,963 273,989 346,989 419,989 480,963 531,910 582,859 608,796 608,723 608,648 583,586 532,535 482,483 420,457 346,457 Z"/>
  </g>
  <g id="bullet-char-template-8211" transform="scale(0.00048828125,-0.00048828125)">
   <path d="M -4,459 L 1135,459 1135,606 -4,606 -4,459 Z"/>
  </g>
  <g id="bullet-char-template-61548" transform="scale(0.00048828125,-0.00048828125)">
   <path d="M 173,740 C 173,903 231,1043 346,1159 462,1274 601,1332 765,1332 928,1332 1067,1274 1183,1159 1299,1043 1357,903 1357,740 1357,577 1299,437 1183,322 1067,206 928,148 765,148 601,148 462,206 346,322 231,437 173,577 173,740 Z"/>
  </g>
 </defs>
 <g class="Page">
  <g class="Group">
   <g class="Group">
    <g class="com.sun.star.drawing.LineShape">
     <g id="id3">
      <rect class="BoundingBox" stroke="none" fill="none" x="16668" y="15188" width="214" height="324"/>
      <path fill="none" stroke="rgb(141,40,30)" stroke-width="53" stroke-linejoin="round" d="M 16695,15215 L 16854,15484"/>
     </g>
    </g>
    <g class="com.sun.star.drawing.LineShape">
     <g id="id4">
      <rect class="BoundingBox" stroke="none" fill="none" x="16514" y="15184" width="205" height="319"/>
      <path fill="none" stroke="rgb(178,178,178)" stroke-width="53" stroke-linejoin="round" d="M 16691,15211 L 16541,15475"/>
     </g>
    </g>
   </g>
   <g class="com.sun.star.drawing.OpenBezierShape">
    <g id="id5">
     <rect class="BoundingBox" stroke="none" fill="none" x="15510" y="14341" width="1295" height="1069"/>
     <path fill="none" stroke="rgb(102,102,102)" stroke-width="212" stroke-linejoin="round" d="M 15616,14449 C 16709,14421 16674,14759 16697,15303"/>
    </g>
   </g>
  </g>
  <g class="com.sun.star.drawing.CustomShape">
   <g id="id6">
    <rect class="BoundingBox" stroke="none" fill="none" x="7473" y="11215" width="8623" height="3515"/>
    <path fill="rgb(0,0,0)" stroke="none" d="M 7781,11215 L 7781,11215 C 7727,11215 7674,11229 7627,11256 7580,11283 7541,11322 7514,11369 7487,11416 7473,11469 7473,11523 L 7473,14420 7473,14421 C 7473,14475 7487,14528 7514,14575 7541,14622 7580,14661 7627,14688 7674,14715 7727,14729 7781,14729 L 15786,14729 15787,14729 C 15841,14729 15894,14715 15941,14688 15988,14661 16027,14622 16054,14575 16081,14528 16095,14475 16095,14421 L 16095,11523 16095,11523 16095,11523 C 16095,11469 16081,11416 16054,11369 16027,11322 15988,11283 15941,11256 15894,11229 15841,11215 15787,11215 L 7781,11215 Z"/>
   </g>
  </g>
  <g class="Group">
   <g class="com.sun.star.drawing.CustomShape">
    <g id="id7">
     <rect class="BoundingBox" stroke="none" fill="none" x="9138" y="12735" width="431" height="439"/>
     <path fill="rgb(204,204,204)" stroke="none" d="M 9568,12954 C 9568,12993 9558,13031 9539,13064 9520,13097 9493,13125 9461,13144 9428,13163 9391,13173 9353,13173 9315,13173 9278,13163 9246,13144 9213,13125 9186,13097 9167,13064 9148,13031 9138,12993 9138,12954 9138,12916 9148,12878 9167,12845 9186,12812 9213,12784 9246,12765 9278,12746 9315,12736 9353,12736 9391,12736 9428,12746 9461,12765 9493,12784 9520,12812 9539,12845 9558,12878 9568,12916 9568,12954 L 9568,12954 Z"/>
    </g>
   </g>
   <g class="com.sun.star.drawing.CustomShape">
    <g id="id8">
     <rect class="BoundingBox" stroke="none" fill="none" x="10115" y="12736" width="429" height="441"/>
     <path fill="rgb(204,204,204)" stroke="none" d="M 10543,12956 C 10543,12995 10533,13033 10514,13066 10496,13099 10469,13127 10436,13147 10403,13166 10367,13176 10329,13176 10291,13176 10255,13166 10222,13147 10189,13127 10162,13099 10144,13066 10125,13033 10115,12995 10115,12956 10115,12917 10125,12879 10144,12846 10162,12813 10189,12785 10222,12765 10255,12746 10291,12736 10329,12736 10367,12736 10403,12746 10436,12765 10469,12785 10496,12813 10514,12846 10533,12879 10543,12917 10543,12956 L 10543,12956 Z"/>
    </g>
   </g>
   <g class="com.sun.star.drawing.CustomShape">
    <g id="id9">
     <rect class="BoundingBox" stroke="none" fill="none" x="11087" y="12734" width="432" height="441"/>
     <path fill="rgb(204,204,204)" stroke="none" d="M 11517,12954 C 11517,12993 11507,13031 11488,13064 11469,13097 11442,13125 11410,13145 11377,13164 11340,13174 11302,13174 11264,13174 11227,13164 11195,13145 11162,13125 11135,13097 11116,13064 11097,13031 11087,12993 11087,12954 11087,12915 11097,12877 11116,12844 11135,12811 11162,12783 11195,12763 11227,12744 11264,12734 11302,12734 11340,12734 11377,12744 11410,12763 11442,12783 11469,12811 11488,12844 11507,12877 11517,12915 11517,12954 L 11517,12954 Z"/>
    </g>
   </g>
   <g class="com.sun.star.drawing.CustomShape">
    <g id="id10">
     <rect class="BoundingBox" stroke="none" fill="none" x="12059" y="12734" width="431" height="441"/>
     <path fill="rgb(204,204,204)" stroke="none" d="M 12489,12954 C 12489,12993 12479,13031 12460,13064 12441,13097 12414,13125 12382,13145 12349,13164 12312,13174 12274,13174 12236,13174 12199,13164 12167,13145 12134,13125 12107,13097 12088,13064 12069,13031 12059,12993 12059,12954 12059,12915 12069,12877 12088,12844 12107,12811 12134,12783 12167,12763 12199,12744 12236,12734 12274,12734 12312,12734 12349,12744 12382,12763 12414,12783 12441,12811 12460,12844 12479,12877 12489,12915 12489,12954 L 12489,12954 Z"/>
    </g>
   </g>
   <g class="com.sun.star.drawing.CustomShape">
    <g id="id11">
     <rect class="BoundingBox" stroke="none" fill="none" x="13034" y="12734" width="427" height="441"/>
     <path fill="rgb(204,204,204)" stroke="none" d="M 13460,12954 C 13460,12993 13450,13031 13431,13064 13413,13097 13386,13125 13354,13145 13321,13164 13284,13174 13247,13174 13210,13174 13173,13164 13141,13145 13108,13125 13081,13097 13063,13064 13044,13031 13034,12993 13034,12954 13034,12915 13044,12877 13063,12844 13081,12811 13108,12783 13141,12763 13173,12744 13210,12734 13247,12734 13284,12734 13321,12744 13354,12763 13386,12783 13413,12811 13431,12844 13450,12877 13460,12915 13460,12954 L 13460,12954 Z"/>
    </g>
   </g>
   <g class="com.sun.star.drawing.CustomShape">
    <g id="id12">
     <rect class="BoundingBox" stroke="none" fill="none" x="14001" y="12735" width="429" height="441"/>
     <path fill="rgb(204,204,204)" stroke="none" d="M 14429,12955 C 14429,12994 14419,13032 14400,13065 14382,13098 14355,13126 14322,13146 14289,13165 14253,13175 14215,13175 14177,13175 14141,13165 14108,13146 14075,13126 14048,13098 14030,13065 14011,13032 14001,12994 14001,12955 14001,12916 14011,12878 14030,12845 14048,12812 14075,12784 14108,12764 14141,12745 14177,12735 14215,12735 14253,12735 14289,12745 14322,12764 14355,12784 14382,12812 14400,12845 14419,12878 14429,12916 14429,12955 L 14429,12955 Z"/>
    </g>
   </g>
  </g>
  <g class="Group">
   <g class="Group">
    <g class="com.sun.star.drawing.CustomShape">
     <g id="id13">
      <rect class="BoundingBox" stroke="none" fill="none" x="9687" y="12790" width="313" height="313"/>
      <g>
       <defs>
        <linearGradient id="gradient1" x1="9737" y1="12762" x2="9949" y2="13130" gradientUnits="userSpaceOnUse">
         <stop offset="0" style="stop-color:rgb(178,178,178)"/>
         <stop offset="1" style="stop-color:rgb(102,102,102)"/>
        </linearGradient>
       </defs>
       <path style="fill:url(#gradient1)" d="M 9994,12911 L 9996,12921 9997,12931 9998,12941 9998,12951 9997,12962 9996,12972 9994,12981 9991,12991 9988,13001 9984,13010 9980,13019 9974,13028 9969,13037 9963,13045 9956,13052 9949,13059 9941,13066 9933,13072 9925,13078 9916,13083 9907,13087 9897,13091 9888,13094 9878,13097 9868,13099 9858,13100 9848,13101 9838,13101 9827,13100 9817,13099 9808,13097 9798,13094 9788,13091 9779,13087 9770,13083 9761,13077 9752,13072 9744,13066 9737,13059 9730,13052 9723,13044 9717,13036 9711,13028 9706,13019 9702,13010 9698,13000 9695,12991 9692,12981 9690,12971 9689,12961 9688,12951 9688,12941 9689,12930 9690,12920 9692,12911 9695,12901 9698,12891 9702,12882 9706,12873 9712,12864 9717,12855 9723,12847 9730,12840 9737,12833 9745,12826 9753,12820 9761,12814 9770,12809 9779,12805 9789,12801 9798,12798 9808,12795 9818,12793 9828,12792 9838,12791 9848,12791 9859,12792 9869,12793 9878,12795 9888,12798 9898,12801 9907,12805 9916,12809 9925,12815 9934,12820 9942,12826 9949,12833 9956,12840 9963,12848 9969,12856 9975,12864 9980,12873 9984,12882 9988,12892 9991,12901 9994,12911 Z"/>
      </g>
     </g>
    </g>
    <g class="com.sun.star.drawing.LineShape">
     <g id="id14">
      <rect class="BoundingBox" stroke="none" fill="none" x="9704" y="12922" width="286" height="68"/>
      <path fill="none" stroke="rgb(0,0,0)" d="M 9705,12988 L 9988,12923"/>
     </g>
    </g>
   </g>
   <g class="Group">
    <g class="com.sun.star.drawing.CustomShape">
     <g id="id15">
      <rect class="BoundingBox" stroke="none" fill="none" x="13541" y="12790" width="313" height="313"/>
      <g>
       <defs>
        <linearGradient id="gradient2" x1="13591" y1="12762" x2="13803" y2="13130" gradientUnits="userSpaceOnUse">
         <stop offset="0" style="stop-color:rgb(178,178,178)"/>
         <stop offset="1" style="stop-color:rgb(102,102,102)"/>
        </linearGradient>
       </defs>
       <path style="fill:url(#gradient2)" d="M 13779,13077 L 13770,13083 13761,13087 13752,13091 13742,13094 13733,13097 13723,13099 13713,13100 13702,13101 13692,13101 13682,13100 13672,13099 13662,13097 13652,13094 13643,13091 13633,13087 13624,13083 13615,13078 13607,13072 13599,13066 13591,13059 13584,13052 13577,13045 13571,13037 13566,13028 13560,13019 13556,13010 13552,13001 13549,12991 13546,12982 13544,12972 13543,12962 13542,12951 13542,12941 13543,12931 13544,12921 13546,12911 13549,12901 13552,12892 13556,12882 13560,12873 13565,12864 13571,12856 13577,12848 13584,12840 13591,12833 13598,12826 13606,12820 13615,12815 13624,12809 13633,12805 13642,12801 13652,12798 13661,12795 13671,12793 13681,12792 13692,12791 13702,12791 13712,12792 13722,12793 13732,12795 13742,12798 13751,12801 13761,12805 13770,12809 13779,12814 13787,12820 13795,12826 13803,12833 13810,12840 13817,12847 13823,12855 13828,12864 13834,12873 13838,12882 13842,12891 13845,12901 13848,12910 13850,12920 13851,12930 13852,12941 13852,12951 13851,12961 13850,12971 13848,12981 13845,12991 13842,13000 13838,13010 13834,13019 13829,13028 13823,13036 13817,13044 13810,13052 13803,13059 13796,13066 13788,13072 13779,13077 Z"/>
      </g>
     </g>
    </g>
    <g class="com.sun.star.drawing.LineShape">
     <g id="id16">
      <rect class="BoundingBox" stroke="none" fill="none" x="13612" y="12827" width="157" height="249"/>
      <path fill="none" stroke="rgb(0,0,0)" d="M 13613,12828 L 13767,13074"/>
     </g>
    </g>
   </g>
  </g>
 </g>
</svg>