<?xml version="1.0" encoding="UTF-8"?>
<!DOCTYPE svg PUBLIC "-//W3C//DTD SVG 1.1//EN" "http://www.w3.org/Graphics/SVG/1.1/DTD/svg11.dtd">
<svg version="1.2" width="117.46mm" height="49.12mm" viewBox="5940 10900 11746 4912" preserveAspectRatio="xMidYMid" fill-rule="evenodd" stroke-width="28.222" stroke-linejoin="round" xmlns="http://www.w3.org/2000/svg" xmlns:ooo="http://xml.openoffice.org/svg/export" xmlns:xlink="http://www.w3.org/1999/xlink" xmlns:presentation="http://sun.com/xmlns/staroffice/presentation" xmlns:smil="http://www.w3.org/2001/SMIL20/" xmlns:anim="urn:oasis:names:tc:opendocument:xmlns:animation:1.0" xmlns:svg="urn:oasis:names:tc:opendocument:xmlns:svg-compatible:1.0" xml:space="preserve">
 <defs class="EmbeddedBulletChars">
  <g id="bullet-char-template-57356" transform="scale(0.00048828125,-0.00048828125)">
   <path d="M 580,1141 L 1163,571 580,0 -4,571 580,1141 Z"/>
  </g>
  <g id="bullet-char-template-57354" transform="scale(0.00048828125,-0.00048828125)">
   <path d="M 8,1128 L 1137,1128 1137,0 8,0 8,1128 Z"/>
  </g>
  <g id="bullet-char-template-10146" transform="scale(0.00048828125,-0.00048828125)">
   <path d="M 174,0 L 602,739 174,1481 1456,739 174,0 Z M 1358,739 L 309,1346 659,739 1358,739 Z"/>
  </g>
  <g id="bullet-char-template-10132" transform="scale(0.00048828125,-0.00048828125)">
   <path d="M 2015,739 L 1276,0 717,0 1260,543 174,543 174,936 1260,936 717,1481 1274,1481 2015,739 Z"/>
  </g>
  <g id="bullet-char-template-10007" transform="scale(0.00048828125,-0.00048828125)">
   <path d="M 0,-2 C -7,14 -16,27 -25,37 L 356,567 C 262,823 215,952 215,954 215,979 228,992 255,992 264,992 276,990 289,987 310,991 331,999 354,1012 L 381,999 492,748 772,1049 836,1024 860,1049 C 881,1039 901,1025 922,1006 886,937 835,863 770,784 769,783 710,716 594,584 L 774,223 C 774,196 753,168 711,139 L 727,119 C 717,90 699,76 672,76 641,76 570,178 457,381 L 164,-76 C 142,-110 111,-127 72,-127 30,-127 9,-110 8,-76 1,-67 -2,-52 -2,-32 -2,-23 -1,-13 0,-2 Z"/>
  </g>
  <g id="bullet-char-template-10004" transform="scale(0.00048828125,-0.00048828125)">
   <path d="M 285,-33 C 182,-33 111,30 74,156 52,228 41,333 41,471 41,549 55,616 82,672 116,743 169,778 240,778 293,778 328,747 346,684 L 369,508 C 377,444 397,411 428,410 L 1163,1116 C 1174,1127 1196,1133 1229,1133 1271,1133 1292,1118 1292,1087 L 1292,965 C 1292,929 1282,901 1262,881 L 442,47 C 390,-6 338,-33 285,-33 Z"/>
  </g>
  <g id="bullet-char-template-9679" transform="scale(0.00048828125,-0.00048828125)">
   <path d="M 813,0 C 632,0 489,54 383,161 276,268 223,411 223,592 223,773 276,916 383,1023 489,1130 632,1184 813,1184 992,1184 1136,1130 1245,1023 1353,916 1407,772 1407,592 1407,412 1353,268 1245,161 1136,54 992,0 813,0 Z"/>
  </g>
  <g id="bullet-char-template-8226" transform="scale(0.00048828125,-0.00048828125)">
   <path d="M 346,457 C 273,457 209,483 155,535 101,586 74,649 74,723 74,796 101,859 155,911 209,963 273,989 346,989 419,989 480,963 531,910 582,859 608,796 608,723 608,648 583,586 532,535 482,483 420,457 346,457 Z"/>
  </g>
  <g id="bullet-char-template-8211" transform="scale(0.00048828125,-0.00048828125)">
   <path d="M -4,459 L 1135,459 1135,606 -4,606 -4,459 Z"/>
  </g>
  <g id="bullet-char-template-61548" transform="scale(0.00048828125,-0.00048828125)">
   <path d="M 173,740 C 173,903 231,1043 346,1159 462,1274 601,1332 765,1332 928,1332 1067,1274 1183,1159 1299,1043 1357,903 1357,740 1357,577 1299,437 1183,322 1067,206 928,148 765,148 601,148 462,206 346,322 231,437 173,577 173,740 Z"/>
  </g>
 </defs>
 <g class="Page">
  <g class="Group">
   <g class="Group">
    <g class="com.sun.star.drawing.LineShape">
     <g id="id3">
      <rect class="BoundingBox" stroke="none" fill="none" x="16668" y="15488" width="214" height="324"/>
      <path fill="none" stroke="rgb(141,40,30)" stroke-width="53" stroke-linejoin="round" d="M 16695,15515 L 16854,15784"/>
     </g>
    </g>
    <g class="com.sun.star.drawing.LineShape">
     <g id="id4">
      <rect class="BoundingBox" stroke="none" fill="none" x="16514" y="15484" width="205" height="319"/>
      <path fill="none" stroke="rgb(178,178,178)" stroke-width="53" stroke-linejoin="round" d="M 16691,15511 L 16541,15775"/>
     </g>
    </g>
   </g>
   <g class="com.sun.star.drawing.OpenBezierShape">
    <g id="id5">
     <rect class="BoundingBox" stroke="none" fill="none" x="15510" y="14641" width="1295" height="1069"/>
     <path fill="none" stroke="rgb(102,102,102)" stroke-width="212" stroke-linejoin="round" d="M 15616,14749 C 16709,14721 16674,15059 16697,15603"/>
    </g>
   </g>
  </g>
  <g class="com.sun.star.drawing.CustomShape">
   <g id="id6">
    <rect class="BoundingBox" stroke="none" fill="none" x="5940" y="11068" width="4035" height="4035"/>
    <path fill="rgb(0,0,0)" stroke="none" d="M 6135,12490 L 6136,12489 C 6053,12572 5994,12675 5963,12788 5933,12902 5933,13021 5963,13134 5994,13247 6053,13351 6136,13434 L 7608,14906 7608,14906 C 7691,14989 7795,15048 7908,15079 8021,15109 8140,15109 8254,15079 8367,15048 8470,14989 8553,14906 L 9778,13681 9778,13681 C 9861,13598 9920,13495 9951,13382 9981,13268 9981,13149 9951,13036 9920,12923 9861,12819 9778,12736 L 8305,11263 8306,11264 8306,11264 C 8223,11181 8119,11122 8006,11091 7893,11061 7774,11061 7660,11091 7547,11122 7444,11181 7361,11264 L 6135,12490 Z"/>
   </g>
  </g>
  <g class="com.sun.star.drawing.CustomShape">
   <g id="id7">
    <rect class="BoundingBox" stroke="none" fill="none" x="13651" y="10958" width="4035" height="4035"/>
    <path fill="rgb(0,0,0)" stroke="none" d="M 13846,12380 L 13847,12379 C 13764,12462 13705,12565 13674,12678 13644,12792 13644,12911 13674,13024 13705,13137 13764,13241 13847,13324 L 15319,14796 15319,14796 C 15402,14879 15506,14938 15619,14969 15732,14999 15851,14999 15965,14969 16078,14938 16181,14879 16264,14796 L 17489,13571 17489,13571 C 17572,13488 17631,13385 17662,13272 17692,13158 17692,13039 17662,12926 17631,12813 17572,12709 17489,12626 L 16016,11153 16017,11154 16017,11154 C 15934,11071 15830,11012 15717,10981 15604,10951 15485,10951 15371,10981 15258,11012 15155,11071 15072,11154 L 13846,12380 Z"/>
   </g>
  </g>
  <g class="com.sun.star.drawing.CustomShape">
   <g id="id8">
    <rect class="BoundingBox" stroke="none" fill="none" x="7459" y="10900" width="8651" height="4176"/>
    <path fill="rgb(0,0,0)" stroke="none" d="M 7836,10914 L 7837,10914 C 7773,10914 7710,10931 7655,10963 7600,10995 7554,11041 7522,11096 7490,11151 7473,11214 7473,11278 L 7473,14696 7473,14696 C 7473,14760 7490,14823 7522,14878 7554,14933 7600,14979 7655,15011 7710,15043 7773,15060 7837,15060 L 15731,15060 15731,15060 C 15795,15060 15858,15043 15913,15011 15968,14979 16014,14933 16046,14878 16078,14823 16095,14760 16095,14696 L 16095,11277 16095,11278 16095,11278 C 16095,11214 16078,11151 16046,11096 16014,11041 15968,10995 15913,10963 15858,10931 15795,10914 15731,10914 L 7836,10914 Z"/>
    <path fill="none" stroke="rgb(255,255,255)" stroke-width="28" stroke-linejoin="round" d="M 7836,10914 L 7837,10914 C 7773,10914 7710,10931 7655,10963 7600,10995 7554,11041 7522,11096 7490,11151 7473,11214 7473,11278 L 7473,14696 7473,14696 C 7473,14760 7490,14823 7522,14878 7554,14933 7600,14979 7655,15011 7710,15043 7773,15060 7837,15060 L 15731,15060 15731,15060 C 15795,15060 15858,15043 15913,15011 15968,14979 16014,14933 16046,14878 16078,14823 16095,14760 16095,14696 L 16095,11277 16095,11278 16095,11278 C 16095,11214 16078,11151 16046,11096 16014,11041 15968,10995 15913,10963 15858,10931 15795,10914 15731,10914 L 7836,10914 Z"/>
   </g>
  </g>
  <g class="com.sun.star.drawing.CustomShape">
   <g id="id9">
    <rect class="BoundingBox" stroke="none" fill="none" x="6415" y="12765" width="487" height="488"/>
    <path fill="rgb(255,255,255)" stroke="none" d="M 6901,13009 C 6901,13052 6890,13094 6868,13131 6847,13167 6816,13198 6780,13219 6743,13241 6701,13252 6658,13252 6615,13252 6573,13241 6537,13219 6500,13198 6469,13167 6448,13131 6426,13094 6415,13052 6415,13009 6415,12966 6426,12924 6448,12888 6469,12851 6500,12820 6537,12799 6573,12777 6615,12766 6658,12766 6701,12766 6743,12777 6780,12799 6816,12820 6847,12851 6868,12888 6890,12924 6901,12966 6901,13009 L 6901,13009 Z"/>
   </g>
  </g>
  <g class="com.sun.star.drawing.CustomShape">
   <g id="id10">
    <rect class="BoundingBox" stroke="none" fill="none" x="16615" y="12765" width="487" height="487"/>
    <path fill="rgb(255,255,255)" stroke="none" d="M 17101,13008 C 17101,13051 17090,13093 17068,13130 17047,13166 17016,13197 16980,13218 16943,13240 16901,13251 16858,13251 16815,13251 16773,13240 16737,13218 16700,13197 16669,13166 16648,13130 16626,13093 16615,13051 16615,13008 16615,12965 16626,12923 16648,12887 16669,12850 16700,12819 16737,12798 16773,12776 16815,12765 16858,12765 16901,12765 16943,12776 16980,12798 17016,12819 17047,12850 17068,12887 17090,12923 17101,12965 17101,13008 L 17101,13008 Z"/>
   </g>
  </g>
  <g class="Group">
   <g class="com.sun.star.drawing.CustomShape">
    <g id="id11">
     <rect class="BoundingBox" stroke="none" fill="none" x="9081" y="12735" width="431" height="439"/>
     <path fill="rgb(204,204,204)" stroke="none" d="M 9511,12954 C 9511,12993 9501,13031 9482,13064 9463,13097 9436,13125 9404,13144 9371,13163 9334,13173 9296,13173 9258,13173 9221,13163 9189,13144 9156,13125 9129,13097 9110,13064 9091,13031 9081,12993 9081,12954 9081,12916 9091,12878 9110,12845 9129,12812 9156,12784 9189,12765 9221,12746 9258,12736 9296,12736 9334,12736 9371,12746 9404,12765 9436,12784 9463,12812 9482,12845 9501,12878 9511,12916 9511,12954 L 9511,12954 Z"/>
    </g>
   </g>
   <g class="com.sun.star.drawing.CustomShape">
    <g id="id12">
     <rect class="BoundingBox" stroke="none" fill="none" x="10058" y="12736" width="429" height="441"/>
     <path fill="rgb(204,204,204)" stroke="none" d="M 10486,12956 C 10486,12995 10476,13033 10457,13066 10439,13099 10412,13127 10379,13147 10346,13166 10310,13176 10272,13176 10234,13176 10198,13166 10165,13147 10132,13127 10105,13099 10087,13066 10068,13033 10058,12995 10058,12956 10058,12917 10068,12879 10087,12846 10105,12813 10132,12785 10165,12765 10198,12746 10234,12736 10272,12736 10310,12736 10346,12746 10379,12765 10412,12785 10439,12813 10457,12846 10476,12879 10486,12917 10486,12956 L 10486,12956 Z"/>
    </g>
   </g>
   <g class="com.sun.star.drawing.CustomShape">
    <g id="id13">
     <rect class="BoundingBox" stroke="none" fill="none" x="11030" y="12734" width="432" height="441"/>
     <path fill="rgb(204,204,204)" stroke="none" d="M 11460,12954 C 11460,12993 11450,13031 11431,13064 11412,13097 11385,13125 11353,13145 11320,13164 11283,13174 11245,13174 11207,13174 11170,13164 11138,13145 11105,13125 11078,13097 11059,13064 11040,13031 11030,12993 11030,12954 11030,12915 11040,12877 11059,12844 11078,12811 11105,12783 11138,12763 11170,12744 11207,12734 11245,12734 11283,12734 11320,12744 11353,12763 11385,12783 11412,12811 11431,12844 11450,12877 11460,12915 11460,12954 L 11460,12954 Z"/>
    </g>
   </g>
   <g class="com.sun.star.drawing.CustomShape">
    <g id="id14">
     <rect class="BoundingBox" stroke="none" fill="none" x="12002" y="12734" width="431" height="441"/>
     <path fill="rgb(204,204,204)" stroke="none" d="M 12432,12954 C 12432,12993 12422,13031 12403,13064 12384,13097 12357,13125 12325,13145 12292,13164 12255,13174 12217,13174 12179,13174 12142,13164 12110,13145 12077,13125 12050,13097 12031,13064 12012,13031 12002,12993 12002,12954 12002,12915 12012,12877 12031,12844 12050,12811 12077,12783 12110,12763 12142,12744 12179,12734 12217,12734 12255,12734 12292,12744 12325,12763 12357,12783 12384,12811 12403,12844 12422,12877 12432,12915 12432,12954 L 12432,12954 Z"/>
    </g>
   </g>
   <g class="com.sun.star.drawing.CustomShape">
    <g id="id15">
     <rect class="BoundingBox" stroke="none" fill="none" x="12977" y="12734" width="427" height="441"/>
     <path fill="rgb(204,204,204)" stroke="none" d="M 13403,12954 C 13403,12993 13393,13031 13374,13064 13356,13097 13329,13125 13297,13145 13264,13164 13227,13174 13190,13174 13153,13174 13116,13164 13084,13145 13051,13125 13024,13097 13006,13064 12987,13031 12977,12993 12977,12954 12977,12915 12987,12877 13006,12844 13024,12811 13051,12783 13084,12763 13116,12744 13153,12734 13190,12734 13227,12734 13264,12744 13297,12763 13329,12783 13356,12811 13374,12844 13393,12877 13403,12915 13403,12954 L 13403,12954 Z"/>
    </g>
   </g>
   <g class="com.sun.star.drawing.CustomShape">
    <g id="id16">
     <rect class="BoundingBox" stroke="none" fill="none" x="13944" y="12735" width="429" height="441"/>
     <path fill="rgb(204,204,204)" stroke="none" d="M 14372,12955 C 14372,12994 14362,13032 14343,13065 14325,13098 14298,13126 14265,13146 14232,13165 14196,13175 14158,13175 14120,13175 14084,13165 14051,13146 14018,13126 13991,13098 13973,13065 13954,13032 13944,12994 13944,12955 13944,12916 13954,12878 13973,12845 13991,12812 14018,12784 14051,12764 14084,12745 14120,12735 14158,12735 14196,12735 14232,12745 14265,12764 14298,12784 14325,12812 14343,12845 14362,12878 14372,12916 14372,12955 L 14372,12955 Z"/>
    </g>
   </g>
  </g>
 </g>
</svg>