<?xml version="1.0" encoding="UTF-8"?>
<!DOCTYPE svg PUBLIC "-//W3C//DTD SVG 1.1//EN" "http://www.w3.org/Graphics/SVG/1.1/DTD/svg11.dtd">
<svg version="1.2" width="93.73mm" height="19.79mm" viewBox="7526 5820 9373 1979" preserveAspectRatio="xMidYMid" fill-rule="evenodd" stroke-width="28.222" stroke-linejoin="round" xmlns="http://www.w3.org/2000/svg" xmlns:ooo="http://xml.openoffice.org/svg/export" xmlns:xlink="http://www.w3.org/1999/xlink" xmlns:presentation="http://sun.com/xmlns/staroffice/presentation" xmlns:smil="http://www.w3.org/2001/SMIL20/" xmlns:anim="urn:oasis:names:tc:opendocument:xmlns:animation:1.0" xmlns:svg="urn:oasis:names:tc:opendocument:xmlns:svg-compatible:1.0" xml:space="preserve">
 <defs class="EmbeddedBulletChars">
  <g id="bullet-char-template-57356" transform="scale(0.00048828125,-0.00048828125)">
   <path d="M 580,1141 L 1163,571 580,0 -4,571 580,1141 Z"/>
  </g>
  <g id="bullet-char-template-57354" transform="scale(0.00048828125,-0.00048828125)">
   <path d="M 8,1128 L 1137,1128 1137,0 8,0 8,1128 Z"/>
  </g>
  <g id="bullet-char-template-10146" transform="scale(0.00048828125,-0.00048828125)">
   <path d="M 174,0 L 602,739 174,1481 1456,739 174,0 Z M 1358,739 L 309,1346 659,739 1358,739 Z"/>
  </g>
  <g id="bullet-char-template-10132" transform="scale(0.00048828125,-0.00048828125)">
   <path d="M 2015,739 L 1276,0 717,0 1260,543 174,543 174,936 1260,936 717,1481 1274,1481 2015,739 Z"/>
  </g>
  <g id="bullet-char-template-10007" transform="scale(0.00048828125,-0.00048828125)">
   <path d="M 0,-2 C -7,14 -16,27 -25,37 L 356,567 C 262,823 215,952 215,954 215,979 228,992 255,992 264,992 276,990 289,987 310,991 331,999 354,1012 L 381,999 492,748 772,1049 836,1024 860,1049 C 881,1039 901,1025 922,1006 886,937 835,863 770,784 769,783 710,716 594,584 L 774,223 C 774,196 753,168 711,139 L 727,119 C 717,90 699,76 672,76 641,76 570,178 457,381 L 164,-76 C 142,-110 111,-127 72,-127 30,-127 9,-110 8,-76 1,-67 -2,-52 -2,-32 -2,-23 -1,-13 0,-2 Z"/>
  </g>
  <g id="bullet-char-template-10004" transform="scale(0.00048828125,-0.00048828125)">
   <path d="M 285,-33 C 182,-33 111,30 74,156 52,228 41,333 41,471 41,549 55,616 82,672 116,743 169,778 240,778 293,778 328,747 346,684 L 369,508 C 377,444 397,411 428,410 L 1163,1116 C 1174,1127 1196,1133 1229,1133 1271,1133 1292,1118 1292,1087 L 1292,965 C 1292,929 1282,901 1262,881 L 442,47 C 390,-6 338,-33 285,-33 Z"/>
  </g>
  <g id="bullet-char-template-9679" transform="scale(0.00048828125,-0.00048828125)">
   <path d="M 813,0 C 632,0 489,54 383,161 276,268 223,411 223,592 223,773 276,916 383,1023 489,1130 632,1184 813,1184 992,1184 1136,1130 1245,1023 1353,916 1407,772 1407,592 1407,412 1353,268 1245,161 1136,54 992,0 813,0 Z"/>
  </g>
  <g id="bullet-char-template-8226" transform="scale(0.00048828125,-0.00048828125)">
   <path d="M 346,457 C 273,457 209,483 155,535 101,586 74,649 74,723 74,796 101,859 155,911 209,963 273,989 346,989 419,989 480,963 531,910 582,859 608,796 608,723 608,648 583,586 532,535 482,483 420,457 346,457 Z"/>
  </g>
  <g id="bullet-char-template-8211" transform="scale(0.00048828125,-0.00048828125)">
   <path d="M -4,459 L 1135,459 1135,606 -4,606 -4,459 Z"/>
  </g>
  <g id="bullet-char-template-61548" transform="scale(0.00048828125,-0.00048828125)">
   <path d="M 173,740 C 173,903 231,1043 346,1159 462,1274 601,1332 765,1332 928,1332 1067,1274 1183,1159 1299,1043 1357,903 1357,740 1357,577 1299,437 1183,322 1067,206 928,148 765,148 601,148 462,206 346,322 231,437 173,577 173,740 Z"/>
  </g>
 </defs>
 <g class="Page">
  <g class="Group">
   <g class="com.sun.star.drawing.LineShape">
    <g id="id3">
     <rect class="BoundingBox" stroke="none" fill="none" x="16685" y="7475" width="214" height="324"/>
     <path fill="none" stroke="rgb(141,40,30)" stroke-width="53" stroke-linejoin="round" d="M 16712,7502 L 16871,7771"/>
    </g>
   </g>
   <g class="com.sun.star.drawing.LineShape">
    <g id="id4">
     <rect class="BoundingBox" stroke="none" fill="none" x="16531" y="7471" width="205" height="319"/>
     <path fill="none" stroke="rgb(178,178,178)" stroke-width="53" stroke-linejoin="round" d="M 16708,7498 L 16558,7762"/>
    </g>
   </g>
  </g>
  <g class="com.sun.star.drawing.OpenBezierShape">
   <g id="id5">
    <rect class="BoundingBox" stroke="none" fill="none" x="15527" y="6628" width="1295" height="1069"/>
    <path fill="none" stroke="rgb(102,102,102)" stroke-width="212" stroke-linejoin="round" d="M 15633,6736 C 16726,6708 16691,7046 16714,7590"/>
   </g>
  </g>
  <g class="com.sun.star.drawing.CustomShape">
   <g id="id6">
    <rect class="BoundingBox" stroke="none" fill="none" x="7526" y="5820" width="8418" height="1802"/>
    <path fill="rgb(17,17,17)" stroke="none" d="M 8427,5820 L 8427,5820 C 8269,5820 8114,5862 7977,5941 7840,6020 7727,6133 7648,6270 7569,6407 7527,6562 7527,6720 L 7527,6720 7527,6720 C 7527,6878 7569,7033 7648,7170 7727,7307 7840,7420 7977,7499 8114,7578 8269,7620 8427,7620 L 15042,7620 15042,7620 C 15200,7620 15355,7578 15492,7499 15629,7420 15742,7307 15821,7170 15900,7033 15942,6878 15942,6720 L 15942,6720 15942,6720 15942,6720 C 15942,6562 15900,6407 15821,6270 15742,6133 15629,6020 15492,5941 15355,5862 15200,5820 15042,5820 L 8427,5820 Z"/>
   </g>
  </g>
  <g class="Group">
   <g class="com.sun.star.drawing.CustomShape">
    <g id="id7">
     <rect class="BoundingBox" stroke="none" fill="none" x="8216" y="6389" width="664" height="664"/>
     <g>
      <defs>
       <linearGradient id="gradient1" x1="8321" y1="6328" x2="8774" y2="7113" gradientUnits="userSpaceOnUse">
        <stop offset="0" style="stop-color:rgb(128,128,128)"/>
        <stop offset="1" style="stop-color:rgb(221,221,221)"/>
       </linearGradient>
      </defs>
      <path style="fill:url(#gradient1)" d="M 8879,6721 L 8878,6742 8876,6764 8873,6785 8868,6806 8861,6827 8854,6847 8845,6867 8835,6886 8823,6905 8810,6922 8797,6939 8782,6955 8766,6970 8749,6983 8732,6996 8713,7008 8694,7018 8674,7027 8654,7034 8633,7041 8612,7046 8591,7049 8569,7051 8548,7052 8526,7051 8504,7049 8483,7046 8462,7041 8441,7034 8421,7027 8401,7018 8382,7008 8363,6996 8346,6983 8329,6970 8313,6955 8298,6939 8285,6922 8272,6905 8260,6886 8250,6867 8241,6847 8234,6827 8227,6806 8222,6785 8219,6764 8217,6742 8216,6721 8217,6699 8219,6677 8222,6656 8227,6635 8234,6614 8241,6594 8250,6574 8260,6555 8272,6536 8285,6519 8298,6502 8313,6486 8329,6471 8346,6458 8363,6445 8382,6433 8401,6423 8421,6414 8441,6407 8462,6400 8483,6395 8504,6392 8526,6390 8548,6389 8569,6390 8591,6392 8612,6395 8633,6400 8654,6407 8674,6414 8694,6423 8713,6433 8732,6445 8749,6458 8766,6471 8782,6486 8797,6502 8810,6519 8823,6536 8835,6555 8845,6574 8854,6594 8861,6614 8868,6635 8873,6656 8876,6677 8878,6699 8879,6721 Z"/>
     </g>
    </g>
   </g>
   <g class="com.sun.star.drawing.CustomShape">
    <g id="id8">
     <rect class="BoundingBox" stroke="none" fill="none" x="9491" y="6389" width="664" height="664"/>
     <g>
      <defs>
       <linearGradient id="gradient2" x1="9596" y1="6328" x2="10049" y2="7113" gradientUnits="userSpaceOnUse">
        <stop offset="0" style="stop-color:rgb(128,128,128)"/>
        <stop offset="1" style="stop-color:rgb(221,221,221)"/>
       </linearGradient>
      </defs>
      <path style="fill:url(#gradient2)" d="M 10154,6721 L 10153,6742 10151,6764 10148,6785 10143,6806 10136,6827 10129,6847 10120,6867 10110,6886 10098,6905 10085,6922 10072,6939 10057,6955 10041,6970 10024,6983 10007,6996 9988,7008 9969,7018 9949,7027 9929,7034 9908,7041 9887,7046 9866,7049 9844,7051 9823,7052 9801,7051 9779,7049 9758,7046 9737,7041 9716,7034 9696,7027 9676,7018 9657,7008 9638,6996 9621,6983 9604,6970 9588,6955 9573,6939 9560,6922 9547,6905 9535,6886 9525,6867 9516,6847 9509,6827 9502,6806 9497,6785 9494,6764 9492,6742 9491,6721 9492,6699 9494,6677 9497,6656 9502,6635 9509,6614 9516,6594 9525,6574 9535,6555 9547,6536 9560,6519 9573,6502 9588,6486 9604,6471 9621,6458 9638,6445 9657,6433 9676,6423 9696,6414 9716,6407 9737,6400 9758,6395 9779,6392 9801,6390 9823,6389 9844,6390 9866,6392 9887,6395 9908,6400 9929,6407 9949,6414 9969,6423 9988,6433 10007,6445 10024,6458 10041,6471 10057,6486 10072,6502 10085,6519 10098,6536 10110,6555 10120,6574 10129,6594 10136,6614 10143,6635 10148,6656 10151,6677 10153,6699 10154,6721 Z"/>
     </g>
    </g>
   </g>
   <g class="com.sun.star.drawing.CustomShape">
    <g id="id9">
     <rect class="BoundingBox" stroke="none" fill="none" x="10766" y="6389" width="664" height="664"/>
     <g>
      <defs>
       <linearGradient id="gradient3" x1="10871" y1="6328" x2="11324" y2="7113" gradientUnits="userSpaceOnUse">
        <stop offset="0" style="stop-color:rgb(128,128,128)"/>
        <stop offset="1" style="stop-color:rgb(221,221,221)"/>
       </linearGradient>
      </defs>
      <path style="fill:url(#gradient3)" d="M 11429,6721 L 11428,6742 11426,6764 11423,6785 11418,6806 11411,6827 11404,6847 11395,6867 11385,6886 11373,6905 11360,6922 11347,6939 11332,6955 11316,6970 11299,6983 11282,6996 11263,7008 11244,7018 11224,7027 11204,7034 11183,7041 11162,7046 11141,7049 11119,7051 11098,7052 11076,7051 11054,7049 11033,7046 11012,7041 10991,7034 10971,7027 10951,7018 10932,7008 10913,6996 10896,6983 10879,6970 10863,6955 10848,6939 10835,6922 10822,6905 10810,6886 10800,6867 10791,6847 10784,6827 10777,6806 10772,6785 10769,6764 10767,6742 10766,6721 10767,6699 10769,6677 10772,6656 10777,6635 10784,6614 10791,6594 10800,6574 10810,6555 10822,6536 10835,6519 10848,6502 10863,6486 10879,6471 10896,6458 10913,6445 10932,6433 10951,6423 10971,6414 10991,6407 11012,6400 11033,6395 11054,6392 11076,6390 11098,6389 11119,6390 11141,6392 11162,6395 11183,6400 11204,6407 11224,6414 11244,6423 11263,6433 11282,6445 11299,6458 11316,6471 11332,6486 11347,6502 11360,6519 11373,6536 11385,6555 11395,6574 11404,6594 11411,6614 11418,6635 11423,6656 11426,6677 11428,6699 11429,6721 Z"/>
     </g>
    </g>
   </g>
   <g class="com.sun.star.drawing.CustomShape">
    <g id="id10">
     <rect class="BoundingBox" stroke="none" fill="none" x="12041" y="6389" width="664" height="664"/>
     <g>
      <defs>
       <linearGradient id="gradient4" x1="12146" y1="6328" x2="12599" y2="7113" gradientUnits="userSpaceOnUse">
        <stop offset="0" style="stop-color:rgb(128,128,128)"/>
        <stop offset="1" style="stop-color:rgb(221,221,221)"/>
       </linearGradient>
      </defs>
      <path style="fill:url(#gradient4)" d="M 12704,6721 L 12703,6742 12701,6764 12698,6785 12693,6806 12686,6827 12679,6847 12670,6867 12660,6886 12648,6905 12635,6922 12622,6939 12607,6955 12591,6970 12574,6983 12557,6996 12538,7008 12519,7018 12499,7027 12479,7034 12458,7041 12437,7046 12416,7049 12394,7051 12373,7052 12351,7051 12329,7049 12308,7046 12287,7041 12266,7034 12246,7027 12226,7018 12207,7008 12188,6996 12171,6983 12154,6970 12138,6955 12123,6939 12110,6922 12097,6905 12085,6886 12075,6867 12066,6847 12059,6827 12052,6806 12047,6785 12044,6764 12042,6742 12041,6721 12042,6699 12044,6677 12047,6656 12052,6635 12059,6614 12066,6594 12075,6574 12085,6555 12097,6536 12110,6519 12123,6502 12138,6486 12154,6471 12171,6458 12188,6445 12207,6433 12226,6423 12246,6414 12266,6407 12287,6400 12308,6395 12329,6392 12351,6390 12373,6389 12394,6390 12416,6392 12437,6395 12458,6400 12479,6407 12499,6414 12519,6423 12538,6433 12557,6445 12574,6458 12591,6471 12607,6486 12622,6502 12635,6519 12648,6536 12660,6555 12670,6574 12679,6594 12686,6614 12693,6635 12698,6656 12701,6677 12703,6699 12704,6721 Z"/>
     </g>
    </g>
   </g>
   <g class="com.sun.star.drawing.CustomShape">
    <g id="id11">
     <rect class="BoundingBox" stroke="none" fill="none" x="13316" y="6389" width="664" height="664"/>
     <g>
      <defs>
       <linearGradient id="gradient5" x1="13421" y1="6328" x2="13874" y2="7113" gradientUnits="userSpaceOnUse">
        <stop offset="0" style="stop-color:rgb(128,128,128)"/>
        <stop offset="1" style="stop-color:rgb(221,221,221)"/>
       </linearGradient>
      </defs>
      <path style="fill:url(#gradient5)" d="M 13979,6721 L 13978,6742 13976,6764 13973,6785 13968,6806 13961,6827 13954,6847 13945,6867 13935,6886 13923,6905 13910,6922 13897,6939 13882,6955 13866,6970 13849,6983 13832,6996 13813,7008 13794,7018 13774,7027 13754,7034 13733,7041 13712,7046 13691,7049 13669,7051 13647,7052 13626,7051 13604,7049 13583,7046 13562,7041 13541,7034 13521,7027 13501,7018 13482,7008 13463,6996 13446,6983 13429,6970 13413,6955 13398,6939 13385,6922 13372,6905 13360,6886 13350,6867 13341,6847 13334,6827 13327,6806 13322,6785 13319,6764 13317,6742 13316,6721 13317,6699 13319,6677 13322,6656 13327,6635 13334,6614 13341,6594 13350,6574 13360,6555 13372,6536 13385,6519 13398,6502 13413,6486 13429,6471 13446,6458 13463,6445 13482,6433 13501,6423 13521,6414 13541,6407 13562,6400 13583,6395 13604,6392 13626,6390 13647,6389 13669,6390 13691,6392 13712,6395 13733,6400 13754,6407 13774,6414 13794,6423 13813,6433 13832,6445 13849,6458 13866,6471 13882,6486 13897,6502 13910,6519 13923,6536 13935,6555 13945,6574 13954,6594 13961,6614 13968,6635 13973,6656 13976,6677 13978,6699 13979,6721 Z"/>
     </g>
    </g>
   </g>
   <g class="com.sun.star.drawing.CustomShape">
    <g id="id12">
     <rect class="BoundingBox" stroke="none" fill="none" x="14590" y="6389" width="665" height="664"/>
     <g>
      <defs>
       <linearGradient id="gradient6" x1="14696" y1="6328" x2="15149" y2="7113" gradientUnits="userSpaceOnUse">
        <stop offset="0" style="stop-color:rgb(128,128,128)"/>
        <stop offset="1" style="stop-color:rgb(221,221,221)"/>
       </linearGradient>
      </defs>
      <path style="fill:url(#gradient6)" d="M 15254,6721 L 15253,6742 15251,6764 15248,6785 15243,6806 15236,6827 15229,6847 15220,6867 15210,6886 15198,6905 15185,6922 15172,6939 15157,6955 15141,6970 15124,6983 15107,6996 15088,7008 15069,7018 15049,7027 15029,7034 15008,7041 14987,7046 14966,7049 14944,7051 14922,7052 14901,7051 14879,7049 14858,7046 14837,7041 14816,7034 14796,7027 14776,7018 14757,7008 14738,6996 14721,6983 14704,6970 14688,6955 14673,6939 14660,6922 14647,6905 14635,6886 14625,6867 14616,6847 14609,6827 14602,6806 14597,6785 14594,6764 14592,6742 14591,6721 14592,6699 14594,6677 14597,6656 14602,6635 14609,6614 14616,6594 14625,6574 14635,6555 14647,6536 14660,6519 14673,6502 14688,6486 14704,6471 14721,6458 14738,6445 14757,6433 14776,6423 14796,6414 14816,6407 14837,6400 14858,6395 14879,6392 14901,6390 14922,6389 14944,6390 14966,6392 14987,6395 15008,6400 15029,6407 15049,6414 15069,6423 15088,6433 15107,6445 15124,6458 15141,6471 15157,6486 15172,6502 15185,6519 15198,6536 15210,6555 15220,6574 15229,6594 15236,6614 15243,6635 15248,6656 15251,6677 15253,6699 15254,6721 Z"/>
     </g>
    </g>
   </g>
  </g>
 </g>
</svg>