<?xml version="1.0" encoding="UTF-8"?>
<!DOCTYPE svg PUBLIC "-//W3C//DTD SVG 1.1//EN" "http://www.w3.org/Graphics/SVG/1.1/DTD/svg11.dtd">
<svg version="1.2" width="78.77mm" height="29.32mm" viewBox="2576 11771 7877 2932" preserveAspectRatio="xMidYMid" fill-rule="evenodd" stroke-width="28.222" stroke-linejoin="round" xmlns="http://www.w3.org/2000/svg" xmlns:ooo="http://xml.openoffice.org/svg/export" xmlns:xlink="http://www.w3.org/1999/xlink" xmlns:presentation="http://sun.com/xmlns/staroffice/presentation" xmlns:smil="http://www.w3.org/2001/SMIL20/" xmlns:anim="urn:oasis:names:tc:opendocument:xmlns:animation:1.0" xmlns:svg="urn:oasis:names:tc:opendocument:xmlns:svg-compatible:1.0" xml:space="preserve">
 <defs class="EmbeddedBulletChars">
  <g id="bullet-char-template-57356" transform="scale(0.00048828125,-0.00048828125)">
   <path d="M 580,1141 L 1163,571 580,0 -4,571 580,1141 Z"/>
  </g>
  <g id="bullet-char-template-57354" transform="scale(0.00048828125,-0.00048828125)">
   <path d="M 8,1128 L 1137,1128 1137,0 8,0 8,1128 Z"/>
  </g>
  <g id="bullet-char-template-10146" transform="scale(0.00048828125,-0.00048828125)">
   <path d="M 174,0 L 602,739 174,1481 1456,739 174,0 Z M 1358,739 L 309,1346 659,739 1358,739 Z"/>
  </g>
  <g id="bullet-char-template-10132" transform="scale(0.00048828125,-0.00048828125)">
   <path d="M 2015,739 L 1276,0 717,0 1260,543 174,543 174,936 1260,936 717,1481 1274,1481 2015,739 Z"/>
  </g>
  <g id="bullet-char-template-10007" transform="scale(0.00048828125,-0.00048828125)">
   <path d="M 0,-2 C -7,14 -16,27 -25,37 L 356,567 C 262,823 215,952 215,954 215,979 228,992 255,992 264,992 276,990 289,987 310,991 331,999 354,1012 L 381,999 492,748 772,1049 836,1024 860,1049 C 881,1039 901,1025 922,1006 886,937 835,863 770,784 769,783 710,716 594,584 L 774,223 C 774,196 753,168 711,139 L 727,119 C 717,90 699,76 672,76 641,76 570,178 457,381 L 164,-76 C 142,-110 111,-127 72,-127 30,-127 9,-110 8,-76 1,-67 -2,-52 -2,-32 -2,-23 -1,-13 0,-2 Z"/>
  </g>
  <g id="bullet-char-template-10004" transform="scale(0.00048828125,-0.00048828125)">
   <path d="M 285,-33 C 182,-33 111,30 74,156 52,228 41,333 41,471 41,549 55,616 82,672 116,743 169,778 240,778 293,778 328,747 346,684 L 369,508 C 377,444 397,411 428,410 L 1163,1116 C 1174,1127 1196,1133 1229,1133 1271,1133 1292,1118 1292,1087 L 1292,965 C 1292,929 1282,901 1262,881 L 442,47 C 390,-6 338,-33 285,-33 Z"/>
  </g>
  <g id="bullet-char-template-9679" transform="scale(0.00048828125,-0.00048828125)">
   <path d="M 813,0 C 632,0 489,54 383,161 276,268 223,411 223,592 223,773 276,916 383,1023 489,1130 632,1184 813,1184 992,1184 1136,1130 1245,1023 1353,916 1407,772 1407,592 1407,412 1353,268 1245,161 1136,54 992,0 813,0 Z"/>
  </g>
  <g id="bullet-char-template-8226" transform="scale(0.00048828125,-0.00048828125)">
   <path d="M 346,457 C 273,457 209,483 155,535 101,586 74,649 74,723 74,796 101,859 155,911 209,963 273,989 346,989 419,989 480,963 531,910 582,859 608,796 608,723 608,648 583,586 532,535 482,483 420,457 346,457 Z"/>
  </g>
  <g id="bullet-char-template-8211" transform="scale(0.00048828125,-0.00048828125)">
   <path d="M -4,459 L 1135,459 1135,606 -4,606 -4,459 Z"/>
  </g>
  <g id="bullet-char-template-61548" transform="scale(0.00048828125,-0.00048828125)">
   <path d="M 173,740 C 173,903 231,1043 346,1159 462,1274 601,1332 765,1332 928,1332 1067,1274 1183,1159 1299,1043 1357,903 1357,740 1357,577 1299,437 1183,322 1067,206 928,148 765,148 601,148 462,206 346,322 231,437 173,577 173,740 Z"/>
  </g>
 </defs>
 <g class="Page">
  <g class="Group">
   <g class="com.sun.star.drawing.CustomShape">
    <g id="id3">
     <rect class="BoundingBox" stroke="none" fill="none" x="3426" y="13330" width="6176" height="573"/>
     <path fill="rgb(0,0,0)" stroke="none" d="M 3426,13331 L 9601,13331 6991,13902 6036,13902 3426,13331 Z"/>
    </g>
   </g>
   <g class="com.sun.star.drawing.CustomShape">
    <g id="id4">
     <rect class="BoundingBox" stroke="none" fill="none" x="2576" y="11771" width="7877" height="1653"/>
     <path fill="rgb(17,17,17)" stroke="none" d="M 3402,11771 L 3402,11771 C 3257,11771 3115,11809 2989,11882 2863,11954 2759,12058 2687,12184 2614,12310 2576,12452 2576,12597 L 2576,12597 2576,12597 C 2576,12742 2614,12884 2687,13010 2759,13136 2863,13240 2989,13312 3115,13385 3257,13423 3402,13423 L 9625,13423 9625,13423 C 9770,13423 9912,13385 10038,13312 10164,13240 10268,13136 10340,13010 10413,12884 10451,12742 10451,12597 L 10451,12597 10451,12597 10451,12597 C 10451,12452 10413,12310 10340,12184 10268,12058 10164,11954 10038,11882 9912,11809 9770,11771 9625,11771 L 3402,11771 Z"/>
    </g>
   </g>
   <g class="Group">
    <g class="com.sun.star.drawing.CustomShape">
     <g id="id5">
      <rect class="BoundingBox" stroke="none" fill="none" x="3579" y="12326" width="553" height="561"/>
      <g>
       <defs>
        <linearGradient id="gradient1" x1="3665" y1="12276" x2="4046" y2="12936" gradientUnits="userSpaceOnUse">
         <stop offset="0" style="stop-color:rgb(178,178,178)"/>
         <stop offset="1" style="stop-color:rgb(102,102,102)"/>
        </linearGradient>
       </defs>
       <path style="fill:url(#gradient1)" d="M 4131,12606 L 4130,12624 4129,12643 4126,12661 4122,12678 4116,12696 4110,12713 4103,12730 4094,12746 4084,12762 4074,12777 4062,12791 4050,12804 4037,12816 4023,12828 4008,12839 3993,12848 3977,12857 3961,12865 3944,12871 3926,12876 3909,12881 3891,12884 3873,12885 3855,12886 3837,12885 3819,12884 3801,12881 3784,12876 3766,12871 3749,12865 3733,12857 3717,12848 3702,12839 3687,12828 3673,12816 3660,12804 3648,12791 3636,12777 3626,12762 3616,12746 3607,12730 3600,12713 3594,12696 3588,12678 3584,12661 3581,12643 3580,12624 3579,12606 3580,12588 3581,12569 3584,12551 3588,12534 3594,12516 3600,12499 3607,12482 3616,12466 3626,12450 3636,12435 3648,12421 3660,12408 3673,12396 3687,12384 3702,12373 3717,12364 3733,12355 3749,12347 3766,12341 3784,12336 3801,12331 3819,12328 3837,12327 3855,12326 3873,12327 3891,12328 3909,12331 3926,12336 3944,12341 3961,12347 3977,12355 3993,12364 4008,12373 4023,12384 4037,12396 4050,12408 4062,12421 4074,12435 4084,12450 4094,12466 4103,12482 4110,12499 4116,12516 4122,12534 4126,12551 4129,12569 4130,12588 4131,12606 Z"/>
      </g>
     </g>
    </g>
    <g class="com.sun.star.drawing.CustomShape">
     <g id="id6">
      <rect class="BoundingBox" stroke="none" fill="none" x="4643" y="12326" width="553" height="561"/>
      <g>
       <defs>
        <linearGradient id="gradient2" x1="4729" y1="12276" x2="5110" y2="12936" gradientUnits="userSpaceOnUse">
         <stop offset="0" style="stop-color:rgb(178,178,178)"/>
         <stop offset="1" style="stop-color:rgb(102,102,102)"/>
        </linearGradient>
       </defs>
       <path style="fill:url(#gradient2)" d="M 5195,12606 L 5194,12624 5193,12643 5190,12661 5186,12678 5180,12696 5174,12713 5167,12730 5158,12746 5148,12762 5138,12777 5126,12791 5114,12804 5101,12816 5087,12828 5072,12839 5057,12848 5041,12857 5025,12865 5008,12871 4990,12876 4973,12881 4955,12884 4937,12885 4919,12886 4901,12885 4883,12884 4865,12881 4848,12876 4830,12871 4813,12865 4797,12857 4781,12848 4766,12839 4751,12828 4737,12816 4724,12804 4712,12791 4700,12777 4690,12762 4680,12746 4671,12730 4664,12713 4658,12696 4652,12678 4648,12661 4645,12643 4644,12624 4643,12606 4644,12588 4645,12569 4648,12551 4652,12534 4658,12516 4664,12499 4671,12482 4680,12466 4690,12450 4700,12435 4712,12421 4724,12408 4737,12396 4751,12384 4766,12373 4781,12364 4797,12355 4813,12347 4830,12341 4848,12336 4865,12331 4883,12328 4901,12327 4919,12326 4937,12327 4955,12328 4973,12331 4990,12336 5008,12341 5025,12347 5041,12355 5057,12364 5072,12373 5087,12384 5101,12396 5114,12408 5126,12421 5138,12435 5148,12450 5158,12466 5167,12482 5174,12499 5180,12516 5186,12534 5190,12551 5193,12569 5194,12588 5195,12606 Z"/>
      </g>
     </g>
    </g>
    <g class="com.sun.star.drawing.CustomShape">
     <g id="id7">
      <rect class="BoundingBox" stroke="none" fill="none" x="5704" y="12326" width="555" height="561"/>
      <g>
       <defs>
        <linearGradient id="gradient3" x1="5791" y1="12276" x2="6172" y2="12936" gradientUnits="userSpaceOnUse">
         <stop offset="0" style="stop-color:rgb(178,178,178)"/>
         <stop offset="1" style="stop-color:rgb(102,102,102)"/>
        </linearGradient>
       </defs>
       <path style="fill:url(#gradient3)" d="M 6258,12606 L 6257,12624 6256,12643 6253,12661 6249,12678 6243,12696 6237,12713 6229,12730 6221,12746 6211,12762 6201,12777 6189,12791 6177,12804 6164,12816 6150,12828 6135,12839 6120,12848 6103,12857 6087,12865 6070,12871 6053,12876 6035,12881 6017,12884 5999,12885 5981,12886 5963,12885 5945,12884 5927,12881 5909,12876 5892,12871 5875,12865 5859,12857 5843,12848 5827,12839 5812,12828 5798,12816 5785,12804 5773,12791 5761,12777 5751,12762 5741,12746 5733,12730 5725,12713 5719,12696 5713,12678 5709,12661 5706,12643 5705,12624 5704,12606 5705,12588 5706,12569 5709,12551 5713,12534 5719,12516 5725,12499 5733,12482 5741,12466 5751,12450 5761,12435 5773,12421 5785,12408 5798,12396 5812,12384 5827,12373 5843,12364 5859,12355 5875,12347 5892,12341 5909,12336 5927,12331 5945,12328 5963,12327 5981,12326 5999,12327 6017,12328 6035,12331 6053,12336 6070,12341 6087,12347 6103,12355 6120,12364 6135,12373 6150,12384 6164,12396 6177,12408 6189,12421 6201,12435 6211,12450 6221,12466 6229,12482 6237,12499 6243,12516 6249,12534 6253,12551 6256,12569 6257,12588 6258,12606 Z"/>
      </g>
     </g>
    </g>
    <g class="com.sun.star.drawing.CustomShape">
     <g id="id8">
      <rect class="BoundingBox" stroke="none" fill="none" x="6768" y="12326" width="556" height="561"/>
      <g>
       <defs>
        <linearGradient id="gradient4" x1="6855" y1="12276" x2="7236" y2="12936" gradientUnits="userSpaceOnUse">
         <stop offset="0" style="stop-color:rgb(178,178,178)"/>
         <stop offset="1" style="stop-color:rgb(102,102,102)"/>
        </linearGradient>
       </defs>
       <path style="fill:url(#gradient4)" d="M 7322,12606 L 7321,12624 7320,12643 7317,12661 7313,12678 7307,12696 7301,12713 7293,12730 7285,12746 7275,12762 7265,12777 7253,12791 7241,12804 7228,12816 7214,12828 7199,12839 7184,12848 7167,12857 7151,12865 7134,12871 7117,12876 7099,12881 7081,12884 7063,12885 7045,12886 7027,12885 7009,12884 6991,12881 6973,12876 6956,12871 6939,12865 6923,12857 6907,12848 6891,12839 6876,12828 6862,12816 6849,12804 6837,12791 6825,12777 6815,12762 6805,12746 6797,12730 6789,12713 6783,12696 6777,12678 6773,12661 6770,12643 6769,12624 6768,12606 6769,12588 6770,12569 6773,12551 6777,12534 6783,12516 6789,12499 6797,12482 6805,12466 6815,12450 6825,12435 6837,12421 6849,12408 6862,12396 6876,12384 6891,12373 6907,12364 6923,12355 6939,12347 6956,12341 6973,12336 6991,12331 7009,12328 7027,12327 7045,12326 7063,12327 7081,12328 7099,12331 7117,12336 7134,12341 7151,12347 7167,12355 7184,12364 7199,12373 7214,12384 7228,12396 7241,12408 7253,12421 7265,12435 7275,12450 7285,12466 7293,12482 7301,12499 7307,12516 7313,12534 7317,12551 7320,12569 7321,12588 7322,12606 Z"/>
      </g>
     </g>
    </g>
    <g class="com.sun.star.drawing.CustomShape">
     <g id="id9">
      <rect class="BoundingBox" stroke="none" fill="none" x="7831" y="12326" width="553" height="561"/>
      <g>
       <defs>
        <linearGradient id="gradient5" x1="7917" y1="12276" x2="8298" y2="12936" gradientUnits="userSpaceOnUse">
         <stop offset="0" style="stop-color:rgb(178,178,178)"/>
         <stop offset="1" style="stop-color:rgb(102,102,102)"/>
        </linearGradient>
       </defs>
       <path style="fill:url(#gradient5)" d="M 8383,12606 L 8382,12624 8381,12643 8378,12661 8374,12678 8368,12696 8362,12713 8355,12730 8346,12746 8336,12762 8326,12777 8314,12791 8302,12804 8289,12816 8275,12828 8260,12839 8245,12848 8229,12857 8213,12865 8196,12871 8178,12876 8161,12881 8143,12884 8125,12885 8107,12886 8089,12885 8071,12884 8053,12881 8036,12876 8018,12871 8001,12865 7985,12857 7969,12848 7954,12839 7939,12828 7925,12816 7912,12804 7900,12791 7888,12777 7878,12762 7868,12746 7859,12730 7852,12713 7846,12696 7840,12678 7836,12661 7833,12643 7832,12624 7831,12606 7832,12588 7833,12569 7836,12551 7840,12534 7846,12516 7852,12499 7859,12482 7868,12466 7878,12450 7888,12435 7900,12421 7912,12408 7925,12396 7939,12384 7954,12373 7969,12364 7985,12355 8001,12347 8018,12341 8036,12336 8053,12331 8071,12328 8089,12327 8107,12326 8125,12327 8143,12328 8161,12331 8178,12336 8196,12341 8213,12347 8229,12355 8245,12364 8260,12373 8275,12384 8289,12396 8302,12408 8314,12421 8326,12435 8336,12450 8346,12466 8355,12482 8362,12499 8368,12516 8374,12534 8378,12551 8381,12569 8382,12588 8383,12606 Z"/>
      </g>
     </g>
    </g>
    <g class="com.sun.star.drawing.CustomShape">
     <g id="id10">
      <rect class="BoundingBox" stroke="none" fill="none" x="8895" y="12326" width="553" height="561"/>
      <g>
       <defs>
        <linearGradient id="gradient6" x1="8981" y1="12276" x2="9362" y2="12936" gradientUnits="userSpaceOnUse">
         <stop offset="0" style="stop-color:rgb(178,178,178)"/>
         <stop offset="1" style="stop-color:rgb(102,102,102)"/>
        </linearGradient>
       </defs>
       <path style="fill:url(#gradient6)" d="M 9447,12606 L 9446,12624 9445,12643 9442,12661 9438,12678 9432,12696 9426,12713 9419,12730 9410,12746 9400,12762 9390,12777 9378,12791 9366,12804 9353,12816 9339,12828 9324,12839 9309,12848 9293,12857 9277,12865 9260,12871 9242,12876 9225,12881 9207,12884 9189,12885 9171,12886 9153,12885 9135,12884 9117,12881 9100,12876 9082,12871 9065,12865 9049,12857 9033,12848 9018,12839 9003,12828 8989,12816 8976,12804 8964,12791 8952,12777 8942,12762 8932,12746 8923,12730 8916,12713 8910,12696 8904,12678 8900,12661 8897,12643 8896,12624 8895,12606 8896,12588 8897,12569 8900,12551 8904,12534 8910,12516 8916,12499 8923,12482 8932,12466 8942,12450 8952,12435 8964,12421 8976,12408 8989,12396 9003,12384 9018,12373 9033,12364 9049,12355 9065,12347 9082,12341 9100,12336 9117,12331 9135,12328 9153,12327 9171,12326 9189,12327 9207,12328 9225,12331 9242,12336 9260,12341 9277,12347 9293,12355 9309,12364 9324,12373 9339,12384 9353,12396 9366,12408 9378,12421 9390,12435 9400,12450 9410,12466 9419,12482 9426,12499 9432,12516 9438,12534 9442,12551 9445,12569 9446,12588 9447,12606 Z"/>
      </g>
     </g>
    </g>
   </g>
   <g class="Group">
    <g class="com.sun.star.drawing.CustomShape">
     <g id="id11">
      <rect class="BoundingBox" stroke="none" fill="none" x="6170" y="13699" width="160" height="1004"/>
      <path fill="rgb(172,178,12)" stroke="none" d="M 6249,13699 L 6250,13699 C 6236,13699 6222,13703 6210,13710 6198,13717 6188,13727 6181,13739 6174,13751 6170,13765 6170,13779 L 6170,14622 6170,14622 C 6170,14636 6174,14650 6181,14662 6188,14674 6198,14684 6210,14691 6222,14698 6236,14702 6250,14702 L 6249,14702 6250,14702 C 6263,14702 6277,14698 6289,14691 6301,14684 6311,14674 6318,14662 6325,14650 6329,14636 6329,14622 L 6329,13778 6329,13779 6329,13779 C 6329,13765 6325,13751 6318,13739 6311,13727 6301,13717 6289,13710 6277,13703 6263,13699 6250,13699 L 6249,13699 Z"/>
     </g>
    </g>
    <g class="com.sun.star.drawing.CustomShape">
     <g id="id12">
      <rect class="BoundingBox" stroke="none" fill="none" x="6699" y="13699" width="160" height="1004"/>
      <path fill="rgb(51,51,51)" stroke="none" d="M 6778,13699 L 6779,13699 C 6765,13699 6751,13703 6739,13710 6727,13717 6717,13727 6710,13739 6703,13751 6699,13765 6699,13779 L 6699,14622 6699,14622 C 6699,14636 6703,14650 6710,14662 6717,14674 6727,14684 6739,14691 6751,14698 6765,14702 6779,14702 L 6778,14702 6779,14702 C 6792,14702 6806,14698 6818,14691 6830,14684 6840,14674 6847,14662 6854,14650 6858,14636 6858,14622 L 6858,13778 6858,13779 6858,13779 C 6858,13765 6854,13751 6847,13739 6840,13727 6830,13717 6818,13710 6806,13703 6792,13699 6779,13699 L 6778,13699 Z"/>
     </g>
    </g>
   </g>
  </g>
 </g>
</svg>