<?xml version="1.0" encoding="UTF-8"?>
<!DOCTYPE svg PUBLIC "-//W3C//DTD SVG 1.1//EN" "http://www.w3.org/Graphics/SVG/1.1/DTD/svg11.dtd">
<svg version="1.2" width="6.33mm" height="1.63mm" viewBox="9014 23222 633 163" preserveAspectRatio="xMidYMid" fill-rule="evenodd" stroke-width="28.222" stroke-linejoin="round" xmlns="http://www.w3.org/2000/svg" xmlns:ooo="http://xml.openoffice.org/svg/export" xmlns:xlink="http://www.w3.org/1999/xlink" xmlns:presentation="http://sun.com/xmlns/staroffice/presentation" xmlns:smil="http://www.w3.org/2001/SMIL20/" xmlns:anim="urn:oasis:names:tc:opendocument:xmlns:animation:1.0" xmlns:svg="urn:oasis:names:tc:opendocument:xmlns:svg-compatible:1.0" xml:space="preserve">
 <defs class="EmbeddedBulletChars">
  <g id="bullet-char-template-57356" transform="scale(0.00048828125,-0.00048828125)">
   <path d="M 580,1141 L 1163,571 580,0 -4,571 580,1141 Z"/>
  </g>
  <g id="bullet-char-template-57354" transform="scale(0.00048828125,-0.00048828125)">
   <path d="M 8,1128 L 1137,1128 1137,0 8,0 8,1128 Z"/>
  </g>
  <g id="bullet-char-template-10146" transform="scale(0.00048828125,-0.00048828125)">
   <path d="M 174,0 L 602,739 174,1481 1456,739 174,0 Z M 1358,739 L 309,1346 659,739 1358,739 Z"/>
  </g>
  <g id="bullet-char-template-10132" transform="scale(0.00048828125,-0.00048828125)">
   <path d="M 2015,739 L 1276,0 717,0 1260,543 174,543 174,936 1260,936 717,1481 1274,1481 2015,739 Z"/>
  </g>
  <g id="bullet-char-template-10007" transform="scale(0.00048828125,-0.00048828125)">
   <path d="M 0,-2 C -7,14 -16,27 -25,37 L 356,567 C 262,823 215,952 215,954 215,979 228,992 255,992 264,992 276,990 289,987 310,991 331,999 354,1012 L 381,999 492,748 772,1049 836,1024 860,1049 C 881,1039 901,1025 922,1006 886,937 835,863 770,784 769,783 710,716 594,584 L 774,223 C 774,196 753,168 711,139 L 727,119 C 717,90 699,76 672,76 641,76 570,178 457,381 L 164,-76 C 142,-110 111,-127 72,-127 30,-127 9,-110 8,-76 1,-67 -2,-52 -2,-32 -2,-23 -1,-13 0,-2 Z"/>
  </g>
  <g id="bullet-char-template-10004" transform="scale(0.00048828125,-0.00048828125)">
   <path d="M 285,-33 C 182,-33 111,30 74,156 52,228 41,333 41,471 41,549 55,616 82,672 116,743 169,778 240,778 293,778 328,747 346,684 L 369,508 C 377,444 397,411 428,410 L 1163,1116 C 1174,1127 1196,1133 1229,1133 1271,1133 1292,1118 1292,1087 L 1292,965 C 1292,929 1282,901 1262,881 L 442,47 C 390,-6 338,-33 285,-33 Z"/>
  </g>
  <g id="bullet-char-template-9679" transform="scale(0.00048828125,-0.00048828125)">
   <path d="M 813,0 C 632,0 489,54 383,161 276,268 223,411 223,592 223,773 276,916 383,1023 489,1130 632,1184 813,1184 992,1184 1136,1130 1245,1023 1353,916 1407,772 1407,592 1407,412 1353,268 1245,161 1136,54 992,0 813,0 Z"/>
  </g>
  <g id="bullet-char-template-8226" transform="scale(0.00048828125,-0.00048828125)">
   <path d="M 346,457 C 273,457 209,483 155,535 101,586 74,649 74,723 74,796 101,859 155,911 209,963 273,989 346,989 419,989 480,963 531,910 582,859 608,796 608,723 608,648 583,586 532,535 482,483 420,457 346,457 Z"/>
  </g>
  <g id="bullet-char-template-8211" transform="scale(0.00048828125,-0.00048828125)">
   <path d="M -4,459 L 1135,459 1135,606 -4,606 -4,459 Z"/>
  </g>
  <g id="bullet-char-template-61548" transform="scale(0.00048828125,-0.00048828125)">
   <path d="M 173,740 C 173,903 231,1043 346,1159 462,1274 601,1332 765,1332 928,1332 1067,1274 1183,1159 1299,1043 1357,903 1357,740 1357,577 1299,437 1183,322 1067,206 928,148 765,148 601,148 462,206 346,322 231,437 173,577 173,740 Z"/>
  </g>
 </defs>
 <g class="Page">
  <g class="Group">
   <g class="Group">
    <g class="com.sun.star.drawing.LineShape">
     <g id="id3">
      <rect class="BoundingBox" stroke="none" fill="none" x="9014" y="23301" width="633" height="3"/>
      <path fill="none" stroke="rgb(0,0,0)" d="M 9015,23302 L 9645,23302"/>
     </g>
    </g>
    <g class="com.sun.star.drawing.ClosedBezierShape">
     <g id="id4">
      <rect class="BoundingBox" stroke="none" fill="none" x="9070" y="23222" width="522" height="163"/>
      <g>
       <defs>
        <linearGradient id="gradient1" x1="9330" y1="23222" x2="9330" y2="23384" gradientUnits="userSpaceOnUse">
         <stop offset="0" style="stop-color:rgb(135,206,235)"/>
         <stop offset="0.5" style="stop-color:rgb(175,238,238)"/>
         <stop offset="1" style="stop-color:rgb(135,206,235)"/>
        </linearGradient>
       </defs>
       <path style="fill:url(#gradient1)" d="M 9139,23384 L 9135,23384 9130,23383 9126,23382 9121,23381 9117,23380 9113,23378 9109,23376 9105,23373 9101,23370 9097,23367 9094,23364 9091,23360 9087,23356 9085,23352 9082,23348 9080,23344 9077,23339 9076,23334 9074,23329 9073,23324 9072,23319 9071,23314 9071,23308 9070,23303 9071,23298 9071,23292 9072,23287 9073,23282 9074,23277 9076,23272 9077,23267 9080,23263 9082,23258 9085,23254 9087,23250 9091,23246 9094,23242 9097,23239 9101,23236 9105,23233 9109,23230 9113,23228 9117,23226 9121,23225 9126,23224 9130,23223 9135,23222 9139,23222 9143,23222 9147,23223 9151,23223 9155,23224 9159,23225 9163,23227 9167,23229 9170,23231 9490,23231 9494,23229 9498,23227 9501,23225 9505,23224 9509,23223 9513,23223 9517,23222 9521,23222 9526,23222 9530,23223 9535,23224 9539,23225 9543,23226 9548,23228 9552,23230 9556,23233 9559,23236 9563,23239 9567,23242 9570,23246 9573,23250 9576,23254 9578,23258 9581,23263 9583,23267 9585,23272 9586,23277 9588,23282 9589,23287 9589,23292 9590,23298 9590,23303 9590,23308 9589,23314 9589,23319 9588,23324 9586,23329 9585,23334 9583,23339 9581,23344 9578,23348 9576,23352 9573,23356 9570,23360 9567,23364 9563,23367 9559,23370 9556,23373 9552,23376 9548,23378 9543,23380 9539,23381 9535,23382 9530,23383 9526,23384 9521,23384 9517,23384 9513,23383 9508,23383 9504,23381 9500,23380 9496,23378 9492,23376 9488,23374 9172,23374 9169,23376 9165,23378 9161,23380 9156,23381 9152,23383 9148,23383 9143,23384 9139,23384 Z"/>
      </g>
     </g>
    </g>
    <g class="com.sun.star.drawing.LineShape">
     <g id="id5">
      <rect class="BoundingBox" stroke="none" fill="none" x="9189" y="23225" width="20" height="157"/>
      <path fill="none" stroke="rgb(0,0,0)" stroke-width="18" stroke-linejoin="round" d="M 9198,23235 L 9198,23372"/>
     </g>
    </g>
    <g class="com.sun.star.drawing.LineShape">
     <g id="id6">
      <rect class="BoundingBox" stroke="none" fill="none" x="9228" y="23225" width="20" height="157"/>
      <path fill="none" stroke="rgb(165,42,42)" stroke-width="18" stroke-linejoin="round" d="M 9238,23235 L 9238,23372"/>
     </g>
    </g>
    <g class="com.sun.star.drawing.LineShape">
     <g id="id7">
      <rect class="BoundingBox" stroke="none" fill="none" x="9267" y="23225" width="20" height="157"/>
      <path fill="none" stroke="rgb(255,215,0)" stroke-width="18" stroke-linejoin="round" d="M 9277,23235 L 9277,23372"/>
     </g>
    </g>
   </g>
  </g>
 </g>
</svg>