<?xml version="1.0" encoding="UTF-8"?>
<!DOCTYPE svg PUBLIC "-//W3C//DTD SVG 1.1//EN" "http://www.w3.org/Graphics/SVG/1.1/DTD/svg11.dtd">
<svg version="1.2" width="31.6mm" height="15.3mm" viewBox="5574 18178 3160 1530" preserveAspectRatio="xMidYMid" fill-rule="evenodd" stroke-width="28.222" stroke-linejoin="round" xmlns="http://www.w3.org/2000/svg" xmlns:ooo="http://xml.openoffice.org/svg/export" xmlns:xlink="http://www.w3.org/1999/xlink" xmlns:presentation="http://sun.com/xmlns/staroffice/presentation" xmlns:smil="http://www.w3.org/2001/SMIL20/" xmlns:anim="urn:oasis:names:tc:opendocument:xmlns:animation:1.0" xmlns:svg="urn:oasis:names:tc:opendocument:xmlns:svg-compatible:1.0" xml:space="preserve">
 <defs class="EmbeddedBulletChars">
  <g id="bullet-char-template-57356" transform="scale(0.00048828125,-0.00048828125)">
   <path d="M 580,1141 L 1163,571 580,0 -4,571 580,1141 Z"/>
  </g>
  <g id="bullet-char-template-57354" transform="scale(0.00048828125,-0.00048828125)">
   <path d="M 8,1128 L 1137,1128 1137,0 8,0 8,1128 Z"/>
  </g>
  <g id="bullet-char-template-10146" transform="scale(0.00048828125,-0.00048828125)">
   <path d="M 174,0 L 602,739 174,1481 1456,739 174,0 Z M 1358,739 L 309,1346 659,739 1358,739 Z"/>
  </g>
  <g id="bullet-char-template-10132" transform="scale(0.00048828125,-0.00048828125)">
   <path d="M 2015,739 L 1276,0 717,0 1260,543 174,543 174,936 1260,936 717,1481 1274,1481 2015,739 Z"/>
  </g>
  <g id="bullet-char-template-10007" transform="scale(0.00048828125,-0.00048828125)">
   <path d="M 0,-2 C -7,14 -16,27 -25,37 L 356,567 C 262,823 215,952 215,954 215,979 228,992 255,992 264,992 276,990 289,987 310,991 331,999 354,1012 L 381,999 492,748 772,1049 836,1024 860,1049 C 881,1039 901,1025 922,1006 886,937 835,863 770,784 769,783 710,716 594,584 L 774,223 C 774,196 753,168 711,139 L 727,119 C 717,90 699,76 672,76 641,76 570,178 457,381 L 164,-76 C 142,-110 111,-127 72,-127 30,-127 9,-110 8,-76 1,-67 -2,-52 -2,-32 -2,-23 -1,-13 0,-2 Z"/>
  </g>
  <g id="bullet-char-template-10004" transform="scale(0.00048828125,-0.00048828125)">
   <path d="M 285,-33 C 182,-33 111,30 74,156 52,228 41,333 41,471 41,549 55,616 82,672 116,743 169,778 240,778 293,778 328,747 346,684 L 369,508 C 377,444 397,411 428,410 L 1163,1116 C 1174,1127 1196,1133 1229,1133 1271,1133 1292,1118 1292,1087 L 1292,965 C 1292,929 1282,901 1262,881 L 442,47 C 390,-6 338,-33 285,-33 Z"/>
  </g>
  <g id="bullet-char-template-9679" transform="scale(0.00048828125,-0.00048828125)">
   <path d="M 813,0 C 632,0 489,54 383,161 276,268 223,411 223,592 223,773 276,916 383,1023 489,1130 632,1184 813,1184 992,1184 1136,1130 1245,1023 1353,916 1407,772 1407,592 1407,412 1353,268 1245,161 1136,54 992,0 813,0 Z"/>
  </g>
  <g id="bullet-char-template-8226" transform="scale(0.00048828125,-0.00048828125)">
   <path d="M 346,457 C 273,457 209,483 155,535 101,586 74,649 74,723 74,796 101,859 155,911 209,963 273,989 346,989 419,989 480,963 531,910 582,859 608,796 608,723 608,648 583,586 532,535 482,483 420,457 346,457 Z"/>
  </g>
  <g id="bullet-char-template-8211" transform="scale(0.00048828125,-0.00048828125)">
   <path d="M -4,459 L 1135,459 1135,606 -4,606 -4,459 Z"/>
  </g>
  <g id="bullet-char-template-61548" transform="scale(0.00048828125,-0.00048828125)">
   <path d="M 173,740 C 173,903 231,1043 346,1159 462,1274 601,1332 765,1332 928,1332 1067,1274 1183,1159 1299,1043 1357,903 1357,740 1357,577 1299,437 1183,322 1067,206 928,148 765,148 601,148 462,206 346,322 231,437 173,577 173,740 Z"/>
  </g>
 </defs>
 <g class="Page">
  <g class="Group">
   <g class="com.sun.star.drawing.CustomShape">
    <g id="id3">
     <rect class="BoundingBox" stroke="none" fill="none" x="6521" y="18178" width="1531" height="1530"/>
     <path fill="none" stroke="rgb(128,128,128)" stroke-width="106" stroke-linejoin="round" d="M 7998,18943 C 7998,19067 7965,19190 7903,19298 7840,19406 7750,19496 7642,19559 7534,19621 7411,19654 7286,19654 7162,19654 7039,19621 6931,19559 6823,19496 6733,19406 6670,19298 6608,19190 6575,19067 6575,18943 6575,18818 6608,18695 6670,18587 6733,18479 6823,18389 6931,18326 7039,18264 7162,18231 7286,18231 7411,18231 7534,18264 7642,18326 7750,18389 7840,18479 7903,18587 7965,18695 7998,18818 7998,18943 Z"/>
    </g>
   </g>
   <g class="com.sun.star.drawing.CustomShape">
    <g id="id4">
     <rect class="BoundingBox" stroke="none" fill="none" x="6407" y="19337" width="1754" height="165"/>
     <path fill="rgb(189,183,107)" stroke="none" d="M 7284,19501 L 6407,19501 6407,19337 8160,19337 8160,19501 7284,19501 Z"/>
    </g>
   </g>
   <g class="com.sun.star.drawing.CustomShape">
    <g id="id5">
     <rect class="BoundingBox" stroke="none" fill="none" x="5981" y="18835" width="2093" height="207"/>
     <path fill="rgb(105,105,105)" stroke="none" d="M 7027,19041 L 5981,19041 5981,18835 8073,18835 8073,19041 7027,19041 Z"/>
    </g>
   </g>
   <g class="com.sun.star.drawing.CustomShape">
    <g id="id6">
     <rect class="BoundingBox" stroke="none" fill="none" x="6408" y="18574" width="1695" height="126"/>
     <path fill="rgb(0,0,0)" stroke="none" d="M 7255,18699 L 6408,18699 6408,18574 8102,18574 8102,18699 7255,18699 Z"/>
    </g>
   </g>
   <g class="com.sun.star.drawing.CustomShape">
    <g id="id7">
     <rect class="BoundingBox" stroke="none" fill="none" x="6407" y="18709" width="1704" height="126"/>
     <path fill="rgb(0,0,0)" stroke="none" d="M 7259,18834 L 6407,18834 6407,18709 8110,18709 8110,18834 7259,18834 Z"/>
    </g>
   </g>
   <g class="com.sun.star.drawing.CustomShape">
    <g id="id8">
     <rect class="BoundingBox" stroke="none" fill="none" x="6407" y="19040" width="1754" height="126"/>
     <path fill="rgb(0,0,0)" stroke="none" d="M 7284,19165 L 6407,19165 6407,19040 8160,19040 8160,19165 7284,19165 Z"/>
    </g>
   </g>
   <g class="com.sun.star.drawing.CustomShape">
    <g id="id9">
     <rect class="BoundingBox" stroke="none" fill="none" x="6407" y="19178" width="1754" height="126"/>
     <path fill="rgb(0,0,0)" stroke="none" d="M 7284,19303 L 6407,19303 6407,19178 8160,19178 8160,19303 7284,19303 Z"/>
    </g>
   </g>
   <g class="com.sun.star.drawing.CustomShape">
    <g id="id10">
     <rect class="BoundingBox" stroke="none" fill="none" x="6548" y="19501" width="1513" height="116"/>
     <path fill="rgb(105,105,105)" stroke="none" d="M 7304,19616 L 6548,19616 6548,19501 8060,19501 8060,19616 7304,19616 Z"/>
    </g>
   </g>
   <g class="com.sun.star.drawing.CustomShape">
    <g id="id11">
     <rect class="BoundingBox" stroke="none" fill="none" x="6491" y="18323" width="1567" height="58"/>
     <path fill="rgb(105,105,105)" stroke="none" d="M 7274,18380 L 6491,18380 6491,18323 8057,18323 8057,18380 7274,18380 Z"/>
    </g>
   </g>
   <g class="com.sun.star.drawing.LineShape">
    <g id="id12">
     <rect class="BoundingBox" stroke="none" fill="none" x="6412" y="18673" width="1698" height="37"/>
     <path fill="none" stroke="rgb(105,105,105)" stroke-width="35" stroke-linejoin="round" d="M 6430,18691 L 8091,18691"/>
    </g>
   </g>
   <g class="com.sun.star.drawing.LineShape">
    <g id="id13">
     <rect class="BoundingBox" stroke="none" fill="none" x="5574" y="18545" width="2534" height="37"/>
     <path fill="none" stroke="rgb(105,105,105)" stroke-width="35" stroke-linejoin="round" d="M 5592,18563 L 8089,18563"/>
    </g>
   </g>
   <g class="com.sun.star.drawing.LineShape">
    <g id="id14">
     <rect class="BoundingBox" stroke="none" fill="none" x="5603" y="19301" width="2554" height="37"/>
     <path fill="none" stroke="rgb(105,105,105)" stroke-width="35" stroke-linejoin="round" d="M 5621,19319 L 8138,19319"/>
    </g>
   </g>
   <g class="com.sun.star.drawing.LineShape">
    <g id="id15">
     <rect class="BoundingBox" stroke="none" fill="none" x="6414" y="19141" width="1739" height="37"/>
     <path fill="none" stroke="rgb(105,105,105)" stroke-width="35" stroke-linejoin="round" d="M 6432,19159 L 8134,19159"/>
    </g>
   </g>
   <g class="com.sun.star.drawing.CustomShape">
    <g id="id16">
     <rect class="BoundingBox" stroke="none" fill="none" x="7657" y="18247" width="313" height="312"/>
     <path fill="rgb(112,128,144)" stroke="none" d="M 7969,18403 C 7969,18430 7962,18457 7948,18480 7935,18504 7915,18524 7891,18537 7868,18551 7841,18558 7813,18558 7786,18558 7759,18551 7736,18537 7712,18524 7692,18504 7679,18480 7665,18457 7658,18430 7658,18403 7658,18375 7665,18348 7679,18325 7692,18301 7712,18281 7736,18268 7759,18254 7786,18247 7813,18247 7841,18247 7868,18254 7891,18268 7915,18281 7935,18301 7948,18325 7962,18348 7969,18375 7969,18403 L 7969,18403 Z"/>
    </g>
   </g>
   <g class="com.sun.star.drawing.CustomShape">
    <g id="id17">
     <rect class="BoundingBox" stroke="none" fill="none" x="6536" y="18245" width="312" height="313"/>
     <path fill="rgb(112,128,144)" stroke="none" d="M 6847,18401 C 6847,18429 6840,18456 6826,18479 6813,18503 6793,18523 6769,18536 6746,18550 6719,18557 6692,18557 6664,18557 6637,18550 6614,18536 6590,18523 6570,18503 6557,18479 6543,18456 6536,18429 6536,18401 6536,18374 6543,18347 6557,18324 6570,18300 6590,18280 6614,18267 6637,18253 6664,18246 6692,18246 6719,18246 6746,18253 6769,18267 6793,18280 6813,18300 6826,18324 6840,18347 6847,18374 6847,18401 L 6847,18401 Z"/>
    </g>
   </g>
   <g class="com.sun.star.drawing.CustomShape">
    <g id="id18">
     <rect class="BoundingBox" stroke="none" fill="none" x="6407" y="18376" width="1754" height="174"/>
     <path fill="rgb(189,183,107)" stroke="none" d="M 7284,18549 L 6407,18549 6407,18376 8160,18376 8160,18549 7284,18549 Z"/>
    </g>
   </g>
   <g class="com.sun.star.drawing.LineShape">
    <g id="id19">
     <rect class="BoundingBox" stroke="none" fill="none" x="8072" y="18673" width="662" height="267"/>
     <path fill="none" stroke="rgb(105,105,105)" stroke-width="35" stroke-linejoin="round" d="M 8090,18691 L 8715,18921"/>
    </g>
   </g>
   <g class="com.sun.star.drawing.LineShape">
    <g id="id20">
     <rect class="BoundingBox" stroke="none" fill="none" x="8113" y="18897" width="615" height="284"/>
     <path fill="none" stroke="rgb(105,105,105)" stroke-width="35" stroke-linejoin="round" d="M 8131,19162 L 8709,18915"/>
    </g>
   </g>
  </g>
 </g>
</svg>