<?xml version="1.0" encoding="UTF-8"?>
<!DOCTYPE svg PUBLIC "-//W3C//DTD SVG 1.1//EN" "http://www.w3.org/Graphics/SVG/1.1/DTD/svg11.dtd">
<svg version="1.2" width="11.45mm" height="8.94mm" viewBox="6632 3223 1145 894" preserveAspectRatio="xMidYMid" fill-rule="evenodd" stroke-width="28.222" stroke-linejoin="round" xmlns="http://www.w3.org/2000/svg" xmlns:ooo="http://xml.openoffice.org/svg/export" xmlns:xlink="http://www.w3.org/1999/xlink" xmlns:presentation="http://sun.com/xmlns/staroffice/presentation" xmlns:smil="http://www.w3.org/2001/SMIL20/" xmlns:anim="urn:oasis:names:tc:opendocument:xmlns:animation:1.0" xmlns:svg="urn:oasis:names:tc:opendocument:xmlns:svg-compatible:1.0" xml:space="preserve">
 <defs class="EmbeddedBulletChars">
  <g id="bullet-char-template-57356" transform="scale(0.00048828125,-0.00048828125)">
   <path d="M 580,1141 L 1163,571 580,0 -4,571 580,1141 Z"/>
  </g>
  <g id="bullet-char-template-57354" transform="scale(0.00048828125,-0.00048828125)">
   <path d="M 8,1128 L 1137,1128 1137,0 8,0 8,1128 Z"/>
  </g>
  <g id="bullet-char-template-10146" transform="scale(0.00048828125,-0.00048828125)">
   <path d="M 174,0 L 602,739 174,1481 1456,739 174,0 Z M 1358,739 L 309,1346 659,739 1358,739 Z"/>
  </g>
  <g id="bullet-char-template-10132" transform="scale(0.00048828125,-0.00048828125)">
   <path d="M 2015,739 L 1276,0 717,0 1260,543 174,543 174,936 1260,936 717,1481 1274,1481 2015,739 Z"/>
  </g>
  <g id="bullet-char-template-10007" transform="scale(0.00048828125,-0.00048828125)">
   <path d="M 0,-2 C -7,14 -16,27 -25,37 L 356,567 C 262,823 215,952 215,954 215,979 228,992 255,992 264,992 276,990 289,987 310,991 331,999 354,1012 L 381,999 492,748 772,1049 836,1024 860,1049 C 881,1039 901,1025 922,1006 886,937 835,863 770,784 769,783 710,716 594,584 L 774,223 C 774,196 753,168 711,139 L 727,119 C 717,90 699,76 672,76 641,76 570,178 457,381 L 164,-76 C 142,-110 111,-127 72,-127 30,-127 9,-110 8,-76 1,-67 -2,-52 -2,-32 -2,-23 -1,-13 0,-2 Z"/>
  </g>
  <g id="bullet-char-template-10004" transform="scale(0.00048828125,-0.00048828125)">
   <path d="M 285,-33 C 182,-33 111,30 74,156 52,228 41,333 41,471 41,549 55,616 82,672 116,743 169,778 240,778 293,778 328,747 346,684 L 369,508 C 377,444 397,411 428,410 L 1163,1116 C 1174,1127 1196,1133 1229,1133 1271,1133 1292,1118 1292,1087 L 1292,965 C 1292,929 1282,901 1262,881 L 442,47 C 390,-6 338,-33 285,-33 Z"/>
  </g>
  <g id="bullet-char-template-9679" transform="scale(0.00048828125,-0.00048828125)">
   <path d="M 813,0 C 632,0 489,54 383,161 276,268 223,411 223,592 223,773 276,916 383,1023 489,1130 632,1184 813,1184 992,1184 1136,1130 1245,1023 1353,916 1407,772 1407,592 1407,412 1353,268 1245,161 1136,54 992,0 813,0 Z"/>
  </g>
  <g id="bullet-char-template-8226" transform="scale(0.00048828125,-0.00048828125)">
   <path d="M 346,457 C 273,457 209,483 155,535 101,586 74,649 74,723 74,796 101,859 155,911 209,963 273,989 346,989 419,989 480,963 531,910 582,859 608,796 608,723 608,648 583,586 532,535 482,483 420,457 346,457 Z"/>
  </g>
  <g id="bullet-char-template-8211" transform="scale(0.00048828125,-0.00048828125)">
   <path d="M -4,459 L 1135,459 1135,606 -4,606 -4,459 Z"/>
  </g>
  <g id="bullet-char-template-61548" transform="scale(0.00048828125,-0.00048828125)">
   <path d="M 173,740 C 173,903 231,1043 346,1159 462,1274 601,1332 765,1332 928,1332 1067,1274 1183,1159 1299,1043 1357,903 1357,740 1357,577 1299,437 1183,322 1067,206 928,148 765,148 601,148 462,206 346,322 231,437 173,577 173,740 Z"/>
  </g>
 </defs>
 <g class="Page">
  <g class="com.sun.star.drawing.CustomShape">
   <g id="id3">
    <rect class="BoundingBox" stroke="none" fill="none" x="6632" y="3223" width="1145" height="890"/>
   </g>
  </g>
  <g class="Group">
   <g class="com.sun.star.drawing.ClosedBezierShape">
    <g id="id4">
     <rect class="BoundingBox" stroke="none" fill="none" x="7014" y="3227" width="380" height="840"/>
     <g>
      <defs>
       <linearGradient id="gradient1" x1="7014" y1="3646" x2="7393" y2="3646" gradientUnits="userSpaceOnUse">
        <stop offset="0" style="stop-color:rgb(128,128,128)"/>
        <stop offset="0.5" style="stop-color:rgb(153,153,153)"/>
        <stop offset="1" style="stop-color:rgb(128,128,128)"/>
       </linearGradient>
      </defs>
      <path style="fill:url(#gradient1)" d="M 7392,3394 L 7392,3402 7392,3402 7392,3405 7391,3410 7391,3414 7390,3419 7389,3423 7298,4065 7109,4065 7018,3423 7017,3419 7016,3414 7016,3410 7015,3405 7015,3402 7015,3402 7015,3394 7015,3383 7017,3372 7019,3361 7021,3351 7025,3341 7029,3330 7034,3321 7040,3311 7047,3302 7054,3293 7062,3284 7070,3277 7079,3269 7089,3262 7099,3256 7109,3250 7120,3245 7131,3241 7143,3237 7155,3234 7167,3231 7179,3229 7191,3228 7204,3228 7216,3228 7228,3229 7240,3231 7252,3234 7264,3237 7276,3241 7287,3245 7298,3250 7308,3256 7318,3262 7328,3269 7337,3277 7345,3284 7353,3293 7360,3302 7367,3311 7373,3321 7378,3330 7382,3341 7386,3351 7388,3361 7390,3372 7392,3383 7392,3394 Z"/>
     </g>
     <path fill="none" stroke="rgb(51,51,51)" d="M 7392,3394 C 7392,3397 7392,3399 7392,3402 L 7392,3402 7392,3405 C 7391,3411 7390,3417 7389,3423 L 7298,4065 7109,4065 7018,3423 C 7017,3417 7016,3411 7015,3405 L 7015,3402 7015,3402 C 7015,3399 7015,3397 7015,3394 7015,3365 7024,3336 7040,3311 7057,3286 7081,3265 7109,3250 7138,3236 7170,3228 7204,3228 7237,3228 7269,3236 7298,3250 7326,3265 7350,3286 7367,3311 7383,3336 7392,3365 7392,3394 Z"/>
    </g>
   </g>
   <g class="com.sun.star.drawing.CustomShape">
    <g id="id5">
     <rect class="BoundingBox" stroke="none" fill="none" x="7036" y="4072" width="335" height="45"/>
     <g>
      <defs>
       <linearGradient id="gradient2" x1="7153" y1="4007" x2="7254" y2="4181" gradientUnits="userSpaceOnUse">
        <stop offset="0" style="stop-color:rgb(102,102,102)"/>
        <stop offset="0.5" style="stop-color:rgb(178,178,178)"/>
        <stop offset="1" style="stop-color:rgb(102,102,102)"/>
       </linearGradient>
      </defs>
      <path style="fill:url(#gradient2)" d="M 7044,4073 L 7044,4073 7044,4073 7043,4073 7043,4073 7042,4073 7042,4073 7041,4074 7041,4074 7041,4074 7040,4074 7040,4074 7039,4075 7039,4075 7039,4075 7038,4076 7038,4076 7038,4077 7038,4077 7038,4077 7037,4078 7037,4078 7037,4079 7037,4079 7037,4080 7037,4080 7037,4108 7037,4108 7037,4108 7037,4109 7037,4109 7037,4110 7037,4110 7038,4111 7038,4111 7038,4112 7038,4112 7038,4112 7039,4113 7039,4113 7039,4113 7040,4114 7040,4114 7041,4114 7041,4114 7041,4114 7042,4115 7042,4115 7043,4115 7043,4115 7044,4115 7044,4115 7362,4115 7362,4115 7362,4115 7363,4115 7363,4115 7364,4115 7364,4115 7365,4114 7365,4114 7366,4114 7366,4114 7366,4114 7367,4113 7367,4113 7367,4113 7368,4112 7368,4112 7368,4112 7368,4111 7368,4111 7369,4110 7369,4110 7369,4109 7369,4109 7369,4108 7369,4108 7369,4080 7369,4080 7369,4080 7369,4080 7369,4079 7369,4079 7369,4078 7369,4078 7368,4077 7368,4077 7368,4077 7368,4076 7368,4076 7367,4075 7367,4075 7367,4075 7366,4074 7366,4074 7366,4074 7365,4074 7365,4074 7364,4073 7364,4073 7363,4073 7363,4073 7362,4073 7362,4073 7044,4073 Z"/>
     </g>
     <path fill="none" stroke="rgb(51,51,51)" d="M 7044,4073 L 7044,4073 C 7043,4073 7042,4073 7041,4074 7039,4075 7039,4075 7038,4077 7037,4078 7037,4079 7037,4080 L 7037,4108 7037,4108 C 7037,4109 7037,4110 7038,4112 7039,4113 7039,4113 7041,4114 7042,4115 7043,4115 7044,4115 L 7362,4115 7362,4115 C 7363,4115 7364,4115 7366,4114 7367,4113 7367,4113 7368,4112 7369,4110 7369,4109 7369,4108 L 7369,4080 7369,4080 7369,4080 C 7369,4079 7369,4078 7368,4077 7367,4075 7367,4075 7366,4074 7364,4073 7363,4073 7362,4073 L 7044,4073 Z"/>
    </g>
   </g>
  </g>
 </g>
</svg>