<?xml version="1.0" encoding="UTF-8"?>
<!DOCTYPE svg PUBLIC "-//W3C//DTD SVG 1.1//EN" "http://www.w3.org/Graphics/SVG/1.1/DTD/svg11.dtd">
<svg version="1.2" width="7.29mm" height="7.95mm" viewBox="7797 3582 729 795" preserveAspectRatio="xMidYMid" fill-rule="evenodd" stroke-width="28.222" stroke-linejoin="round" xmlns="http://www.w3.org/2000/svg" xmlns:ooo="http://xml.openoffice.org/svg/export" xmlns:xlink="http://www.w3.org/1999/xlink" xmlns:presentation="http://sun.com/xmlns/staroffice/presentation" xmlns:smil="http://www.w3.org/2001/SMIL20/" xmlns:anim="urn:oasis:names:tc:opendocument:xmlns:animation:1.0" xmlns:svg="urn:oasis:names:tc:opendocument:xmlns:svg-compatible:1.0" xml:space="preserve">
 <defs class="EmbeddedBulletChars">
  <g id="bullet-char-template-57356" transform="scale(0.00048828125,-0.00048828125)">
   <path d="M 580,1141 L 1163,571 580,0 -4,571 580,1141 Z"/>
  </g>
  <g id="bullet-char-template-57354" transform="scale(0.00048828125,-0.00048828125)">
   <path d="M 8,1128 L 1137,1128 1137,0 8,0 8,1128 Z"/>
  </g>
  <g id="bullet-char-template-10146" transform="scale(0.00048828125,-0.00048828125)">
   <path d="M 174,0 L 602,739 174,1481 1456,739 174,0 Z M 1358,739 L 309,1346 659,739 1358,739 Z"/>
  </g>
  <g id="bullet-char-template-10132" transform="scale(0.00048828125,-0.00048828125)">
   <path d="M 2015,739 L 1276,0 717,0 1260,543 174,543 174,936 1260,936 717,1481 1274,1481 2015,739 Z"/>
  </g>
  <g id="bullet-char-template-10007" transform="scale(0.00048828125,-0.00048828125)">
   <path d="M 0,-2 C -7,14 -16,27 -25,37 L 356,567 C 262,823 215,952 215,954 215,979 228,992 255,992 264,992 276,990 289,987 310,991 331,999 354,1012 L 381,999 492,748 772,1049 836,1024 860,1049 C 881,1039 901,1025 922,1006 886,937 835,863 770,784 769,783 710,716 594,584 L 774,223 C 774,196 753,168 711,139 L 727,119 C 717,90 699,76 672,76 641,76 570,178 457,381 L 164,-76 C 142,-110 111,-127 72,-127 30,-127 9,-110 8,-76 1,-67 -2,-52 -2,-32 -2,-23 -1,-13 0,-2 Z"/>
  </g>
  <g id="bullet-char-template-10004" transform="scale(0.00048828125,-0.00048828125)">
   <path d="M 285,-33 C 182,-33 111,30 74,156 52,228 41,333 41,471 41,549 55,616 82,672 116,743 169,778 240,778 293,778 328,747 346,684 L 369,508 C 377,444 397,411 428,410 L 1163,1116 C 1174,1127 1196,1133 1229,1133 1271,1133 1292,1118 1292,1087 L 1292,965 C 1292,929 1282,901 1262,881 L 442,47 C 390,-6 338,-33 285,-33 Z"/>
  </g>
  <g id="bullet-char-template-9679" transform="scale(0.00048828125,-0.00048828125)">
   <path d="M 813,0 C 632,0 489,54 383,161 276,268 223,411 223,592 223,773 276,916 383,1023 489,1130 632,1184 813,1184 992,1184 1136,1130 1245,1023 1353,916 1407,772 1407,592 1407,412 1353,268 1245,161 1136,54 992,0 813,0 Z"/>
  </g>
  <g id="bullet-char-template-8226" transform="scale(0.00048828125,-0.00048828125)">
   <path d="M 346,457 C 273,457 209,483 155,535 101,586 74,649 74,723 74,796 101,859 155,911 209,963 273,989 346,989 419,989 480,963 531,910 582,859 608,796 608,723 608,648 583,586 532,535 482,483 420,457 346,457 Z"/>
  </g>
  <g id="bullet-char-template-8211" transform="scale(0.00048828125,-0.00048828125)">
   <path d="M -4,459 L 1135,459 1135,606 -4,606 -4,459 Z"/>
  </g>
  <g id="bullet-char-template-61548" transform="scale(0.00048828125,-0.00048828125)">
   <path d="M 173,740 C 173,903 231,1043 346,1159 462,1274 601,1332 765,1332 928,1332 1067,1274 1183,1159 1299,1043 1357,903 1357,740 1357,577 1299,437 1183,322 1067,206 928,148 765,148 601,148 462,206 346,322 231,437 173,577 173,740 Z"/>
  </g>
 </defs>
 <g class="Page">
  <g class="Group">
   <g class="com.sun.star.drawing.ClosedBezierShape">
    <g id="id3">
     <rect class="BoundingBox" stroke="none" fill="none" x="7797" y="3582" width="664" height="744"/>
     <g>
      <defs>
       <linearGradient id="gradient1" x1="7797" y1="3953" x2="8460" y2="3953" gradientUnits="userSpaceOnUse">
        <stop offset="0" style="stop-color:rgb(153,153,153)"/>
        <stop offset="1" style="stop-color:rgb(128,128,128)"/>
       </linearGradient>
      </defs>
      <path style="fill:url(#gradient1)" d="M 8134,3649 L 8134,3649 8135,3650 8135,3651 8137,3653 8138,3654 8138,3655 8139,3656 8139,3656 8139,3656 8140,3659 8141,3661 8143,3663 8144,3665 8145,3667 8149,3675 8459,4324 8256,4324 7845,3888 7843,3886 7841,3885 7838,3882 7832,3875 7830,3872 7830,3872 7830,3871 7829,3870 7828,3869 7826,3867 7825,3865 7819,3856 7814,3846 7810,3836 7806,3826 7803,3816 7800,3805 7799,3794 7798,3783 7798,3772 7799,3761 7801,3749 7803,3738 7806,3727 7810,3716 7815,3705 7820,3694 7826,3683 7833,3673 7840,3663 7848,3654 7857,3645 7866,3636 7875,3628 7885,3621 7895,3614 7906,3608 7917,3603 7928,3598 7940,3594 7951,3590 7963,3587 7975,3585 7987,3584 7999,3583 8010,3583 8022,3584 8033,3586 8044,3589 8055,3592 8066,3596 8076,3601 8086,3606 8095,3612 8104,3618 8112,3625 8120,3632 8127,3640 8134,3649 Z"/>
     </g>
     <path fill="none" stroke="rgb(51,51,51)" d="M 8134,3649 C 8136,3651 8137,3654 8139,3656 L 8139,3656 8140,3659 C 8144,3664 8146,3669 8149,3675 L 8459,4324 8256,4324 7845,3888 C 7840,3884 7836,3879 7832,3875 L 7830,3872 7830,3872 C 7829,3870 7827,3868 7825,3865 7809,3841 7799,3813 7798,3783 7797,3753 7805,3723 7820,3694 7835,3665 7858,3640 7885,3621 7912,3602 7943,3590 7975,3585 8007,3580 8038,3584 8066,3596 8094,3608 8117,3625 8134,3649 Z"/>
    </g>
   </g>
   <g class="com.sun.star.drawing.CustomShape">
    <g id="id4">
     <rect class="BoundingBox" stroke="none" fill="none" x="8191" y="4332" width="335" height="45"/>
     <g>
      <defs>
       <linearGradient id="gradient2" x1="8192" y1="4354" x2="8524" y2="4354" gradientUnits="userSpaceOnUse">
        <stop offset="0" style="stop-color:rgb(153,153,153)"/>
        <stop offset="1" style="stop-color:rgb(128,128,128)"/>
       </linearGradient>
      </defs>
      <path style="fill:url(#gradient2)" d="M 8199,4333 L 8199,4333 8199,4333 8198,4333 8198,4333 8197,4333 8197,4333 8196,4334 8196,4334 8196,4334 8195,4334 8195,4334 8194,4335 8194,4335 8194,4335 8193,4336 8193,4336 8193,4337 8193,4337 8193,4337 8192,4338 8192,4338 8192,4339 8192,4339 8192,4340 8192,4340 8192,4368 8192,4368 8192,4368 8192,4369 8192,4369 8192,4370 8192,4370 8193,4371 8193,4371 8193,4372 8193,4372 8193,4372 8194,4373 8194,4373 8194,4373 8195,4374 8195,4374 8196,4374 8196,4374 8196,4374 8197,4375 8197,4375 8198,4375 8198,4375 8199,4375 8199,4375 8517,4375 8517,4375 8517,4375 8518,4375 8518,4375 8519,4375 8519,4375 8520,4374 8520,4374 8521,4374 8521,4374 8521,4374 8522,4373 8522,4373 8522,4373 8523,4372 8523,4372 8523,4372 8523,4371 8523,4371 8524,4370 8524,4370 8524,4369 8524,4369 8524,4368 8524,4368 8524,4340 8524,4340 8524,4340 8524,4340 8524,4339 8524,4339 8524,4338 8524,4338 8523,4337 8523,4337 8523,4337 8523,4336 8523,4336 8522,4335 8522,4335 8522,4335 8521,4334 8521,4334 8521,4334 8520,4334 8520,4334 8519,4333 8519,4333 8518,4333 8518,4333 8517,4333 8517,4333 8199,4333 Z"/>
     </g>
     <path fill="none" stroke="rgb(51,51,51)" d="M 8199,4333 L 8199,4333 C 8198,4333 8197,4333 8196,4334 8194,4335 8194,4335 8193,4337 8192,4338 8192,4339 8192,4340 L 8192,4368 8192,4368 C 8192,4369 8192,4370 8193,4372 8194,4373 8194,4373 8196,4374 8197,4375 8198,4375 8199,4375 L 8517,4375 8517,4375 C 8518,4375 8519,4375 8521,4374 8522,4373 8522,4373 8523,4372 8524,4370 8524,4369 8524,4368 L 8524,4340 8524,4340 8524,4340 C 8524,4339 8524,4338 8523,4337 8522,4335 8522,4335 8521,4334 8519,4333 8518,4333 8517,4333 L 8199,4333 Z"/>
    </g>
   </g>
  </g>
 </g>
</svg>