<?xml version="1.0" encoding="UTF-8"?>
<!DOCTYPE svg PUBLIC "-//W3C//DTD SVG 1.1//EN" "http://www.w3.org/Graphics/SVG/1.1/DTD/svg11.dtd">
<svg version="1.2" width="3.8mm" height="8.9mm" viewBox="7014 3522 380 890" preserveAspectRatio="xMidYMid" fill-rule="evenodd" stroke-width="28.222" stroke-linejoin="round" xmlns="http://www.w3.org/2000/svg" xmlns:ooo="http://xml.openoffice.org/svg/export" xmlns:xlink="http://www.w3.org/1999/xlink" xmlns:presentation="http://sun.com/xmlns/staroffice/presentation" xmlns:smil="http://www.w3.org/2001/SMIL20/" xmlns:anim="urn:oasis:names:tc:opendocument:xmlns:animation:1.0" xmlns:svg="urn:oasis:names:tc:opendocument:xmlns:svg-compatible:1.0" xml:space="preserve">
 <defs class="EmbeddedBulletChars">
  <g id="bullet-char-template-57356" transform="scale(0.00048828125,-0.00048828125)">
   <path d="M 580,1141 L 1163,571 580,0 -4,571 580,1141 Z"/>
  </g>
  <g id="bullet-char-template-57354" transform="scale(0.00048828125,-0.00048828125)">
   <path d="M 8,1128 L 1137,1128 1137,0 8,0 8,1128 Z"/>
  </g>
  <g id="bullet-char-template-10146" transform="scale(0.00048828125,-0.00048828125)">
   <path d="M 174,0 L 602,739 174,1481 1456,739 174,0 Z M 1358,739 L 309,1346 659,739 1358,739 Z"/>
  </g>
  <g id="bullet-char-template-10132" transform="scale(0.00048828125,-0.00048828125)">
   <path d="M 2015,739 L 1276,0 717,0 1260,543 174,543 174,936 1260,936 717,1481 1274,1481 2015,739 Z"/>
  </g>
  <g id="bullet-char-template-10007" transform="scale(0.00048828125,-0.00048828125)">
   <path d="M 0,-2 C -7,14 -16,27 -25,37 L 356,567 C 262,823 215,952 215,954 215,979 228,992 255,992 264,992 276,990 289,987 310,991 331,999 354,1012 L 381,999 492,748 772,1049 836,1024 860,1049 C 881,1039 901,1025 922,1006 886,937 835,863 770,784 769,783 710,716 594,584 L 774,223 C 774,196 753,168 711,139 L 727,119 C 717,90 699,76 672,76 641,76 570,178 457,381 L 164,-76 C 142,-110 111,-127 72,-127 30,-127 9,-110 8,-76 1,-67 -2,-52 -2,-32 -2,-23 -1,-13 0,-2 Z"/>
  </g>
  <g id="bullet-char-template-10004" transform="scale(0.00048828125,-0.00048828125)">
   <path d="M 285,-33 C 182,-33 111,30 74,156 52,228 41,333 41,471 41,549 55,616 82,672 116,743 169,778 240,778 293,778 328,747 346,684 L 369,508 C 377,444 397,411 428,410 L 1163,1116 C 1174,1127 1196,1133 1229,1133 1271,1133 1292,1118 1292,1087 L 1292,965 C 1292,929 1282,901 1262,881 L 442,47 C 390,-6 338,-33 285,-33 Z"/>
  </g>
  <g id="bullet-char-template-9679" transform="scale(0.00048828125,-0.00048828125)">
   <path d="M 813,0 C 632,0 489,54 383,161 276,268 223,411 223,592 223,773 276,916 383,1023 489,1130 632,1184 813,1184 992,1184 1136,1130 1245,1023 1353,916 1407,772 1407,592 1407,412 1353,268 1245,161 1136,54 992,0 813,0 Z"/>
  </g>
  <g id="bullet-char-template-8226" transform="scale(0.00048828125,-0.00048828125)">
   <path d="M 346,457 C 273,457 209,483 155,535 101,586 74,649 74,723 74,796 101,859 155,911 209,963 273,989 346,989 419,989 480,963 531,910 582,859 608,796 608,723 608,648 583,586 532,535 482,483 420,457 346,457 Z"/>
  </g>
  <g id="bullet-char-template-8211" transform="scale(0.00048828125,-0.00048828125)">
   <path d="M -4,459 L 1135,459 1135,606 -4,606 -4,459 Z"/>
  </g>
  <g id="bullet-char-template-61548" transform="scale(0.00048828125,-0.00048828125)">
   <path d="M 173,740 C 173,903 231,1043 346,1159 462,1274 601,1332 765,1332 928,1332 1067,1274 1183,1159 1299,1043 1357,903 1357,740 1357,577 1299,437 1183,322 1067,206 928,148 765,148 601,148 462,206 346,322 231,437 173,577 173,740 Z"/>
  </g>
 </defs>
 <g class="Page">
  <g class="Group">
   <g class="com.sun.star.drawing.ClosedBezierShape">
    <g id="id3">
     <rect class="BoundingBox" stroke="none" fill="none" x="7014" y="3522" width="380" height="840"/>
     <g>
      <defs>
       <linearGradient id="gradient1" x1="7014" y1="3941" x2="7393" y2="3941" gradientUnits="userSpaceOnUse">
        <stop offset="0" style="stop-color:rgb(128,128,128)"/>
        <stop offset="0.5" style="stop-color:rgb(153,153,153)"/>
        <stop offset="1" style="stop-color:rgb(128,128,128)"/>
       </linearGradient>
      </defs>
      <path style="fill:url(#gradient1)" d="M 7392,3689 L 7392,3697 7392,3697 7392,3700 7391,3705 7391,3709 7390,3714 7389,3718 7298,4360 7109,4360 7018,3718 7017,3714 7016,3709 7016,3705 7015,3700 7015,3697 7015,3697 7015,3689 7015,3678 7017,3667 7019,3656 7021,3646 7025,3636 7029,3625 7034,3616 7040,3606 7047,3597 7054,3588 7062,3579 7070,3572 7079,3564 7089,3557 7099,3551 7109,3545 7120,3540 7131,3536 7143,3532 7155,3529 7167,3526 7179,3524 7191,3523 7204,3523 7216,3523 7228,3524 7240,3526 7252,3529 7264,3532 7276,3536 7287,3540 7298,3545 7308,3551 7318,3557 7328,3564 7337,3572 7345,3579 7353,3588 7360,3597 7367,3606 7373,3616 7378,3625 7382,3636 7386,3646 7388,3656 7390,3667 7392,3678 7392,3689 Z"/>
     </g>
     <path fill="none" stroke="rgb(51,51,51)" d="M 7392,3689 C 7392,3692 7392,3694 7392,3697 L 7392,3697 7392,3700 C 7391,3706 7390,3712 7389,3718 L 7298,4360 7109,4360 7018,3718 C 7017,3712 7016,3706 7015,3700 L 7015,3697 7015,3697 C 7015,3694 7015,3692 7015,3689 7015,3660 7024,3631 7040,3606 7057,3581 7081,3560 7109,3545 7138,3531 7170,3523 7204,3523 7237,3523 7269,3531 7298,3545 7326,3560 7350,3581 7367,3606 7383,3631 7392,3660 7392,3689 Z"/>
    </g>
   </g>
   <g class="com.sun.star.drawing.CustomShape">
    <g id="id4">
     <rect class="BoundingBox" stroke="none" fill="none" x="7036" y="4367" width="335" height="45"/>
     <g>
      <defs>
       <linearGradient id="gradient2" x1="7153" y1="4302" x2="7254" y2="4476" gradientUnits="userSpaceOnUse">
        <stop offset="0" style="stop-color:rgb(102,102,102)"/>
        <stop offset="0.5" style="stop-color:rgb(178,178,178)"/>
        <stop offset="1" style="stop-color:rgb(102,102,102)"/>
       </linearGradient>
      </defs>
      <path style="fill:url(#gradient2)" d="M 7044,4368 L 7044,4368 7044,4368 7043,4368 7043,4368 7042,4368 7042,4368 7041,4369 7041,4369 7041,4369 7040,4369 7040,4369 7039,4370 7039,4370 7039,4370 7038,4371 7038,4371 7038,4372 7038,4372 7038,4372 7037,4373 7037,4373 7037,4374 7037,4374 7037,4375 7037,4375 7037,4403 7037,4403 7037,4403 7037,4404 7037,4404 7037,4405 7037,4405 7038,4406 7038,4406 7038,4407 7038,4407 7038,4407 7039,4408 7039,4408 7039,4408 7040,4409 7040,4409 7041,4409 7041,4409 7041,4409 7042,4410 7042,4410 7043,4410 7043,4410 7044,4410 7044,4410 7362,4410 7362,4410 7362,4410 7363,4410 7363,4410 7364,4410 7364,4410 7365,4409 7365,4409 7366,4409 7366,4409 7366,4409 7367,4408 7367,4408 7367,4408 7368,4407 7368,4407 7368,4407 7368,4406 7368,4406 7369,4405 7369,4405 7369,4404 7369,4404 7369,4403 7369,4403 7369,4375 7369,4375 7369,4375 7369,4375 7369,4374 7369,4374 7369,4373 7369,4373 7368,4372 7368,4372 7368,4372 7368,4371 7368,4371 7367,4370 7367,4370 7367,4370 7366,4369 7366,4369 7366,4369 7365,4369 7365,4369 7364,4368 7364,4368 7363,4368 7363,4368 7362,4368 7362,4368 7044,4368 Z"/>
     </g>
     <path fill="none" stroke="rgb(51,51,51)" d="M 7044,4368 L 7044,4368 C 7043,4368 7042,4368 7041,4369 7039,4370 7039,4370 7038,4372 7037,4373 7037,4374 7037,4375 L 7037,4403 7037,4403 C 7037,4404 7037,4405 7038,4407 7039,4408 7039,4408 7041,4409 7042,4410 7043,4410 7044,4410 L 7362,4410 7362,4410 C 7363,4410 7364,4410 7366,4409 7367,4408 7367,4408 7368,4407 7369,4405 7369,4404 7369,4403 L 7369,4375 7369,4375 7369,4375 C 7369,4374 7369,4373 7368,4372 7367,4370 7367,4370 7366,4369 7364,4368 7363,4368 7362,4368 L 7044,4368 Z"/>
    </g>
   </g>
  </g>
 </g>
</svg>