<?xml version="1.0" encoding="UTF-8"?>
<!DOCTYPE svg PUBLIC "-//W3C//DTD SVG 1.1//EN" "http://www.w3.org/Graphics/SVG/1.1/DTD/svg11.dtd">
<svg version="1.2" width="11.45mm" height="8.93mm" viewBox="6632 3223 1145 893" preserveAspectRatio="xMidYMid" fill-rule="evenodd" stroke-width="28.222" stroke-linejoin="round" xmlns="http://www.w3.org/2000/svg" xmlns:ooo="http://xml.openoffice.org/svg/export" xmlns:xlink="http://www.w3.org/1999/xlink" xmlns:presentation="http://sun.com/xmlns/staroffice/presentation" xmlns:smil="http://www.w3.org/2001/SMIL20/" xmlns:anim="urn:oasis:names:tc:opendocument:xmlns:animation:1.0" xmlns:svg="urn:oasis:names:tc:opendocument:xmlns:svg-compatible:1.0" xml:space="preserve">
 <defs class="EmbeddedBulletChars">
  <g id="bullet-char-template-57356" transform="scale(0.00048828125,-0.00048828125)">
   <path d="M 580,1141 L 1163,571 580,0 -4,571 580,1141 Z"/>
  </g>
  <g id="bullet-char-template-57354" transform="scale(0.00048828125,-0.00048828125)">
   <path d="M 8,1128 L 1137,1128 1137,0 8,0 8,1128 Z"/>
  </g>
  <g id="bullet-char-template-10146" transform="scale(0.00048828125,-0.00048828125)">
   <path d="M 174,0 L 602,739 174,1481 1456,739 174,0 Z M 1358,739 L 309,1346 659,739 1358,739 Z"/>
  </g>
  <g id="bullet-char-template-10132" transform="scale(0.00048828125,-0.00048828125)">
   <path d="M 2015,739 L 1276,0 717,0 1260,543 174,543 174,936 1260,936 717,1481 1274,1481 2015,739 Z"/>
  </g>
  <g id="bullet-char-template-10007" transform="scale(0.00048828125,-0.00048828125)">
   <path d="M 0,-2 C -7,14 -16,27 -25,37 L 356,567 C 262,823 215,952 215,954 215,979 228,992 255,992 264,992 276,990 289,987 310,991 331,999 354,1012 L 381,999 492,748 772,1049 836,1024 860,1049 C 881,1039 901,1025 922,1006 886,937 835,863 770,784 769,783 710,716 594,584 L 774,223 C 774,196 753,168 711,139 L 727,119 C 717,90 699,76 672,76 641,76 570,178 457,381 L 164,-76 C 142,-110 111,-127 72,-127 30,-127 9,-110 8,-76 1,-67 -2,-52 -2,-32 -2,-23 -1,-13 0,-2 Z"/>
  </g>
  <g id="bullet-char-template-10004" transform="scale(0.00048828125,-0.00048828125)">
   <path d="M 285,-33 C 182,-33 111,30 74,156 52,228 41,333 41,471 41,549 55,616 82,672 116,743 169,778 240,778 293,778 328,747 346,684 L 369,508 C 377,444 397,411 428,410 L 1163,1116 C 1174,1127 1196,1133 1229,1133 1271,1133 1292,1118 1292,1087 L 1292,965 C 1292,929 1282,901 1262,881 L 442,47 C 390,-6 338,-33 285,-33 Z"/>
  </g>
  <g id="bullet-char-template-9679" transform="scale(0.00048828125,-0.00048828125)">
   <path d="M 813,0 C 632,0 489,54 383,161 276,268 223,411 223,592 223,773 276,916 383,1023 489,1130 632,1184 813,1184 992,1184 1136,1130 1245,1023 1353,916 1407,772 1407,592 1407,412 1353,268 1245,161 1136,54 992,0 813,0 Z"/>
  </g>
  <g id="bullet-char-template-8226" transform="scale(0.00048828125,-0.00048828125)">
   <path d="M 346,457 C 273,457 209,483 155,535 101,586 74,649 74,723 74,796 101,859 155,911 209,963 273,989 346,989 419,989 480,963 531,910 582,859 608,796 608,723 608,648 583,586 532,535 482,483 420,457 346,457 Z"/>
  </g>
  <g id="bullet-char-template-8211" transform="scale(0.00048828125,-0.00048828125)">
   <path d="M -4,459 L 1135,459 1135,606 -4,606 -4,459 Z"/>
  </g>
  <g id="bullet-char-template-61548" transform="scale(0.00048828125,-0.00048828125)">
   <path d="M 173,740 C 173,903 231,1043 346,1159 462,1274 601,1332 765,1332 928,1332 1067,1274 1183,1159 1299,1043 1357,903 1357,740 1357,577 1299,437 1183,322 1067,206 928,148 765,148 601,148 462,206 346,322 231,437 173,577 173,740 Z"/>
  </g>
 </defs>
 <g class="Page">
  <g class="com.sun.star.drawing.CustomShape">
   <g id="id3">
    <rect class="BoundingBox" stroke="none" fill="none" x="6632" y="3223" width="1145" height="890"/>
   </g>
  </g>
  <g class="Group">
   <g class="com.sun.star.drawing.ClosedBezierShape">
    <g id="id4">
     <rect class="BoundingBox" stroke="none" fill="none" x="6643" y="3321" width="664" height="744"/>
     <g>
      <defs>
       <linearGradient id="gradient1" x1="6643" y1="3692" x2="7306" y2="3692" gradientUnits="userSpaceOnUse">
        <stop offset="0" style="stop-color:rgb(153,153,153)"/>
        <stop offset="1" style="stop-color:rgb(128,128,128)"/>
       </linearGradient>
      </defs>
      <path style="fill:url(#gradient1)" d="M 6980,3388 L 6980,3388 6981,3389 6981,3390 6983,3392 6984,3393 6984,3394 6985,3395 6985,3395 6985,3395 6986,3398 6987,3400 6989,3402 6990,3404 6991,3406 6995,3414 7305,4063 7102,4063 6691,3627 6689,3625 6687,3624 6684,3621 6678,3614 6676,3611 6676,3611 6676,3610 6675,3609 6674,3608 6672,3606 6671,3604 6665,3595 6660,3585 6656,3575 6652,3565 6649,3555 6646,3544 6645,3533 6644,3522 6644,3511 6645,3500 6647,3488 6649,3477 6652,3466 6656,3455 6661,3444 6666,3433 6672,3422 6679,3412 6686,3402 6694,3393 6703,3384 6712,3375 6721,3367 6731,3360 6741,3353 6752,3347 6763,3342 6774,3337 6786,3333 6797,3329 6809,3326 6821,3324 6833,3323 6845,3322 6856,3322 6868,3323 6879,3325 6890,3328 6901,3331 6912,3335 6922,3340 6932,3345 6941,3351 6950,3357 6958,3364 6966,3371 6973,3379 6980,3388 Z"/>
     </g>
     <path fill="none" stroke="rgb(51,51,51)" d="M 6980,3388 C 6982,3390 6983,3393 6985,3395 L 6985,3395 6986,3398 C 6990,3403 6992,3408 6995,3414 L 7305,4063 7102,4063 6691,3627 C 6686,3623 6682,3618 6678,3614 L 6676,3611 6676,3611 C 6675,3609 6673,3607 6671,3604 6655,3580 6645,3552 6644,3522 6643,3492 6651,3462 6666,3433 6681,3404 6704,3379 6731,3360 6758,3341 6789,3329 6821,3324 6853,3319 6884,3323 6912,3335 6940,3347 6963,3364 6980,3388 Z"/>
    </g>
   </g>
   <g class="com.sun.star.drawing.CustomShape">
    <g id="id5">
     <rect class="BoundingBox" stroke="none" fill="none" x="7037" y="4071" width="335" height="45"/>
     <g>
      <defs>
       <linearGradient id="gradient2" x1="7038" y1="4093" x2="7370" y2="4093" gradientUnits="userSpaceOnUse">
        <stop offset="0" style="stop-color:rgb(153,153,153)"/>
        <stop offset="1" style="stop-color:rgb(128,128,128)"/>
       </linearGradient>
      </defs>
      <path style="fill:url(#gradient2)" d="M 7045,4072 L 7045,4072 7045,4072 7044,4072 7044,4072 7043,4072 7043,4072 7042,4073 7042,4073 7042,4073 7041,4073 7041,4073 7040,4074 7040,4074 7040,4074 7039,4075 7039,4075 7039,4076 7039,4076 7039,4076 7038,4077 7038,4077 7038,4078 7038,4078 7038,4079 7038,4079 7038,4107 7038,4107 7038,4107 7038,4108 7038,4108 7038,4109 7038,4109 7039,4110 7039,4110 7039,4111 7039,4111 7039,4111 7040,4112 7040,4112 7040,4112 7041,4113 7041,4113 7042,4113 7042,4113 7042,4113 7043,4114 7043,4114 7044,4114 7044,4114 7045,4114 7045,4114 7363,4114 7363,4114 7363,4114 7364,4114 7364,4114 7365,4114 7365,4114 7366,4113 7366,4113 7367,4113 7367,4113 7367,4113 7368,4112 7368,4112 7368,4112 7369,4111 7369,4111 7369,4111 7369,4110 7369,4110 7370,4109 7370,4109 7370,4108 7370,4108 7370,4107 7370,4107 7370,4079 7370,4079 7370,4079 7370,4079 7370,4078 7370,4078 7370,4077 7370,4077 7369,4076 7369,4076 7369,4076 7369,4075 7369,4075 7368,4074 7368,4074 7368,4074 7367,4073 7367,4073 7367,4073 7366,4073 7366,4073 7365,4072 7365,4072 7364,4072 7364,4072 7363,4072 7363,4072 7045,4072 Z"/>
     </g>
     <path fill="none" stroke="rgb(51,51,51)" d="M 7045,4072 L 7045,4072 C 7044,4072 7043,4072 7042,4073 7040,4074 7040,4074 7039,4076 7038,4077 7038,4078 7038,4079 L 7038,4107 7038,4107 C 7038,4108 7038,4109 7039,4111 7040,4112 7040,4112 7042,4113 7043,4114 7044,4114 7045,4114 L 7363,4114 7363,4114 C 7364,4114 7365,4114 7367,4113 7368,4112 7368,4112 7369,4111 7370,4109 7370,4108 7370,4107 L 7370,4079 7370,4079 7370,4079 C 7370,4078 7370,4077 7369,4076 7368,4074 7368,4074 7367,4073 7365,4072 7364,4072 7363,4072 L 7045,4072 Z"/>
    </g>
   </g>
  </g>
 </g>
</svg>