<?xml version="1.0" encoding="UTF-8"?>
<!DOCTYPE svg PUBLIC "-//W3C//DTD SVG 1.1//EN" "http://www.w3.org/Graphics/SVG/1.1/DTD/svg11.dtd">
<svg version="1.2" width="15.29mm" height="47.89mm" viewBox="15756 22742 1529 4789" preserveAspectRatio="xMidYMid" fill-rule="evenodd" stroke-width="28.222" stroke-linejoin="round" xmlns="http://www.w3.org/2000/svg" xmlns:ooo="http://xml.openoffice.org/svg/export" xmlns:xlink="http://www.w3.org/1999/xlink" xmlns:presentation="http://sun.com/xmlns/staroffice/presentation" xmlns:smil="http://www.w3.org/2001/SMIL20/" xmlns:anim="urn:oasis:names:tc:opendocument:xmlns:animation:1.0" xmlns:svg="urn:oasis:names:tc:opendocument:xmlns:svg-compatible:1.0" xml:space="preserve">
 <defs class="EmbeddedBulletChars">
  <g id="bullet-char-template-57356" transform="scale(0.00048828125,-0.00048828125)">
   <path d="M 580,1141 L 1163,571 580,0 -4,571 580,1141 Z"/>
  </g>
  <g id="bullet-char-template-57354" transform="scale(0.00048828125,-0.00048828125)">
   <path d="M 8,1128 L 1137,1128 1137,0 8,0 8,1128 Z"/>
  </g>
  <g id="bullet-char-template-10146" transform="scale(0.00048828125,-0.00048828125)">
   <path d="M 174,0 L 602,739 174,1481 1456,739 174,0 Z M 1358,739 L 309,1346 659,739 1358,739 Z"/>
  </g>
  <g id="bullet-char-template-10132" transform="scale(0.00048828125,-0.00048828125)">
   <path d="M 2015,739 L 1276,0 717,0 1260,543 174,543 174,936 1260,936 717,1481 1274,1481 2015,739 Z"/>
  </g>
  <g id="bullet-char-template-10007" transform="scale(0.00048828125,-0.00048828125)">
   <path d="M 0,-2 C -7,14 -16,27 -25,37 L 356,567 C 262,823 215,952 215,954 215,979 228,992 255,992 264,992 276,990 289,987 310,991 331,999 354,1012 L 381,999 492,748 772,1049 836,1024 860,1049 C 881,1039 901,1025 922,1006 886,937 835,863 770,784 769,783 710,716 594,584 L 774,223 C 774,196 753,168 711,139 L 727,119 C 717,90 699,76 672,76 641,76 570,178 457,381 L 164,-76 C 142,-110 111,-127 72,-127 30,-127 9,-110 8,-76 1,-67 -2,-52 -2,-32 -2,-23 -1,-13 0,-2 Z"/>
  </g>
  <g id="bullet-char-template-10004" transform="scale(0.00048828125,-0.00048828125)">
   <path d="M 285,-33 C 182,-33 111,30 74,156 52,228 41,333 41,471 41,549 55,616 82,672 116,743 169,778 240,778 293,778 328,747 346,684 L 369,508 C 377,444 397,411 428,410 L 1163,1116 C 1174,1127 1196,1133 1229,1133 1271,1133 1292,1118 1292,1087 L 1292,965 C 1292,929 1282,901 1262,881 L 442,47 C 390,-6 338,-33 285,-33 Z"/>
  </g>
  <g id="bullet-char-template-9679" transform="scale(0.00048828125,-0.00048828125)">
   <path d="M 813,0 C 632,0 489,54 383,161 276,268 223,411 223,592 223,773 276,916 383,1023 489,1130 632,1184 813,1184 992,1184 1136,1130 1245,1023 1353,916 1407,772 1407,592 1407,412 1353,268 1245,161 1136,54 992,0 813,0 Z"/>
  </g>
  <g id="bullet-char-template-8226" transform="scale(0.00048828125,-0.00048828125)">
   <path d="M 346,457 C 273,457 209,483 155,535 101,586 74,649 74,723 74,796 101,859 155,911 209,963 273,989 346,989 419,989 480,963 531,910 582,859 608,796 608,723 608,648 583,586 532,535 482,483 420,457 346,457 Z"/>
  </g>
  <g id="bullet-char-template-8211" transform="scale(0.00048828125,-0.00048828125)">
   <path d="M -4,459 L 1135,459 1135,606 -4,606 -4,459 Z"/>
  </g>
  <g id="bullet-char-template-61548" transform="scale(0.00048828125,-0.00048828125)">
   <path d="M 173,740 C 173,903 231,1043 346,1159 462,1274 601,1332 765,1332 928,1332 1067,1274 1183,1159 1299,1043 1357,903 1357,740 1357,577 1299,437 1183,322 1067,206 928,148 765,148 601,148 462,206 346,322 231,437 173,577 173,740 Z"/>
  </g>
 </defs>
 <g class="Page">
  <g class="Group">
   <g class="Group">
    <g class="com.sun.star.drawing.ClosedBezierShape">
     <g id="id3">
      <rect class="BoundingBox" stroke="none" fill="none" x="15811" y="22755" width="966" height="4776"/>
      <path fill="rgb(47,79,79)" stroke="none" d="M 16442,23093 C 16442,23067 16435,23041 16422,23019 16409,22997 16390,22978 16368,22965 16346,22952 16320,22945 16294,22945 16268,22945 16242,22952 16220,22965 16198,22978 16179,22997 16166,23019 16153,23041 16146,23067 16146,23093 16146,23119 16153,23145 16166,23167 16179,23189 16198,23208 16220,23221 16242,23234 16268,23241 16294,23241 16320,23241 16346,23234 16368,23221 16390,23208 16409,23189 16422,23167 16435,23145 16442,23119 16442,23093 Z M 16442,27193 C 16442,27167 16435,27141 16422,27119 16409,27097 16390,27078 16368,27065 16346,27052 16320,27045 16294,27045 16268,27045 16242,27052 16220,27065 16198,27078 16179,27097 16166,27119 16153,27141 16146,27167 16146,27193 16146,27219 16153,27245 16166,27267 16179,27289 16198,27308 16220,27321 16242,27334 16268,27341 16294,27341 16320,27341 16346,27334 16368,27321 16390,27308 16409,27289 16422,27267 16435,27245 16442,27219 16442,27193 Z M 15811,27530 L 15811,22755 16776,22755 16776,27530 15811,27530 Z"/>
     </g>
    </g>
    <g class="com.sun.star.drawing.ClosedBezierShape">
     <g id="id4">
      <rect class="BoundingBox" stroke="none" fill="none" x="15798" y="22742" width="966" height="4776"/>
      <g>
       <defs>
        <linearGradient id="gradient1" x1="15797" y1="25129" x2="16764" y2="25129" gradientUnits="userSpaceOnUse">
         <stop offset="0" style="stop-color:rgb(169,169,169)"/>
         <stop offset="1" style="stop-color:rgb(105,105,105)"/>
        </linearGradient>
       </defs>
       <path style="fill:url(#gradient1)" d="M 16429,23080 L 16429,23070 16428,23061 16426,23051 16424,23042 16421,23032 16418,23023 16414,23014 16409,23006 16404,22998 16398,22990 16392,22983 16385,22976 16378,22969 16371,22963 16363,22957 16355,22952 16347,22947 16338,22943 16329,22940 16320,22937 16310,22935 16300,22933 16291,22932 16281,22932 16271,22932 16262,22933 16252,22935 16243,22937 16233,22940 16224,22943 16215,22947 16207,22952 16199,22957 16191,22963 16184,22969 16177,22976 16170,22983 16164,22990 16158,22998 16153,23006 16148,23014 16144,23023 16141,23032 16138,23042 16136,23051 16134,23061 16133,23070 16133,23080 16133,23090 16134,23099 16136,23109 16138,23119 16141,23128 16144,23137 16148,23146 16153,23154 16158,23162 16164,23170 16170,23177 16177,23184 16184,23191 16191,23197 16199,23203 16207,23208 16215,23213 16224,23217 16233,23220 16243,23223 16252,23225 16262,23227 16271,23228 16281,23228 16291,23228 16300,23227 16310,23225 16320,23223 16329,23220 16338,23217 16347,23213 16355,23208 16363,23203 16371,23197 16378,23191 16385,23184 16392,23177 16398,23170 16404,23162 16409,23154 16414,23146 16418,23137 16421,23128 16424,23119 16426,23109 16428,23099 16429,23090 16429,23080 Z M 16429,27180 L 16429,27170 16428,27161 16426,27151 16424,27142 16421,27132 16418,27123 16414,27114 16409,27106 16404,27098 16398,27090 16392,27083 16385,27076 16378,27069 16371,27063 16363,27057 16355,27052 16347,27047 16338,27043 16329,27040 16320,27037 16310,27035 16300,27033 16291,27032 16281,27032 16271,27032 16262,27033 16252,27035 16243,27037 16233,27040 16224,27043 16215,27047 16207,27052 16199,27057 16191,27063 16184,27069 16177,27076 16170,27083 16164,27090 16158,27098 16153,27106 16148,27114 16144,27123 16141,27132 16138,27142 16136,27151 16134,27161 16133,27170 16133,27180 16133,27190 16134,27199 16136,27209 16138,27219 16141,27228 16144,27237 16148,27246 16153,27254 16158,27262 16164,27270 16170,27277 16177,27284 16184,27291 16191,27297 16199,27303 16207,27308 16215,27313 16224,27317 16233,27320 16243,27323 16252,27325 16262,27327 16271,27328 16281,27328 16291,27328 16300,27327 16310,27325 16320,27323 16329,27320 16338,27317 16347,27313 16355,27308 16363,27303 16371,27297 16378,27291 16385,27284 16392,27277 16398,27270 16404,27262 16409,27254 16414,27246 16418,27237 16421,27228 16424,27219 16426,27209 16428,27199 16429,27190 16429,27180 Z M 15798,27517 L 15798,22742 16763,22742 16763,27517 15798,27517 Z"/>
      </g>
     </g>
    </g>
   </g>
   <g class="Group">
    <g class="Group">
     <g class="com.sun.star.drawing.ClosedBezierShape">
      <g id="id5">
       <rect class="BoundingBox" stroke="none" fill="none" x="15773" y="23377" width="711" height="399"/>
       <path fill="rgb(112,128,144)" stroke="none" d="M 16483,23774 C 16478,23775 16474,23775 16469,23775 L 15908,23775 C 15884,23775 15861,23768 15840,23755 15820,23741 15803,23722 15791,23699 15779,23676 15773,23650 15773,23623 L 15773,23529 C 15773,23502 15779,23476 15791,23453 15803,23430 15820,23411 15840,23397 15861,23384 15884,23377 15908,23377 L 16469,23377 C 16474,23377 16478,23377 16483,23378 L 16483,23774 Z M 15885,23449 C 15870,23458 15858,23472 15850,23488 15841,23505 15837,23523 15837,23542 L 15837,23609 15837,23610 C 15837,23629 15841,23647 15850,23664 15858,23680 15870,23694 15885,23703 15899,23713 15916,23718 15933,23718 L 16094,23718 16095,23718 C 16112,23718 16128,23713 16143,23703 16157,23694 16170,23680 16178,23664 16186,23647 16191,23629 16191,23610 L 16191,23542 C 16191,23523 16186,23505 16178,23488 16170,23472 16157,23458 16143,23449 16128,23439 16112,23434 16095,23434 L 15933,23434 C 15916,23434 15899,23439 15885,23449 Z"/>
      </g>
     </g>
     <g class="com.sun.star.drawing.ClosedBezierShape">
      <g id="id6">
       <rect class="BoundingBox" stroke="none" fill="none" x="15773" y="24410" width="711" height="399"/>
       <path fill="rgb(112,128,144)" stroke="none" d="M 16483,24807 C 16478,24808 16474,24808 16469,24808 L 15908,24808 C 15884,24808 15861,24801 15840,24788 15820,24774 15803,24755 15791,24732 15779,24709 15773,24683 15773,24656 L 15773,24562 C 15773,24535 15779,24509 15791,24486 15803,24463 15820,24444 15840,24430 15861,24417 15884,24410 15908,24410 L 16469,24410 C 16474,24410 16478,24410 16483,24411 L 16483,24807 Z M 15885,24482 C 15870,24491 15858,24505 15850,24521 15841,24538 15837,24556 15837,24575 L 15837,24642 15837,24643 C 15837,24662 15841,24680 15850,24697 15858,24713 15870,24727 15885,24736 15899,24746 15916,24751 15933,24751 L 16094,24751 16095,24751 C 16112,24751 16128,24746 16143,24736 16157,24727 16170,24713 16178,24697 16186,24680 16191,24662 16191,24643 L 16191,24575 C 16191,24556 16186,24538 16178,24521 16170,24505 16157,24491 16143,24482 16128,24472 16112,24467 16095,24467 L 15933,24467 C 15916,24467 15899,24472 15885,24482 Z"/>
      </g>
     </g>
     <g class="com.sun.star.drawing.ClosedBezierShape">
      <g id="id7">
       <rect class="BoundingBox" stroke="none" fill="none" x="15773" y="26477" width="711" height="399"/>
       <path fill="rgb(112,128,144)" stroke="none" d="M 16483,26874 C 16478,26875 16474,26875 16469,26875 L 15908,26875 C 15884,26875 15861,26868 15840,26855 15820,26841 15803,26822 15791,26799 15779,26776 15773,26750 15773,26723 L 15773,26629 C 15773,26602 15779,26576 15791,26553 15803,26530 15820,26511 15840,26497 15861,26484 15884,26477 15908,26477 L 16469,26477 C 16474,26477 16478,26477 16483,26478 L 16483,26874 Z M 15885,26549 C 15870,26558 15858,26572 15850,26588 15841,26605 15837,26623 15837,26642 L 15837,26709 15837,26710 C 15837,26729 15841,26747 15850,26764 15858,26780 15870,26794 15885,26803 15899,26813 15916,26818 15933,26818 L 16094,26818 16095,26818 C 16112,26818 16128,26813 16143,26803 16157,26794 16170,26780 16178,26764 16186,26747 16191,26729 16191,26710 L 16191,26642 C 16191,26623 16186,26605 16178,26588 16170,26572 16157,26558 16143,26549 16128,26539 16112,26534 16095,26534 L 15933,26534 C 15916,26534 15899,26539 15885,26549 Z"/>
      </g>
     </g>
     <g class="com.sun.star.drawing.ClosedBezierShape">
      <g id="id8">
       <rect class="BoundingBox" stroke="none" fill="none" x="15773" y="25444" width="711" height="399"/>
       <path fill="rgb(112,128,144)" stroke="none" d="M 16483,25841 C 16478,25842 16474,25842 16469,25842 L 15908,25842 C 15884,25842 15861,25835 15840,25822 15820,25808 15803,25789 15791,25766 15779,25743 15773,25717 15773,25690 L 15773,25596 C 15773,25569 15779,25543 15791,25520 15803,25497 15820,25478 15840,25464 15861,25451 15884,25444 15908,25444 L 16469,25444 C 16474,25444 16478,25444 16483,25445 L 16483,25841 Z M 15885,25516 C 15870,25525 15858,25539 15850,25555 15841,25572 15837,25590 15837,25609 L 15837,25676 15837,25677 C 15837,25696 15841,25714 15850,25731 15858,25747 15870,25761 15885,25770 15899,25780 15916,25785 15933,25785 L 16094,25785 16095,25785 C 16112,25785 16128,25780 16143,25770 16157,25761 16170,25747 16178,25731 16186,25714 16191,25696 16191,25677 L 16191,25609 C 16191,25590 16186,25572 16178,25555 16170,25539 16157,25525 16143,25516 16128,25506 16112,25501 16095,25501 L 15933,25501 C 15916,25501 15899,25506 15885,25516 Z"/>
      </g>
     </g>
    </g>
    <g class="Group">
     <g class="com.sun.star.drawing.ClosedBezierShape">
      <g id="id9">
       <rect class="BoundingBox" stroke="none" fill="none" x="15756" y="23364" width="713" height="401"/>
       <g>
        <defs>
         <linearGradient id="gradient2" x1="15937" y1="23261" x2="16287" y2="23867" gradientUnits="userSpaceOnUse">
          <stop offset="0" style="stop-color:rgb(211,211,211)"/>
          <stop offset="1" style="stop-color:rgb(169,169,169)"/>
         </linearGradient>
        </defs>
        <path style="fill:url(#gradient2)" d="M 16467,23762 L 16465,23762 16463,23763 16462,23763 16460,23763 16457,23763 16453,23763 15892,23763 15883,23763 15874,23762 15865,23760 15857,23758 15848,23755 15840,23752 15832,23748 15824,23743 15817,23738 15810,23732 15803,23725 15797,23718 15791,23711 15785,23703 15780,23695 15775,23687 15771,23678 15767,23669 15764,23660 15762,23651 15760,23641 15758,23631 15757,23621 15757,23611 15757,23517 15757,23507 15758,23497 15760,23487 15762,23478 15764,23468 15767,23459 15771,23450 15775,23441 15780,23433 15785,23425 15791,23417 15797,23410 15803,23403 15810,23396 15817,23390 15824,23385 15832,23380 15840,23376 15848,23373 15857,23370 15865,23368 15874,23366 15883,23365 15892,23365 16453,23365 16457,23365 16460,23365 16462,23365 16463,23365 16465,23366 16467,23366 16467,23762 Z M 15869,23437 L 15864,23441 15858,23445 15853,23449 15849,23454 15845,23459 15841,23464 15837,23470 15834,23476 15831,23482 15828,23489 15826,23496 15824,23502 15823,23509 15822,23516 15821,23523 15821,23530 15821,23597 15821,23598 15821,23605 15822,23612 15823,23619 15824,23626 15826,23632 15828,23639 15831,23646 15834,23652 15837,23658 15841,23664 15845,23669 15849,23674 15853,23679 15858,23683 15864,23687 15869,23691 15874,23695 15880,23698 15886,23700 15892,23702 15898,23704 15904,23705 15911,23706 15917,23706 16078,23706 16079,23706 16085,23706 16092,23705 16098,23704 16104,23702 16110,23700 16116,23698 16121,23695 16127,23691 16132,23687 16137,23683 16142,23679 16147,23674 16151,23669 16155,23664 16159,23658 16162,23652 16165,23646 16167,23639 16170,23632 16172,23626 16173,23619 16174,23612 16175,23605 16175,23598 16175,23530 16175,23523 16174,23516 16173,23509 16172,23502 16170,23496 16167,23489 16165,23482 16162,23476 16159,23470 16155,23464 16151,23459 16147,23454 16142,23449 16137,23445 16132,23441 16127,23437 16121,23433 16116,23430 16110,23428 16104,23426 16098,23424 16092,23423 16085,23422 16079,23422 15917,23422 15911,23422 15904,23423 15898,23424 15892,23426 15886,23428 15880,23430 15874,23433 15869,23437 Z"/>
       </g>
       <path fill="none" stroke="rgb(112,128,144)" d="M 16467,23762 C 16462,23763 16458,23763 16453,23763 L 15892,23763 C 15868,23763 15845,23756 15824,23743 15804,23729 15787,23710 15775,23687 15763,23664 15757,23638 15757,23611 L 15757,23517 C 15757,23490 15763,23464 15775,23441 15787,23418 15804,23399 15824,23385 15845,23372 15868,23365 15892,23365 L 16453,23365 C 16458,23365 16462,23365 16467,23366 L 16467,23762 Z"/>
       <path fill="none" stroke="rgb(112,128,144)" d="M 15869,23437 C 15854,23446 15842,23460 15834,23476 15825,23493 15821,23511 15821,23530 L 15821,23597 15821,23598 C 15821,23617 15825,23635 15834,23652 15842,23668 15854,23682 15869,23691 15883,23701 15900,23706 15917,23706 L 16078,23706 16079,23706 C 16096,23706 16112,23701 16127,23691 16141,23682 16154,23668 16162,23652 16170,23635 16175,23617 16175,23598 L 16175,23530 C 16175,23511 16170,23493 16162,23476 16154,23460 16141,23446 16127,23437 16112,23427 16096,23422 16079,23422 L 15917,23422 C 15900,23422 15883,23427 15869,23437 Z"/>
      </g>
     </g>
     <g class="com.sun.star.drawing.ClosedBezierShape">
      <g id="id10">
       <rect class="BoundingBox" stroke="none" fill="none" x="15756" y="24397" width="713" height="401"/>
       <g>
        <defs>
         <linearGradient id="gradient3" x1="15937" y1="24294" x2="16287" y2="24900" gradientUnits="userSpaceOnUse">
          <stop offset="0" style="stop-color:rgb(211,211,211)"/>
          <stop offset="1" style="stop-color:rgb(169,169,169)"/>
         </linearGradient>
        </defs>
        <path style="fill:url(#gradient3)" d="M 16467,24795 L 16465,24795 16463,24796 16462,24796 16460,24796 16457,24796 16453,24796 15892,24796 15883,24796 15874,24795 15865,24793 15857,24791 15848,24788 15840,24785 15832,24781 15824,24776 15817,24771 15810,24765 15803,24758 15797,24751 15791,24744 15785,24736 15780,24728 15775,24720 15771,24711 15767,24702 15764,24693 15762,24684 15760,24674 15758,24664 15757,24654 15757,24644 15757,24550 15757,24540 15758,24530 15760,24520 15762,24511 15764,24501 15767,24492 15771,24483 15775,24474 15780,24466 15785,24458 15791,24450 15797,24443 15803,24436 15810,24429 15817,24423 15824,24418 15832,24413 15840,24409 15848,24406 15857,24403 15865,24401 15874,24399 15883,24398 15892,24398 16453,24398 16457,24398 16460,24398 16462,24398 16463,24398 16465,24399 16467,24399 16467,24795 Z M 15869,24470 L 15864,24474 15858,24478 15853,24482 15849,24487 15845,24492 15841,24497 15837,24503 15834,24509 15831,24515 15828,24522 15826,24529 15824,24535 15823,24542 15822,24549 15821,24556 15821,24563 15821,24630 15821,24631 15821,24638 15822,24645 15823,24652 15824,24659 15826,24665 15828,24672 15831,24679 15834,24685 15837,24691 15841,24697 15845,24702 15849,24707 15853,24712 15858,24716 15864,24720 15869,24724 15874,24728 15880,24731 15886,24733 15892,24735 15898,24737 15904,24738 15911,24739 15917,24739 16078,24739 16079,24739 16085,24739 16092,24738 16098,24737 16104,24735 16110,24733 16116,24731 16121,24728 16127,24724 16132,24720 16137,24716 16142,24712 16147,24707 16151,24702 16155,24697 16159,24691 16162,24685 16165,24679 16167,24672 16170,24665 16172,24659 16173,24652 16174,24645 16175,24638 16175,24631 16175,24563 16175,24556 16174,24549 16173,24542 16172,24535 16170,24529 16167,24522 16165,24515 16162,24509 16159,24503 16155,24497 16151,24492 16147,24487 16142,24482 16137,24478 16132,24474 16127,24470 16121,24466 16116,24463 16110,24461 16104,24459 16098,24457 16092,24456 16085,24455 16079,24455 15917,24455 15911,24455 15904,24456 15898,24457 15892,24459 15886,24461 15880,24463 15874,24466 15869,24470 Z"/>
       </g>
       <path fill="none" stroke="rgb(112,128,144)" d="M 16467,24795 C 16462,24796 16458,24796 16453,24796 L 15892,24796 C 15868,24796 15845,24789 15824,24776 15804,24762 15787,24743 15775,24720 15763,24697 15757,24671 15757,24644 L 15757,24550 C 15757,24523 15763,24497 15775,24474 15787,24451 15804,24432 15824,24418 15845,24405 15868,24398 15892,24398 L 16453,24398 C 16458,24398 16462,24398 16467,24399 L 16467,24795 Z"/>
       <path fill="none" stroke="rgb(112,128,144)" d="M 15869,24470 C 15854,24479 15842,24493 15834,24509 15825,24526 15821,24544 15821,24563 L 15821,24630 15821,24631 C 15821,24650 15825,24668 15834,24685 15842,24701 15854,24715 15869,24724 15883,24734 15900,24739 15917,24739 L 16078,24739 16079,24739 C 16096,24739 16112,24734 16127,24724 16141,24715 16154,24701 16162,24685 16170,24668 16175,24650 16175,24631 L 16175,24563 C 16175,24544 16170,24526 16162,24509 16154,24493 16141,24479 16127,24470 16112,24460 16096,24455 16079,24455 L 15917,24455 C 15900,24455 15883,24460 15869,24470 Z"/>
      </g>
     </g>
     <g class="com.sun.star.drawing.ClosedBezierShape">
      <g id="id11">
       <rect class="BoundingBox" stroke="none" fill="none" x="15756" y="26464" width="713" height="401"/>
       <g>
        <defs>
         <linearGradient id="gradient4" x1="15937" y1="26361" x2="16287" y2="26967" gradientUnits="userSpaceOnUse">
          <stop offset="0" style="stop-color:rgb(211,211,211)"/>
          <stop offset="1" style="stop-color:rgb(169,169,169)"/>
         </linearGradient>
        </defs>
        <path style="fill:url(#gradient4)" d="M 16467,26862 L 16465,26862 16463,26863 16462,26863 16460,26863 16457,26863 16453,26863 15892,26863 15883,26863 15874,26862 15865,26860 15857,26858 15848,26855 15840,26852 15832,26848 15824,26843 15817,26838 15810,26832 15803,26825 15797,26818 15791,26811 15785,26803 15780,26795 15775,26787 15771,26778 15767,26769 15764,26760 15762,26751 15760,26741 15758,26731 15757,26721 15757,26711 15757,26617 15757,26607 15758,26597 15760,26587 15762,26578 15764,26568 15767,26559 15771,26550 15775,26541 15780,26533 15785,26525 15791,26517 15797,26510 15803,26503 15810,26496 15817,26490 15824,26485 15832,26480 15840,26476 15848,26473 15857,26470 15865,26468 15874,26466 15883,26465 15892,26465 16453,26465 16457,26465 16460,26465 16462,26465 16463,26465 16465,26466 16467,26466 16467,26862 Z M 15869,26537 L 15864,26541 15858,26545 15853,26549 15849,26554 15845,26559 15841,26564 15837,26570 15834,26576 15831,26582 15828,26589 15826,26596 15824,26602 15823,26609 15822,26616 15821,26623 15821,26630 15821,26697 15821,26698 15821,26705 15822,26712 15823,26719 15824,26726 15826,26732 15828,26739 15831,26746 15834,26752 15837,26758 15841,26764 15845,26769 15849,26774 15853,26779 15858,26783 15864,26787 15869,26791 15874,26795 15880,26798 15886,26800 15892,26802 15898,26804 15904,26805 15911,26806 15917,26806 16078,26806 16079,26806 16085,26806 16092,26805 16098,26804 16104,26802 16110,26800 16116,26798 16121,26795 16127,26791 16132,26787 16137,26783 16142,26779 16147,26774 16151,26769 16155,26764 16159,26758 16162,26752 16165,26746 16167,26739 16170,26732 16172,26726 16173,26719 16174,26712 16175,26705 16175,26698 16175,26630 16175,26623 16174,26616 16173,26609 16172,26602 16170,26596 16167,26589 16165,26582 16162,26576 16159,26570 16155,26564 16151,26559 16147,26554 16142,26549 16137,26545 16132,26541 16127,26537 16121,26533 16116,26530 16110,26528 16104,26526 16098,26524 16092,26523 16085,26522 16079,26522 15917,26522 15911,26522 15904,26523 15898,26524 15892,26526 15886,26528 15880,26530 15874,26533 15869,26537 Z"/>
       </g>
       <path fill="none" stroke="rgb(112,128,144)" d="M 16467,26862 C 16462,26863 16458,26863 16453,26863 L 15892,26863 C 15868,26863 15845,26856 15824,26843 15804,26829 15787,26810 15775,26787 15763,26764 15757,26738 15757,26711 L 15757,26617 C 15757,26590 15763,26564 15775,26541 15787,26518 15804,26499 15824,26485 15845,26472 15868,26465 15892,26465 L 16453,26465 C 16458,26465 16462,26465 16467,26466 L 16467,26862 Z"/>
       <path fill="none" stroke="rgb(112,128,144)" d="M 15869,26537 C 15854,26546 15842,26560 15834,26576 15825,26593 15821,26611 15821,26630 L 15821,26697 15821,26698 C 15821,26717 15825,26735 15834,26752 15842,26768 15854,26782 15869,26791 15883,26801 15900,26806 15917,26806 L 16078,26806 16079,26806 C 16096,26806 16112,26801 16127,26791 16141,26782 16154,26768 16162,26752 16170,26735 16175,26717 16175,26698 L 16175,26630 C 16175,26611 16170,26593 16162,26576 16154,26560 16141,26546 16127,26537 16112,26527 16096,26522 16079,26522 L 15917,26522 C 15900,26522 15883,26527 15869,26537 Z"/>
      </g>
     </g>
     <g class="com.sun.star.drawing.ClosedBezierShape">
      <g id="id12">
       <rect class="BoundingBox" stroke="none" fill="none" x="15756" y="25431" width="713" height="401"/>
       <g>
        <defs>
         <linearGradient id="gradient5" x1="15937" y1="25328" x2="16287" y2="25934" gradientUnits="userSpaceOnUse">
          <stop offset="0" style="stop-color:rgb(211,211,211)"/>
          <stop offset="1" style="stop-color:rgb(169,169,169)"/>
         </linearGradient>
        </defs>
        <path style="fill:url(#gradient5)" d="M 16467,25829 L 16465,25829 16463,25830 16462,25830 16460,25830 16457,25830 16453,25830 15892,25830 15883,25830 15874,25829 15865,25827 15857,25825 15848,25822 15840,25819 15832,25815 15824,25810 15817,25805 15810,25799 15803,25792 15797,25785 15791,25778 15785,25770 15780,25762 15775,25754 15771,25745 15767,25736 15764,25727 15762,25718 15760,25708 15758,25698 15757,25688 15757,25678 15757,25584 15757,25574 15758,25564 15760,25554 15762,25545 15764,25535 15767,25526 15771,25517 15775,25508 15780,25500 15785,25492 15791,25484 15797,25477 15803,25470 15810,25463 15817,25457 15824,25452 15832,25447 15840,25443 15848,25440 15857,25437 15865,25435 15874,25433 15883,25432 15892,25432 16453,25432 16457,25432 16460,25432 16462,25432 16463,25432 16465,25433 16467,25433 16467,25829 Z M 15869,25504 L 15864,25508 15858,25512 15853,25516 15849,25521 15845,25526 15841,25531 15837,25537 15834,25543 15831,25549 15828,25556 15826,25563 15824,25569 15823,25576 15822,25583 15821,25590 15821,25597 15821,25664 15821,25665 15821,25672 15822,25679 15823,25686 15824,25693 15826,25699 15828,25706 15831,25713 15834,25719 15837,25725 15841,25731 15845,25736 15849,25741 15853,25746 15858,25750 15864,25754 15869,25758 15874,25762 15880,25765 15886,25767 15892,25769 15898,25771 15904,25772 15911,25773 15917,25773 16078,25773 16079,25773 16085,25773 16092,25772 16098,25771 16104,25769 16110,25767 16116,25765 16121,25762 16127,25758 16132,25754 16137,25750 16142,25746 16147,25741 16151,25736 16155,25731 16159,25725 16162,25719 16165,25713 16167,25706 16170,25699 16172,25693 16173,25686 16174,25679 16175,25672 16175,25665 16175,25597 16175,25590 16174,25583 16173,25576 16172,25569 16170,25563 16167,25556 16165,25549 16162,25543 16159,25537 16155,25531 16151,25526 16147,25521 16142,25516 16137,25512 16132,25508 16127,25504 16121,25500 16116,25497 16110,25495 16104,25493 16098,25491 16092,25490 16085,25489 16079,25489 15917,25489 15911,25489 15904,25490 15898,25491 15892,25493 15886,25495 15880,25497 15874,25500 15869,25504 Z"/>
       </g>
       <path fill="none" stroke="rgb(112,128,144)" d="M 16467,25829 C 16462,25830 16458,25830 16453,25830 L 15892,25830 C 15868,25830 15845,25823 15824,25810 15804,25796 15787,25777 15775,25754 15763,25731 15757,25705 15757,25678 L 15757,25584 C 15757,25557 15763,25531 15775,25508 15787,25485 15804,25466 15824,25452 15845,25439 15868,25432 15892,25432 L 16453,25432 C 16458,25432 16462,25432 16467,25433 L 16467,25829 Z"/>
       <path fill="none" stroke="rgb(112,128,144)" d="M 15869,25504 C 15854,25513 15842,25527 15834,25543 15825,25560 15821,25578 15821,25597 L 15821,25664 15821,25665 C 15821,25684 15825,25702 15834,25719 15842,25735 15854,25749 15869,25758 15883,25768 15900,25773 15917,25773 L 16078,25773 16079,25773 C 16096,25773 16112,25768 16127,25758 16141,25749 16154,25735 16162,25719 16170,25702 16175,25684 16175,25665 L 16175,25597 C 16175,25578 16170,25560 16162,25543 16154,25527 16141,25513 16127,25504 16112,25494 16096,25489 16079,25489 L 15917,25489 C 15900,25489 15883,25494 15869,25504 Z"/>
      </g>
     </g>
    </g>
   </g>
   <g class="Group">
    <g class="Group">
     <g class="com.sun.star.drawing.ClosedBezierShape">
      <g id="id13">
       <rect class="BoundingBox" stroke="none" fill="none" x="16557" y="22976" width="711" height="400"/>
       <path fill="rgb(112,128,144)" stroke="none" d="M 16557,23374 C 16562,23375 16566,23375 16571,23375 L 17132,23375 C 17156,23375 17179,23368 17200,23355 17220,23341 17237,23322 17249,23299 17261,23276 17267,23250 17267,23223 L 17267,23129 C 17267,23102 17261,23076 17249,23053 17237,23030 17220,23011 17200,22997 17179,22984 17156,22977 17132,22977 L 16571,22977 C 16566,22977 16562,22977 16557,22978 L 16557,23374 Z M 17155,23049 C 17170,23058 17182,23072 17190,23088 17199,23105 17203,23123 17203,23142 L 17203,23209 17203,23210 C 17203,23229 17199,23247 17190,23264 17182,23280 17170,23294 17155,23303 17141,23313 17124,23318 17107,23318 L 16946,23318 16945,23318 C 16928,23318 16912,23313 16897,23303 16883,23294 16870,23280 16862,23264 16854,23247 16849,23229 16849,23210 L 16849,23142 C 16849,23123 16854,23105 16862,23088 16870,23072 16883,23058 16897,23049 16912,23039 16928,23034 16945,23034 L 17107,23034 C 17124,23034 17141,23039 17155,23049 Z"/>
      </g>
     </g>
     <g class="com.sun.star.drawing.ClosedBezierShape">
      <g id="id14">
       <rect class="BoundingBox" stroke="none" fill="none" x="16557" y="24010" width="711" height="399"/>
       <path fill="rgb(112,128,144)" stroke="none" d="M 16557,24407 C 16562,24408 16566,24408 16571,24408 L 17132,24408 C 17156,24408 17179,24401 17200,24388 17220,24374 17237,24355 17249,24332 17261,24309 17267,24283 17267,24256 L 17267,24162 C 17267,24135 17261,24109 17249,24086 17237,24063 17220,24044 17200,24030 17179,24017 17156,24010 17132,24010 L 16571,24010 C 16566,24010 16562,24010 16557,24011 L 16557,24407 Z M 17155,24082 C 17170,24091 17182,24105 17190,24121 17199,24138 17203,24156 17203,24175 L 17203,24242 17203,24243 C 17203,24262 17199,24280 17190,24297 17182,24313 17170,24327 17155,24336 17141,24346 17124,24351 17107,24351 L 16946,24351 16945,24351 C 16928,24351 16912,24346 16897,24336 16883,24327 16870,24313 16862,24297 16854,24280 16849,24262 16849,24243 L 16849,24175 C 16849,24156 16854,24138 16862,24121 16870,24105 16883,24091 16897,24082 16912,24072 16928,24067 16945,24067 L 17107,24067 C 17124,24067 17141,24072 17155,24082 Z"/>
      </g>
     </g>
     <g class="com.sun.star.drawing.ClosedBezierShape">
      <g id="id15">
       <rect class="BoundingBox" stroke="none" fill="none" x="16557" y="26076" width="711" height="400"/>
       <path fill="rgb(112,128,144)" stroke="none" d="M 16557,26474 C 16562,26475 16566,26475 16571,26475 L 17132,26475 C 17156,26475 17179,26468 17200,26455 17220,26441 17237,26422 17249,26399 17261,26376 17267,26350 17267,26323 L 17267,26229 C 17267,26202 17261,26176 17249,26153 17237,26130 17220,26111 17200,26097 17179,26084 17156,26077 17132,26077 L 16571,26077 C 16566,26077 16562,26077 16557,26078 L 16557,26474 Z M 17155,26149 C 17170,26158 17182,26172 17190,26188 17199,26205 17203,26223 17203,26242 L 17203,26309 17203,26310 C 17203,26329 17199,26347 17190,26364 17182,26380 17170,26394 17155,26403 17141,26413 17124,26418 17107,26418 L 16946,26418 16945,26418 C 16928,26418 16912,26413 16897,26403 16883,26394 16870,26380 16862,26364 16854,26347 16849,26329 16849,26310 L 16849,26242 C 16849,26223 16854,26205 16862,26188 16870,26172 16883,26158 16897,26149 16912,26139 16928,26134 16945,26134 L 17107,26134 C 17124,26134 17141,26139 17155,26149 Z"/>
      </g>
     </g>
     <g class="com.sun.star.drawing.ClosedBezierShape">
      <g id="id16">
       <rect class="BoundingBox" stroke="none" fill="none" x="16557" y="25044" width="711" height="399"/>
       <path fill="rgb(112,128,144)" stroke="none" d="M 16557,25441 C 16562,25442 16566,25442 16571,25442 L 17132,25442 C 17156,25442 17179,25435 17200,25422 17220,25408 17237,25389 17249,25366 17261,25343 17267,25317 17267,25290 L 17267,25196 C 17267,25169 17261,25143 17249,25120 17237,25097 17220,25078 17200,25064 17179,25051 17156,25044 17132,25044 L 16571,25044 C 16566,25044 16562,25044 16557,25045 L 16557,25441 Z M 17155,25116 C 17170,25125 17182,25139 17190,25155 17199,25172 17203,25190 17203,25209 L 17203,25276 17203,25277 C 17203,25296 17199,25314 17190,25331 17182,25347 17170,25361 17155,25370 17141,25380 17124,25385 17107,25385 L 16946,25385 16945,25385 C 16928,25385 16912,25380 16897,25370 16883,25361 16870,25347 16862,25331 16854,25314 16849,25296 16849,25277 L 16849,25209 C 16849,25190 16854,25172 16862,25155 16870,25139 16883,25125 16897,25116 16912,25106 16928,25101 16945,25101 L 17107,25101 C 17124,25101 17141,25106 17155,25116 Z"/>
      </g>
     </g>
    </g>
    <g class="Group">
     <g class="com.sun.star.drawing.ClosedBezierShape">
      <g id="id17">
       <rect class="BoundingBox" stroke="none" fill="none" x="16572" y="22964" width="713" height="401"/>
       <g>
        <defs>
         <linearGradient id="gradient6" x1="16753" y1="22861" x2="17103" y2="23467" gradientUnits="userSpaceOnUse">
          <stop offset="0" style="stop-color:rgb(211,211,211)"/>
          <stop offset="1" style="stop-color:rgb(169,169,169)"/>
         </linearGradient>
        </defs>
        <path style="fill:url(#gradient6)" d="M 16573,23362 L 16575,23362 16577,23363 16578,23363 16580,23363 16583,23363 16587,23363 17148,23363 17157,23363 17166,23362 17175,23360 17183,23358 17192,23355 17200,23352 17208,23348 17216,23343 17223,23338 17230,23332 17237,23325 17244,23318 17249,23311 17255,23303 17260,23295 17265,23287 17269,23278 17273,23269 17276,23260 17279,23251 17280,23241 17282,23231 17283,23221 17283,23211 17283,23117 17283,23107 17282,23097 17280,23087 17279,23078 17276,23068 17273,23059 17269,23050 17265,23041 17260,23033 17255,23025 17249,23017 17244,23010 17237,23003 17230,22996 17223,22990 17216,22985 17208,22980 17200,22976 17192,22973 17183,22970 17175,22968 17166,22966 17157,22965 17148,22965 16587,22965 16583,22965 16580,22965 16578,22965 16577,22965 16575,22966 16573,22966 16573,23362 Z M 17171,23037 L 17176,23041 17182,23045 17187,23049 17191,23054 17195,23059 17199,23064 17203,23070 17206,23076 17209,23082 17212,23089 17214,23096 17216,23102 17217,23109 17218,23116 17219,23123 17219,23130 17219,23197 17219,23198 17219,23205 17218,23212 17217,23219 17216,23226 17214,23232 17212,23239 17209,23246 17206,23252 17203,23258 17199,23264 17195,23269 17191,23274 17187,23279 17182,23283 17176,23287 17171,23291 17166,23295 17160,23298 17154,23300 17148,23302 17142,23304 17136,23305 17129,23306 17123,23306 16962,23306 16961,23306 16955,23306 16948,23305 16942,23304 16936,23302 16930,23300 16924,23298 16919,23295 16913,23291 16908,23287 16903,23283 16898,23279 16893,23274 16889,23269 16885,23264 16881,23258 16878,23252 16875,23246 16873,23239 16870,23232 16869,23226 16867,23219 16866,23212 16865,23205 16865,23198 16865,23130 16865,23123 16866,23116 16867,23109 16869,23102 16870,23096 16873,23089 16875,23082 16878,23076 16881,23070 16885,23064 16889,23059 16893,23054 16898,23049 16903,23045 16908,23041 16913,23037 16919,23033 16924,23030 16930,23028 16936,23026 16942,23024 16948,23023 16955,23022 16961,23022 17123,23022 17129,23022 17136,23023 17142,23024 17148,23026 17154,23028 17160,23030 17166,23033 17171,23037 Z"/>
       </g>
       <path fill="none" stroke="rgb(112,128,144)" d="M 16573,23362 C 16578,23363 16582,23363 16587,23363 L 17148,23363 C 17172,23363 17195,23356 17216,23343 17236,23329 17253,23310 17265,23287 17277,23264 17283,23238 17283,23211 L 17283,23117 C 17283,23090 17277,23064 17265,23041 17253,23018 17236,22999 17216,22985 17195,22972 17172,22965 17148,22965 L 16587,22965 C 16582,22965 16578,22965 16573,22966 L 16573,23362 Z"/>
       <path fill="none" stroke="rgb(112,128,144)" d="M 17171,23037 C 17186,23046 17198,23060 17206,23076 17215,23093 17219,23111 17219,23130 L 17219,23197 17219,23198 C 17219,23217 17215,23235 17206,23252 17198,23268 17186,23282 17171,23291 17157,23301 17140,23306 17123,23306 L 16962,23306 16961,23306 C 16944,23306 16928,23301 16913,23291 16899,23282 16886,23268 16878,23252 16870,23235 16865,23217 16865,23198 L 16865,23130 C 16865,23111 16870,23093 16878,23076 16886,23060 16899,23046 16913,23037 16928,23027 16944,23022 16961,23022 L 17123,23022 C 17140,23022 17157,23027 17171,23037 Z"/>
      </g>
     </g>
     <g class="com.sun.star.drawing.ClosedBezierShape">
      <g id="id18">
       <rect class="BoundingBox" stroke="none" fill="none" x="16572" y="23997" width="713" height="401"/>
       <g>
        <defs>
         <linearGradient id="gradient7" x1="16753" y1="23894" x2="17103" y2="24500" gradientUnits="userSpaceOnUse">
          <stop offset="0" style="stop-color:rgb(211,211,211)"/>
          <stop offset="1" style="stop-color:rgb(169,169,169)"/>
         </linearGradient>
        </defs>
        <path style="fill:url(#gradient7)" d="M 16573,24395 L 16575,24395 16577,24396 16578,24396 16580,24396 16583,24396 16587,24396 17148,24396 17157,24396 17166,24395 17175,24393 17183,24391 17192,24388 17200,24385 17208,24381 17216,24376 17223,24371 17230,24365 17237,24358 17244,24351 17249,24344 17255,24336 17260,24328 17265,24320 17269,24311 17273,24302 17276,24293 17279,24284 17280,24274 17282,24264 17283,24254 17283,24244 17283,24150 17283,24140 17282,24130 17280,24120 17279,24111 17276,24101 17273,24092 17269,24083 17265,24074 17260,24066 17255,24058 17249,24050 17244,24043 17237,24036 17230,24029 17223,24023 17216,24018 17208,24013 17200,24009 17192,24006 17183,24003 17175,24001 17166,23999 17157,23998 17148,23998 16587,23998 16583,23998 16580,23998 16578,23998 16577,23998 16575,23999 16573,23999 16573,24395 Z M 17171,24070 L 17176,24074 17182,24078 17187,24082 17191,24087 17195,24092 17199,24097 17203,24103 17206,24109 17209,24115 17212,24122 17214,24129 17216,24135 17217,24142 17218,24149 17219,24156 17219,24163 17219,24230 17219,24231 17219,24238 17218,24245 17217,24252 17216,24259 17214,24265 17212,24272 17209,24279 17206,24285 17203,24291 17199,24297 17195,24302 17191,24307 17187,24312 17182,24316 17176,24320 17171,24324 17166,24328 17160,24331 17154,24333 17148,24335 17142,24337 17136,24338 17129,24339 17123,24339 16962,24339 16961,24339 16955,24339 16948,24338 16942,24337 16936,24335 16930,24333 16924,24331 16919,24328 16913,24324 16908,24320 16903,24316 16898,24312 16893,24307 16889,24302 16885,24297 16881,24291 16878,24285 16875,24279 16873,24272 16870,24265 16869,24259 16867,24252 16866,24245 16865,24238 16865,24231 16865,24163 16865,24156 16866,24149 16867,24142 16869,24135 16870,24129 16873,24122 16875,24115 16878,24109 16881,24103 16885,24097 16889,24092 16893,24087 16898,24082 16903,24078 16908,24074 16913,24070 16919,24066 16924,24063 16930,24061 16936,24059 16942,24057 16948,24056 16955,24055 16961,24055 17123,24055 17129,24055 17136,24056 17142,24057 17148,24059 17154,24061 17160,24063 17166,24066 17171,24070 Z"/>
       </g>
       <path fill="none" stroke="rgb(112,128,144)" d="M 16573,24395 C 16578,24396 16582,24396 16587,24396 L 17148,24396 C 17172,24396 17195,24389 17216,24376 17236,24362 17253,24343 17265,24320 17277,24297 17283,24271 17283,24244 L 17283,24150 C 17283,24123 17277,24097 17265,24074 17253,24051 17236,24032 17216,24018 17195,24005 17172,23998 17148,23998 L 16587,23998 C 16582,23998 16578,23998 16573,23999 L 16573,24395 Z"/>
       <path fill="none" stroke="rgb(112,128,144)" d="M 17171,24070 C 17186,24079 17198,24093 17206,24109 17215,24126 17219,24144 17219,24163 L 17219,24230 17219,24231 C 17219,24250 17215,24268 17206,24285 17198,24301 17186,24315 17171,24324 17157,24334 17140,24339 17123,24339 L 16962,24339 16961,24339 C 16944,24339 16928,24334 16913,24324 16899,24315 16886,24301 16878,24285 16870,24268 16865,24250 16865,24231 L 16865,24163 C 16865,24144 16870,24126 16878,24109 16886,24093 16899,24079 16913,24070 16928,24060 16944,24055 16961,24055 L 17123,24055 C 17140,24055 17157,24060 17171,24070 Z"/>
      </g>
     </g>
     <g class="com.sun.star.drawing.ClosedBezierShape">
      <g id="id19">
       <rect class="BoundingBox" stroke="none" fill="none" x="16572" y="26064" width="713" height="401"/>
       <g>
        <defs>
         <linearGradient id="gradient8" x1="16753" y1="25961" x2="17103" y2="26567" gradientUnits="userSpaceOnUse">
          <stop offset="0" style="stop-color:rgb(211,211,211)"/>
          <stop offset="1" style="stop-color:rgb(169,169,169)"/>
         </linearGradient>
        </defs>
        <path style="fill:url(#gradient8)" d="M 16573,26462 L 16575,26462 16577,26463 16578,26463 16580,26463 16583,26463 16587,26463 17148,26463 17157,26463 17166,26462 17175,26460 17183,26458 17192,26455 17200,26452 17208,26448 17216,26443 17223,26438 17230,26432 17237,26425 17244,26418 17249,26411 17255,26403 17260,26395 17265,26387 17269,26378 17273,26369 17276,26360 17279,26351 17280,26341 17282,26331 17283,26321 17283,26311 17283,26217 17283,26207 17282,26197 17280,26187 17279,26177 17276,26168 17273,26159 17269,26150 17265,26141 17260,26133 17255,26125 17249,26117 17244,26110 17237,26103 17230,26096 17223,26090 17216,26085 17208,26080 17200,26076 17192,26073 17183,26070 17175,26068 17166,26066 17157,26065 17148,26065 16587,26065 16583,26065 16580,26065 16578,26065 16577,26065 16575,26066 16573,26066 16573,26462 Z M 17171,26137 L 17176,26141 17182,26145 17187,26149 17191,26154 17195,26159 17199,26164 17203,26170 17206,26176 17209,26182 17212,26189 17214,26196 17216,26202 17217,26209 17218,26216 17219,26223 17219,26230 17219,26297 17219,26298 17219,26305 17218,26312 17217,26319 17216,26326 17214,26332 17212,26339 17209,26346 17206,26352 17203,26358 17199,26364 17195,26369 17191,26374 17187,26379 17182,26383 17176,26387 17171,26391 17166,26395 17160,26398 17154,26400 17148,26402 17142,26404 17136,26405 17129,26406 17123,26406 16962,26406 16961,26406 16955,26406 16948,26405 16942,26404 16936,26402 16930,26400 16924,26398 16919,26395 16913,26391 16908,26387 16903,26383 16898,26379 16893,26374 16889,26369 16885,26364 16881,26358 16878,26352 16875,26346 16873,26339 16870,26332 16869,26326 16867,26319 16866,26312 16865,26305 16865,26298 16865,26230 16865,26223 16866,26216 16867,26209 16869,26202 16870,26196 16873,26189 16875,26182 16878,26176 16881,26170 16885,26164 16889,26159 16893,26154 16898,26149 16903,26145 16908,26141 16913,26137 16919,26133 16924,26130 16930,26128 16936,26126 16942,26124 16948,26123 16955,26122 16961,26122 17123,26122 17129,26122 17136,26123 17142,26124 17148,26126 17154,26128 17160,26130 17166,26133 17171,26137 Z"/>
       </g>
       <path fill="none" stroke="rgb(112,128,144)" d="M 16573,26462 C 16578,26463 16582,26463 16587,26463 L 17148,26463 C 17172,26463 17195,26456 17216,26443 17236,26429 17253,26410 17265,26387 17277,26364 17283,26338 17283,26311 L 17283,26217 C 17283,26190 17277,26164 17265,26141 17253,26118 17236,26099 17216,26085 17195,26072 17172,26065 17148,26065 L 16587,26065 C 16582,26065 16578,26065 16573,26066 L 16573,26462 Z"/>
       <path fill="none" stroke="rgb(112,128,144)" d="M 17171,26137 C 17186,26146 17198,26160 17206,26176 17215,26193 17219,26211 17219,26230 L 17219,26297 17219,26298 C 17219,26317 17215,26335 17206,26352 17198,26368 17186,26382 17171,26391 17157,26401 17140,26406 17123,26406 L 16962,26406 16961,26406 C 16944,26406 16928,26401 16913,26391 16899,26382 16886,26368 16878,26352 16870,26335 16865,26317 16865,26298 L 16865,26230 C 16865,26211 16870,26193 16878,26176 16886,26160 16899,26146 16913,26137 16928,26127 16944,26122 16961,26122 L 17123,26122 C 17140,26122 17157,26127 17171,26137 Z"/>
      </g>
     </g>
     <g class="com.sun.star.drawing.ClosedBezierShape">
      <g id="id20">
       <rect class="BoundingBox" stroke="none" fill="none" x="16572" y="25031" width="713" height="401"/>
       <g>
        <defs>
         <linearGradient id="gradient9" x1="16753" y1="24928" x2="17103" y2="25534" gradientUnits="userSpaceOnUse">
          <stop offset="0" style="stop-color:rgb(211,211,211)"/>
          <stop offset="1" style="stop-color:rgb(169,169,169)"/>
         </linearGradient>
        </defs>
        <path style="fill:url(#gradient9)" d="M 16573,25429 L 16575,25429 16577,25430 16578,25430 16580,25430 16583,25430 16587,25430 17148,25430 17157,25430 17166,25429 17175,25427 17183,25425 17192,25422 17200,25419 17208,25415 17216,25410 17223,25405 17230,25399 17237,25392 17244,25385 17249,25378 17255,25370 17260,25362 17265,25354 17269,25345 17273,25336 17276,25327 17279,25318 17280,25308 17282,25298 17283,25288 17283,25278 17283,25184 17283,25174 17282,25164 17280,25154 17279,25145 17276,25135 17273,25126 17269,25117 17265,25108 17260,25100 17255,25092 17249,25084 17244,25077 17237,25070 17230,25063 17223,25057 17216,25052 17208,25047 17200,25043 17192,25040 17183,25037 17175,25035 17166,25033 17157,25032 17148,25032 16587,25032 16583,25032 16580,25032 16578,25032 16577,25032 16575,25033 16573,25033 16573,25429 Z M 17171,25104 L 17176,25108 17182,25112 17187,25116 17191,25121 17195,25126 17199,25131 17203,25137 17206,25143 17209,25149 17212,25156 17214,25163 17216,25169 17217,25176 17218,25183 17219,25190 17219,25197 17219,25264 17219,25265 17219,25272 17218,25279 17217,25286 17216,25293 17214,25299 17212,25306 17209,25313 17206,25319 17203,25325 17199,25331 17195,25336 17191,25341 17187,25346 17182,25350 17176,25354 17171,25358 17166,25362 17160,25365 17154,25367 17148,25369 17142,25371 17136,25372 17129,25373 17123,25373 16962,25373 16961,25373 16955,25373 16948,25372 16942,25371 16936,25369 16930,25367 16924,25365 16919,25362 16913,25358 16908,25354 16903,25350 16898,25346 16893,25341 16889,25336 16885,25331 16881,25325 16878,25319 16875,25313 16873,25306 16870,25299 16869,25293 16867,25286 16866,25279 16865,25272 16865,25265 16865,25197 16865,25190 16866,25183 16867,25176 16869,25169 16870,25163 16873,25156 16875,25149 16878,25143 16881,25137 16885,25131 16889,25126 16893,25121 16898,25116 16903,25112 16908,25108 16913,25104 16919,25100 16924,25097 16930,25095 16936,25093 16942,25091 16948,25090 16955,25089 16961,25089 17123,25089 17129,25089 17136,25090 17142,25091 17148,25093 17154,25095 17160,25097 17166,25100 17171,25104 Z"/>
       </g>
       <path fill="none" stroke="rgb(112,128,144)" d="M 16573,25429 C 16578,25430 16582,25430 16587,25430 L 17148,25430 C 17172,25430 17195,25423 17216,25410 17236,25396 17253,25377 17265,25354 17277,25331 17283,25305 17283,25278 L 17283,25184 C 17283,25157 17277,25131 17265,25108 17253,25085 17236,25066 17216,25052 17195,25039 17172,25032 17148,25032 L 16587,25032 C 16582,25032 16578,25032 16573,25033 L 16573,25429 Z"/>
       <path fill="none" stroke="rgb(112,128,144)" d="M 17171,25104 C 17186,25113 17198,25127 17206,25143 17215,25160 17219,25178 17219,25197 L 17219,25264 17219,25265 C 17219,25284 17215,25302 17206,25319 17198,25335 17186,25349 17171,25358 17157,25368 17140,25373 17123,25373 L 16962,25373 16961,25373 C 16944,25373 16928,25368 16913,25358 16899,25349 16886,25335 16878,25319 16870,25302 16865,25284 16865,25265 L 16865,25197 C 16865,25178 16870,25160 16878,25143 16886,25127 16899,25113 16913,25104 16928,25094 16944,25089 16961,25089 L 17123,25089 C 17140,25089 17157,25094 17171,25104 Z"/>
      </g>
     </g>
    </g>
   </g>
   <g class="Group">
    <g class="com.sun.star.drawing.CustomShape">
     <g id="id21">
      <rect class="BoundingBox" stroke="none" fill="none" x="16483" y="22937" width="130" height="4422"/>
      <path fill="rgb(218,165,32)" stroke="none" d="M 16548,27358 L 16483,27358 16483,22937 16612,22937 16612,27358 16548,27358 Z"/>
     </g>
    </g>
    <g class="com.sun.star.drawing.CustomShape">
     <g id="id22">
      <rect class="BoundingBox" stroke="none" fill="none" x="16462" y="22916" width="130" height="4422"/>
      <path fill="rgb(189,183,107)" stroke="none" d="M 16527,27337 L 16462,27337 16462,22916 16591,22916 16591,27337 16527,27337 Z"/>
     </g>
    </g>
   </g>
  </g>
 </g>
</svg>